<svg xmlns="http://www.w3.org/2000/svg" width="90" height="59" viewBox="0 0 90 59">
    <g fill="none">
        <path fill="#2557D6" d="M0 0H89.45V57.405H0z" transform="translate(.367 .791)"/>
        <path fill="#FFF" d="M.028 27.06h4.295l.968-2.24h2.167l.966 2.24h8.448v-1.713l.754 1.72h4.386l.754-1.745v1.738H43.76l-.01-3.677h.407c.284.01.367.035.367.485v3.192h10.86v-.856c.875.45 2.237.856 4.03.856h4.568l.978-2.24h2.167l.956 2.24h8.804v-2.128l1.333 2.128h7.054V12.994h-6.981v1.661l-.978-1.66h-7.164v1.66l-.897-1.66h-9.677c-1.62 0-3.043.216-4.194.82v-.82h-6.677v.82c-.732-.622-1.73-.82-2.839-.82H21.472l-1.637 3.632-1.681-3.633h-7.685v1.661l-.844-1.66H3.072L.028 19.681v7.377zm27.104-2.029h-2.576l-.01-7.898-3.643 7.898h-2.207l-3.653-7.905v7.905H9.932l-.966-2.25H3.733l-.975 2.25H.028l4.5-10.085h3.735l4.274 9.548v-9.548h4.101l3.289 6.841 3.021-6.84h4.184V25.03zM8.107 20.689l-1.72-4.02-1.71 4.02h3.43zm29.278 4.342H28.99V14.946h8.395v2.1h-5.882v1.818h5.74v2.067h-5.74v2.014h5.881v2.086zm11.83-7.369c0 1.608-1.119 2.439-1.77 2.688.549.2 1.019.556 1.242.85.355.501.416.949.416 1.85v1.98H46.57l-.01-1.271c0-.607.06-1.48-.396-1.965-.368-.354-.927-.431-1.832-.431h-2.698v3.668H39.12V14.946h5.78c1.284 0 2.23.033 3.043.483.795.45 1.272 1.108 1.272 2.233zm-3.177 1.498c-.345.2-.753.207-1.243.207h-3.053v-2.24h3.095c.437 0 .895.02 1.191.182.326.147.528.46.528.892 0 .44-.192.795-.518.959zm7.207 5.87h-2.564V14.947h2.564v10.085zm29.766 0h-3.56l-4.764-7.568v7.569h-5.118l-.978-2.25h-5.22l-.949 2.25h-2.94c-1.222 0-2.769-.26-3.645-1.116-.883-.856-1.342-2.016-1.342-3.85 0-1.495.274-2.862 1.354-3.943.813-.805 2.085-1.176 3.817-1.176h2.433v2.161h-2.382c-.917 0-1.435.13-1.934.597-.428.425-.722 1.228-.722 2.285 0 1.08.224 1.86.69 2.368.387.4 1.09.52 1.752.52h1.129l3.541-7.93h3.766l4.255 9.538v-9.538h3.826l4.417 7.023v-7.023h2.574V25.03zM67.736 20.69l-1.74-4.02-1.729 4.02h3.469zm21.679 20.445c-.61.856-1.8 1.29-3.41 1.29h-4.853v-2.163h4.833c.48 0 .815-.06 1.017-.25.191-.169.299-.407.297-.657 0-.294-.122-.527-.307-.667-.182-.154-.448-.224-.885-.224-2.36-.077-5.304.07-5.304-3.122 0-1.463.969-3.003 3.606-3.003h5.006V30.33h-4.652c-1.403 0-2.423.323-3.145.824v-.824H74.74c-1.1 0-2.391.261-3.002.824v-.824H59.453v.824c-.978-.677-2.627-.824-3.389-.824h-8.103v.824c-.773-.719-2.493-.824-3.542-.824h-9.068l-2.075 2.154-1.944-2.154H17.785v14.074h13.291l2.139-2.188 2.014 2.188 8.193.007v-3.31h.805c1.087.016 2.37-.027 3.5-.496v3.799h6.758v-3.668h.326c.416 0 .457.016.457.415v3.252h20.529c1.303 0 2.666-.32 3.42-.9v.9h6.512c1.354 0 2.678-.182 3.685-.648v-2.622zM48.71 35.72c0 2.802-2.18 3.38-4.376 3.38h-3.136v3.384h-4.884l-3.095-3.34-3.216 3.34H20.05V32.397h10.107l3.092 3.306 3.197-3.306h8.03c1.994 0 4.235.53 4.235 3.323zm-19.98 4.642h-6.178v-2.006h5.517v-2.059h-5.517v-1.834h6.3l2.749 2.94-2.87 2.96zm9.956 1.155l-3.859-4.109 3.859-3.978v8.087zm5.706-4.485h-3.248v-2.569h3.277c.907 0 1.537.355 1.537 1.237 0 .873-.6 1.332-1.566 1.332zm17.014-4.635h8.387v2.086h-5.885v1.834h5.741v2.058h-5.74v2.007l5.884.01v2.092h-8.388V32.397zm-3.225 5.4c.56.197 1.017.552 1.23.846.356.493.407.952.417 1.841v2h-2.523v-1.262c0-.607.061-1.505-.406-1.974-.367-.362-.927-.448-1.844-.448h-2.685v3.684h-2.526V32.397h5.802c1.272 0 2.2.054 3.024.476.793.46 1.292 1.09 1.292 2.24 0 1.61-1.12 2.432-1.781 2.683zm-1.42-1.276c-.337.192-.752.208-1.241.208h-3.053v-2.265h3.094c.448 0 .896.009 1.2.182.325.163.52.476.52.907 0 .432-.195.78-.52.968zm22.685.643c.49.485.752 1.099.752 2.137 0 2.17-1.413 3.183-3.948 3.183h-4.894V40.32h4.875c.476 0 .814-.06 1.026-.25.173-.156.297-.383.297-.658 0-.294-.134-.527-.307-.667-.192-.154-.457-.224-.895-.224-2.35-.077-5.293.07-5.293-3.122 0-1.463.958-3.003 3.593-3.003h5.038v2.147h-4.61c-.457 0-.754.017-1.007.182-.275.164-.377.406-.377.726 0 .38.234.64.55.751.265.089.55.115.978.115l1.353.035c1.364.031 2.3.258 2.87.81zm9.972-2.7h-4.58c-.457 0-.761.016-1.017.182-.265.163-.367.405-.367.726 0 .38.224.639.55.75.265.09.55.115.968.115l1.362.035c1.374.033 2.292.26 2.851.812.102.077.163.163.233.25v-2.87z" transform="translate(.367 .791)"/>
    </g>
</svg>
