<svg xmlns="http://www.w3.org/2000/svg" width="73" height="54" viewBox="0 0 73 54">
    <g fill="none" fill-rule="evenodd">
        <path fill="#FFE600" stroke="#000" stroke-width="5.983" d="M33.347.456C28.207.366 10.614.44 5.032 6.588-.288 12.45.252 19.754.252 24.082c0 4.33-.683 12.397 4.78 18.125 5.591 5.862 22.59 5.456 28.36 5.546 5.771.09 22.86.316 28.451-5.546 5.464-5.728 4.78-13.796 4.78-18.125 0-4.328.54-11.632-4.78-17.494C56.261.44 38.487.546 33.347.456h0z" transform="translate(3 3)"/>
        <path fill="#000" fill-rule="nonzero" d="M27.665 7.915c1.352-.049 2.587-.065 3.607-.066v-2.66c-2.473.013-6.093.127-9.736.558v2.616c1.207-.143 2.425-.246 3.605-.323v16.132h2.525l-.001-16.257zM33.077 5.196l.243.004c1.447.025 4.07-.037 7.107.058.9-.022 4.552.925 4.507 6.2-.045 5.275-3.246 5.23-3.562 5.726 0 .045 4.058 6.988 4.058 6.988h-2.66l-4.148-7.033h-3.021v7.033h-2.525V5.196z" transform="translate(3 3)"/>
        <path fill="#FFE600" d="M35.602 7.868c1.02-.001 2.236.001 3.562.03 1.262.061 3.065.477 3.065 3.335 0 2.84-1.577 3.562-2.66 3.562h-3.967V7.868z" transform="translate(3 3)"/>
        <path fill="#000" fill-rule="nonzero" d="M61.604 24.11c0-3.68.46-9.347-4.063-14.33-1.955-2.153-5.67-3.297-9.67-3.903v18.295h2.519v-4.417l8.498-.002c.134 1.64.1 3.08.1 4.344l2.616.013z" transform="translate(3 3)"/>
        <path fill="#FFE600" d="M50.388 9.076c2.368.577 4.368 1.429 5.508 2.683 1.496 1.647 2.273 3.647 2.673 5.656h-8.18v-8.34z" transform="translate(3 3)"/>
        <path fill="#000" fill-rule="nonzero" d="M8.124 24.196c0-1.23-.049-2.776.092-4.443h8.81v4.42h2.52V6.016c-4.48.687-8.683 1.923-10.474 4.125-3.86 4.743-3.702 10.38-3.702 14.057l2.754-.003z" transform="translate(3 3)"/>
        <path fill="#FFE600" d="M17.017 9.124c-2.697.35-4.886 1.48-5.927 2.761-1.4 1.719-2.145 3.642-2.54 5.525h8.475l-.008-8.286z" transform="translate(3 3)"/>
        <path fill="#000" fill-rule="nonzero" d="M33.473 42.965c4.369-.076 19.323.646 24.068-4.581 3.451-3.802 4-8.004 4.067-11.416H5.386c.099 3.485.678 7.823 3.866 11.416 4.686 5.28 19.698 4.505 24.068 4.581h.153z" transform="translate(3 3)"/>
        <path fill="#FFF" d="M7.815 31.176v-.749h.57l.083-.954.82-.065v1.02h.697v.748h-.698v1.293c0 .378 0 .532.454.512l.295-.012v.711l-.064.012c-.18.026-.352.058-.525.058-.269 0-.628-.038-.839-.211-.262-.218-.262-.608-.262-.929v-1.434h-.531zM13.37 33.686h-.94v-1.754c0-.282.032-.813-.378-.813-.173 0-.372.083-.448.243-.083.173-.083.378-.083.57v1.754h-.941v-4.392h.94v1.588h.013c.122-.327.493-.512.845-.512.301 0 .622.102.814.352.198.255.179.582.179.896v2.068zM14.912 32.22l-.006.16c0 .384.217.697.627.697.288 0 .576-.21.576-.51l.87.062c0 .16-.376 1.12-1.478 1.12-.973 0-1.607-.677-1.607-1.644 0-.96.57-1.735 1.582-1.735.454 0 .922.205 1.19.576.27.372.34.832.334 1.274h-2.088zM21.338 31.407c-.083-.308-.327-.435-.634-.435-.192 0-.487.051-.487.288 0 .608 1.953-.083 1.953 1.383 0 .339-.16.64-.435.838-.295.206-.653.27-1.012.27-.679 0-1.311-.232-1.484-.96l.812-.116c.065.333.417.436.718.436.179 0 .57-.065.57-.309 0-.217-.193-.255-.366-.274-.224-.026-.761-.122-.966-.193-.385-.134-.64-.467-.64-.877 0-.8.697-1.088 1.389-1.088.64 0 1.056.243 1.28.851l-.698.186zM23.7 33.686L22.759 33.686 22.759 30.434 23.7 30.434zM23.7 30.139L22.759 30.139 22.759 29.23 23.7 29.23zM25.35 32.341c-.089.051-.16.128-.16.237 0 .134.065.211.186.25.166.045.512.057.698.065l.41.018c.569.032 1.21.154 1.21.865 0 .435-.314.73-.685.884-.353.147-.814.172-1.198.172-.518 0-1.677-.019-1.677-.756 0-.333.268-.525.563-.589-.25-.121-.416-.295-.416-.582 0-.404.327-.59.653-.723-.352-.135-.576-.404-.576-.795 0-.788.857-1.018 1.491-1.018.295 0 .583.045.865.14.064-.492.25-.633.736-.633l.263.026v.608c-.083-.013-.167-.032-.25-.032-.179 0-.352.083-.377.282.179.197.256.358.256.633 0 .769-.826.993-1.447.993l-.544-.045zM28.928 30.434v.55h.013c.192-.416.46-.614.935-.614.307 0 .608.096.8.358.18.244.18.653.18.948v2.01h-.941v-1.748c0-.332.044-.819-.43-.819-.166 0-.32.096-.396.243-.097.186-.11.372-.11.576v1.749h-.94v-3.253h.89zM36.442 32.085c0 .93-.608 1.665-1.57 1.665-.998 0-1.542-.756-1.542-1.697 0-.948.551-1.683 1.543-1.683 1.018 0 1.569.755 1.569 1.715zM38.029 33.686h-.941v-2.44h-.378v-.73h.378c0-.281-.013-.62.147-.864.217-.326.646-.454 1.018-.422l.435.038v.723l-.32-.02c-.34-.018-.34.2-.34.474v.071h.577v.73h-.576v2.44zM43.698 30.965v3.816h-.94v-1.434c-.186.269-.39.403-.743.403-.98 0-1.28-.857-1.28-1.697 0-.839.358-1.683 1.318-1.683.442 0 .704.127.934.518.103-.142.187-.289.244-.454h.512l-.045.531zM46.277 33.686v-.558h-.012c-.154.41-.487.622-.93.622-.326 0-.607-.07-.793-.365-.18-.282-.16-.589-.16-.902v-2.05h.941v2.05c0 .261.026.512.359.512.21 0 .39-.121.473-.314.064-.148.052-.333.052-.499v-1.748h.94v3.253h-.87v-.001zM49.823 33.686c-.039-.167-.052-.34-.045-.506-.269.385-.55.57-1.037.57-.577 0-1.024-.307-1.024-.922 0-.48.3-.807.73-.967.371-.14.89-.166 1.286-.205v-.076c0-.142.012-.308-.083-.43-.083-.109-.244-.153-.384-.153-.301 0-.564.153-.564.474l-.89-.084c.096-.788.865-1.018 1.55-1.018.333 0 .768.077 1.03.295.334.27.301.627.301 1.018V33.2c0 .165.013.326.065.486h-.935zM51.365 29.294L52.305 29.294 52.305 33.686 51.365 33.686zM54.001 33.686L53.06 33.686 53.06 30.434 54.001 30.434zM54.001 30.139L53.06 30.139 53.06 29.23 54.001 29.23zM54.434 31.176v-.749h.57l.083-.954.82-.065v1.02h.698v.748h-.698v1.293c0 .378 0 .532.454.512l.295-.012v.711l-.064.012c-.18.026-.352.058-.525.058-.27 0-.628-.038-.839-.211-.262-.218-.262-.608-.262-.929v-1.434h-.532zM58.89 33.481c-.243.737-.372 1.339-1.293 1.339l-.461-.038v-.737l.473.044c.314 0 .436-.094.518-.402l-1.184-3.253h1.019l.62 1.934.596-1.934h.705l-.993 3.047zM26.72 38.44c-.084-.306-.327-.434-.635-.434-.192 0-.486.05-.486.287 0 .61 1.953-.083 1.953 1.383 0 .34-.16.64-.436.839-.295.205-.653.269-1.011.269-.68 0-1.313-.23-1.486-.96l.814-.115c.064.333.416.435.716.435.18 0 .57-.064.57-.307 0-.219-.192-.257-.364-.275-.225-.026-.763-.122-.967-.193-.384-.133-.64-.466-.64-.876 0-.8.698-1.089 1.389-1.089.64 0 1.057.244 1.281.852l-.699.185zM28.966 39.253l-.006.161c0 .384.218.698.628.698.287 0 .575-.211.575-.514l.87.065c0 .16-.377 1.12-1.478 1.12-.973 0-1.607-.678-1.607-1.645 0-.96.57-1.735 1.581-1.735.455 0 .923.205 1.192.577.268.37.339.832.332 1.273h-2.087z" transform="translate(3 3)"/>
        <path fill="#000" fill-rule="nonzero" d="M30.112 38.696c-.02-.351-.134-.678-.544-.678-.416 0-.577.307-.608.678h1.152z" transform="translate(3 3)"/>
        <path fill="#FFF" d="M32.53 37.467v.609h.013c.097-.346.289-.705.698-.673l.16.013v.94c-.717-.037-.806.546-.806 1.122v1.241h-.941v-3.252h.877zM35.398 40.719L34.649 40.719 33.535 37.467 34.534 37.467 35.161 39.528 35.795 37.467 36.506 37.467zM37.882 40.719L36.941 40.719 36.941 37.467 37.882 37.467zM37.882 37.173L36.941 37.173 36.941 36.264 37.882 36.264zM40.614 38.703c0-.295-.153-.583-.493-.583-.518 0-.582.513-.582.929 0 .396.006.96.544.96.332 0 .5-.262.531-.564l.897.053c-.078.807-.686 1.286-1.48 1.286-.985 0-1.569-.697-1.569-1.658 0-1 .603-1.722 1.627-1.722.755 0 1.357.487 1.421 1.248l-.896.051zM42.95 39.253l-.006.161c0 .384.217.698.627.698.288 0 .576-.211.576-.514l.87.065c0 .16-.378 1.12-1.478 1.12-.974 0-1.608-.678-1.608-1.645 0-.96.57-1.735 1.582-1.735.454 0 .922.205 1.19.577.27.37.34.832.334 1.273H42.95z" transform="translate(3 3)"/>
        <path fill="#000" fill-rule="nonzero" d="M44.096 38.696c-.019-.351-.134-.678-.544-.678-.416 0-.576.307-.608.678h1.152zM16.058 31.663c-.019-.353-.134-.68-.543-.68-.417 0-.576.308-.609.68h1.152zM25.318 31.374c0 .32.205.494.52.494.307 0 .563-.167.563-.5 0-.326-.27-.48-.564-.48-.301 0-.519.18-.519.486zM25.683 33.686l-.506-.02c-.115.046-.204.135-.204.263 0 .154.102.225.236.263.205.057.5.064.704.064.231 0 .884.018.884-.315 0-.172-.212-.21-.346-.223l-.768-.032zM34.342 31.957c0 .372-.007 1.166.53 1.166.532 0 .558-.64.558-1.032 0-.255-.012-.563-.102-.806-.077-.21-.231-.294-.448-.294-.506 0-.538.595-.538.966zM42.776 31.778c0-.34-.089-.762-.512-.762-.525 0-.531.672-.531 1.037 0 .225 0 .538.09.737.07.165.236.295.422.295.16 0 .314-.116.397-.25.115-.173.134-.372.134-.57v-.487zM49.733 32.13c-.358.038-1.018.122-1.018.596 0 .255.154.429.416.429.192 0 .365-.102.474-.27.134-.204.128-.396.128-.626v-.129z" transform="translate(3 3)"/>
    </g>
</svg>
