<svg xmlns="http://www.w3.org/2000/svg" width="30" height="48" viewBox="0 0 30 48">
    <g fill="#368DBE">
        <g>
            <path d="M7.061.103c-2.031 4.22-9.267 8.315-.344 14.82 2.46 1.825 6.585 2.936 4.48 7.238-.187.328.14.419.432.173 3.015-3.491 7.918-9.013 3.79-13.51-2.349-2.539-7.157-4.205-8.115-6.617-.186-.466.019-1.14.276-1.674.206-.495-.408-.625-.517-.431L7.06.103z" transform="translate(7.49)"/>
            <path d="M7.17.103c-2.03 4.22-9.266 8.315-.344 14.82 2.46 1.825 6.585 2.936 4.481 7.238-.187.328.14.419.432.173 3.015-3.491 7.918-9.013 3.789-13.51-2.348-2.539-7.156-4.205-8.115-6.617-.185-.466.02-1.14.276-1.674.207-.495-.407-.625-.517-.431l-.001.001z" transform="translate(7.49)"/>
            <path d="M2.891 14.712c-1.042 2.84-6.315 6.11.724 9.88 1.634.972 3.729 2.19 3.503 3.97-.087.226.118.258.273.074 2.317-2.666 4.062-6.458 1.22-9.013-1.483-1.437-4.998-2.221-5.376-4.676.086-.336-.295-.368-.346-.233l.002-.002z" transform="translate(7.49)"/>
        </g>
        <g>
            <path d="M5.606 0.06L23.398 0.06 23.398 2.245 5.606 2.245z" transform="translate(0 29.612)"/>
            <path d="M5.627 0L4.84 2.207l1.347.02L5.627 0zm17.755 0l.786 2.207-1.347.02L23.382 0zM9.357 1.658l1.312 3.569 7.714-.027 1.207-3.542H9.357zM0 7.11L2.348 7.11 2.348 17.665 0 17.665z" transform="translate(0 29.612)"/>
            <path d="M2.315 7.109l3.804.033c1.888-.05 3.332 3.316.893 5.125 3.253.91 2.079 5.316-.529 5.324l-4.2.066-.595-1.918 4.002.033c1.268.037 1.349-2.523.033-2.546l-3.67.066-.1-1.983h3.274c1.491.062 1.028-2.317.033-2.315l-3.273-.067-.33-1.488.661-.33h-.003zM10.141 7.11L12.489 7.11 12.489 17.665 10.141 17.665z" transform="translate(0 29.612)"/>
            <path d="M12.456 7.109l3.803.033c1.889-.05 3.333 3.316.894 5.125 3.253.91 2.078 5.316-.529 5.324l-4.2.066-.595-1.918 4.002.033c1.268.037 1.349-2.523.033-2.546l-3.67.066-.1-1.983h3.274c1.491.062 1.028-2.317.033-2.315l-3.273-.067-.33-1.488.661-.33h-.003zM20.172 7.11L22.521 7.11 22.521 17.665 20.172 17.665z" transform="translate(0 29.612)"/>
            <path d="M22.487 7.109l3.804.033c1.888-.05 3.332 3.316.893 5.125 3.253.91 2.079 5.316-.528 5.324l-4.2.066-.595-1.918 4.002.033c1.267.037 1.348-2.523.033-2.546l-3.67.066-.1-1.983h3.273c1.492.062 1.028-2.317.034-2.315l-3.274-.067-.33-1.488.662-.33h-.004z" transform="translate(0 29.612)"/>
        </g>
    </g>
</svg>
