<svg xmlns="http://www.w3.org/2000/svg" width="260" height="134" viewBox="0 0 260 134">
    <g fill="none">
        <rect width="260" height="133.333" fill="#F7BA31" rx="26.53"/>
        <path fill="#F7BA31" d="M22.193 110.793v22.414h-4.486c-4.695.005-9.198-1.856-12.52-5.174C1.867 124.716 0 120.214 0 115.52v-4.727h22.193z"/>
        <path fill="#000" d="M0 22.16v-4.4C0 7.992 7.919.073 17.687.073h4.486V22.16H0zM0 44.407H22.187V66.594H0zM0 88.78H22.187V110.967H0zM22.187 22.22H44.374V44.407H22.187zM22.187 66.593H44.374V88.78H22.187zM22.187 110.973H44.374V133.16H22.187z"/>
        <path fill="#F7BA31" d="M22.187 44.407V22.22H0v22.187h22.187zM0 88.78h22.187V66.593H0V88.78zM44.38 0H22.187v22.22H44.38V0zM22.187 44.407v22.186H44.38V44.407H22.187zm0 66.566H44.38V88.78H22.187v22.193z"/>
        <g fill="#000">
            <path d="M10.16 36.1c-.2-.185-.309-.448-.3-.72v-2.8c-1.78-.174-3.51-.683-5.1-1.5-1.28-.651-2.368-1.623-3.16-2.82C.91 27.195.517 25.967.46 24.7c-.005-.228.09-.448.26-.6.167-.158.39-.244.62-.24h5.333c.276-.015.551.04.8.16.25.15.475.34.667.56.827 1.467 2.347 2.2 4.56 2.2 1.15.058 2.295-.171 3.333-.667.717-.322 1.179-1.034 1.18-1.82.014-.53-.214-1.038-.62-1.38-.574-.44-1.228-.764-1.926-.953-1.257-.378-2.532-.691-3.82-.94-3.227-.64-5.64-1.613-7.24-2.92-1.6-1.307-2.4-3.173-2.4-5.6-.035-2.078.807-4.075 2.32-5.5 1.758-1.604 3.99-2.593 6.36-2.82v-2.8c-.01-.272.1-.535.3-.72.187-.182.439-.282.7-.28h3.48c.268-.011.53.09.72.28.19.19.291.451.28.72v2.88c1.616.266 3.164.843 4.56 1.7 1.171.71 2.174 1.664 2.94 2.8.628.906 1.007 1.961 1.1 3.06.004.23-.082.453-.24.62-.153.17-.372.265-.6.26h-5.6c-.543.023-1.055-.253-1.334-.72-.213-.623-.667-1.134-1.26-1.42-.755-.405-1.603-.605-2.46-.58-.906-.053-1.808.156-2.6.6-.597.382-.947 1.052-.92 1.76.005.79.476 1.504 1.2 1.82 1.417.633 2.91 1.081 4.44 1.333 2.061.324 4.076.895 6 1.7 2.302 1.097 3.898 3.277 4.248 5.802.35 2.525-.592 5.057-2.508 6.738-1.989 1.64-4.431 2.632-7 2.847v2.8c.012.269-.09.53-.28.72-.19.19-.451.291-.72.28h-3.48c-.258 0-.507-.1-.693-.28zM28.08 32.08c-.192-.182-.3-.435-.3-.7v-3c-.006-.788.365-1.532 1-2l3.72-3.64c2.533-1.92 4.447-3.413 5.74-4.48 1.087-.869 2.079-1.85 2.96-2.927.606-.682.966-1.548 1.02-2.46 0-1.973-.987-2.96-2.96-2.96-.9-.056-1.778.288-2.4.94-.578.665-.965 1.473-1.12 2.34-.15.599-.72.992-1.333.92h-5.28c-.234.003-.458-.091-.62-.26-.163-.149-.257-.359-.26-.58.034-1.698.54-3.352 1.46-4.78.957-1.46 2.29-2.634 3.86-3.4 1.78-.868 3.74-1.3 5.72-1.26 1.987-.048 3.963.32 5.8 1.08 3.083 1.25 5.05 4.302 4.913 7.627.012 1.885-.615 3.718-1.78 5.2-1.575 1.913-3.398 3.608-5.42 5.04l-3.333 3.333h10.12c.268-.011.53.09.72.28.19.19.291.452.28.72v4.28c.002.261-.099.513-.28.7-.186.2-.448.31-.72.3H28.78c-.267-.002-.52-.116-.7-.313zM59.04 31.66c-1.58-.641-2.95-1.707-3.96-3.08-.876-1.23-1.37-2.69-1.42-4.2-.006-.224.081-.441.24-.6.159-.159.376-.246.6-.24h5.64c.56-.053 1.094.25 1.333.76.293.778.816 1.448 1.5 1.92.706.421 1.519.63 2.34.6 1.052.035 2.077-.337 2.86-1.04.795-.757 1.22-1.824 1.16-2.92.029-1.024-.378-2.013-1.12-2.72-.777-.73-1.814-1.118-2.88-1.08-.545-.021-1.089.067-1.6.26-.413.172-.803.396-1.16.667-.284.27-.65.438-1.04.48h-5.56c-.484-.004-.876-.396-.88-.88l1.48-14.04c.01-.34.163-.66.42-.88.25-.214.571-.328.9-.32h16.28c.269-.012.53.09.72.28.19.19.292.451.28.72v4c.003.26-.098.512-.28.7-.185.2-.448.309-.72.3H62.5l-.5 4.986c.656-.46 1.387-.806 2.16-1.02 1.02-.252 2.07-.366 3.12-.34 1.668-.009 3.314.382 4.8 1.14 1.462.732 2.698 1.844 3.58 3.22.901 1.422 1.365 3.077 1.333 4.76.027 1.774-.46 3.517-1.4 5.02-.988 1.528-2.398 2.737-4.06 3.48-1.967.88-4.105 1.311-6.26 1.26-2.138.04-4.26-.366-6.233-1.193zM92.18 30c-2.187-1.84-3.347-4.547-3.48-8.12-.027-.747-.04-1.893-.04-3.44s.013-2.707.04-3.48c.107-3.52 1.273-6.233 3.5-8.14 2.227-1.907 5.207-2.847 8.94-2.82 3.698 0 6.664.953 8.9 2.86 2.22 1.907 3.393 4.62 3.5 8.14.053 1.547.08 2.707.08 3.48 0 .773-.027 1.92-.08 3.44-.14 3.573-1.287 6.28-3.46 8.12-2.173 1.84-5.16 2.76-8.94 2.76-3.78 0-6.773-.94-8.96-2.8zm12.28-4.5c.82-.84 1.267-2.127 1.333-3.86.054-1.547.08-2.658.08-3.333 0-.676-.026-1.756-.08-3.24-.053-1.734-.5-3.02-1.333-3.86-.887-.867-2.095-1.323-3.333-1.26-1.237-.057-2.443.399-3.334 1.26-.833.84-1.266 2.126-1.333 3.86-.027.746-.04 1.826-.04 3.24 0 1.413.013 2.524.04 3.333.053 1.733.487 3.02 1.333 3.86.89.86 2.097 1.317 3.334 1.26 1.235.068 2.443-.381 3.333-1.24v-.02zM118.44 32.08c-.192-.182-.3-.435-.3-.7V5.42c-.01-.274.09-.541.28-.74.184-.202.447-.312.72-.3h18.6c.276-.008.542.101.733.3.2.194.31.462.307.74v4.24c.006.273-.105.535-.307.72-.197.188-.46.289-.733.28H125.5v5.56h11.44c.275-.005.54.103.733.3.2.193.31.462.3.74v4.24c.012.273-.098.536-.3.72-.198.186-.461.286-.733.28H125.5v8.88c-.001.26-.101.51-.28.7-.186.198-.448.307-.72.3h-5.333c-.275.01-.54-.1-.727-.3zM143.273 32.08c-.192-.182-.3-.435-.3-.7V5.42c-.007-.274.094-.54.28-.74.186-.2.448-.309.72-.3h18.6c.277-.004.544.105.74.3.196.196.304.463.3.74v4.24c.01.272-.1.535-.3.72-.2.187-.466.287-.74.28h-12.24v5.56h11.44c.277-.004.544.105.74.3.196.196.304.463.3.74v4.24c.01.272-.1.535-.3.72-.2.187-.466.287-.74.28h-11.44v8.88c.003.261-.098.513-.28.7-.185.2-.448.309-.72.3H144c-.274.008-.538-.1-.727-.3zM167.713 32.08c-.192-.182-.3-.435-.3-.7v-5.16c-.006-.277.103-.545.3-.74.182-.192.436-.3.7-.3h5.16c.265 0 .518.108.7.3.198.195.307.463.3.74v5.16c.003.261-.098.513-.28.7-.185.2-.448.309-.72.3h-5.16c-.264 0-.518-.108-.7-.3zm.12-9.04c-.197-.195-.306-.463-.3-.74V5.38c-.009-.272.1-.535.3-.72.2-.187.467-.287.74-.28h4.84c.274-.007.54.093.74.28.2.185.31.448.3.72V22.3c.002.276-.107.54-.303.735-.195.194-.46.302-.737.298h-4.84c-.276.008-.544-.098-.74-.293z" transform="translate(64 38.667)"/>
        </g>
        <g fill="#000">
            <path d="M2.313 11.02L.427.767V.64C.427.452.579.3.767.3h1.44c.105-.008.21.017.3.073.072.064.12.151.133.247l1.333 7.2 1.42-4.667c.069-.237.287-.4.534-.4h.88c.122-.004.242.039.333.12.084.074.145.172.173.28l1.44 4.667 1.334-7.2c.033-.213.18-.32.446-.32h1.44c.087 0 .169.036.227.1.066.062.1.15.093.24.008.042.008.085 0 .127L10.407 11.02c-.015.137-.082.264-.187.353-.111.09-.251.134-.393.127h-1.16c-.133.005-.263-.037-.367-.12-.09-.073-.157-.17-.193-.28L6.313 5.767 4.527 11.1c-.065.252-.301.421-.56.4H2.873c-.282.009-.525-.2-.56-.48zM14.22 11.393c-.075-.07-.116-.17-.113-.273V.7c-.004-.105.032-.207.1-.287.073-.075.175-.116.28-.113h7.06c.107-.004.21.037.287.113.075.076.116.18.113.287v1.073c.005.106-.037.208-.114.28-.077.073-.18.112-.286.107H16.3v2.8h4.893c.108-.005.212.036.287.113.076.076.117.18.113.287v1.007c.005.105-.036.207-.113.28-.079.07-.181.108-.287.106H16.3v2.894h5.373c.107-.007.21.032.287.106.077.073.118.175.113.28v1.087c.003.105-.038.206-.113.28-.08.07-.182.105-.287.1h-7.186c-.1.003-.197-.036-.267-.107zM28.667 10.527c-.866-.836-1.348-1.991-1.334-3.194V5.847 4.353c-.017-1.178.468-2.307 1.334-3.106.955-.798 2.177-1.203 3.42-1.134.873-.02 1.74.154 2.54.507.63.276 1.182.705 1.606 1.247.332.421.531.932.574 1.466.004.09-.03.177-.094.24-.071.064-.164.097-.26.094H34.78c-.086.006-.173-.015-.247-.06-.063-.06-.11-.132-.14-.214-.16-.403-.434-.753-.786-1.006-.45-.297-.983-.442-1.52-.414-.639-.038-1.267.178-1.747.6-.465.504-.706 1.176-.667 1.86v2.82c-.038.701.202 1.388.667 1.914.483.428 1.115.649 1.76.613.66.03 1.31-.186 1.82-.607.48-.48.724-1.149.667-1.826v-.494h-1.92c-.214 0-.387-.173-.387-.386v-.854c0-.102.04-.2.113-.273.073-.071.172-.11.274-.107h3.84c.104-.005.206.032.281.104.076.072.119.172.119.276v1.72c.018.81-.188 1.607-.594 2.307-.39.648-.963 1.168-1.646 1.493-.798.368-1.669.548-2.547.527-1.255.084-2.493-.322-3.453-1.133zM39.047 11.393c-.073-.072-.114-.17-.114-.273V.667c-.005-.106.037-.208.114-.28.074-.07.172-.107.273-.107h1.533c.104-.004.206.034.28.107.075.073.114.175.107.28V11.12c.002.102-.036.2-.107.273-.073.075-.175.114-.28.107h-1.52c-.106.007-.21-.032-.286-.107zM46.373 11.053L42.953.78c-.009-.046-.009-.094 0-.14 0-.188.153-.34.34-.34h1.374c.123-.004.244.036.34.113.077.064.137.147.173.24l2.667 8.194L50.513.653c.026-.095.082-.18.16-.24.096-.077.217-.117.34-.113h1.44c.086.002.168.038.227.1.071.059.11.148.107.24v.14L49.4 11.053c-.078.278-.339.464-.627.447H47c-.29.022-.553-.166-.627-.447zM54.667 11.393c-.073-.072-.114-.17-.114-.273V.7c-.001-.106.037-.208.107-.287.072-.077.175-.118.28-.113H62c.109-.002.214.038.293.113.073.078.112.181.107.287v1.073c.007.105-.032.207-.107.28-.08.073-.185.112-.293.107h-5.247v2.8h4.9c.108-.005.212.036.287.113.05.077.071.17.06.26V6.34c.005.105-.036.208-.113.28-.08.07-.181.108-.287.107h-4.9V9.62h5.38c.106-.005.21.034.287.107.077.072.118.174.113.28v1.086c.003.105-.038.207-.113.28-.08.068-.182.104-.287.1h-7.16c-.091.006-.182-.023-.253-.08zM69.053 10.533c-.842-.85-1.306-2.003-1.286-3.2V5.927v-1.44c-.019-1.197.45-2.35 1.3-3.194.943-.81 2.165-1.221 3.406-1.146.853-.018 1.7.15 2.48.493.658.287 1.225.748 1.64 1.333.387.562.6 1.225.614 1.907 0 .084-.036.165-.1.22-.065.056-.148.087-.234.087h-1.54c-.103.009-.206-.022-.286-.087-.08-.088-.136-.196-.16-.313-.096-.554-.392-1.053-.834-1.4-.468-.293-1.015-.434-1.566-.407-1.53 0-2.325.853-2.387 2.56v2.667c.067 1.706.862 2.56 2.387 2.56.549.025 1.093-.117 1.56-.407.445-.345.745-.845.84-1.4.022-.118.077-.227.16-.313.08-.065.183-.096.286-.087h1.554c.09 0 .179.033.246.093.067.061.1.15.087.24-.014.682-.227 1.345-.613 1.907-.418.583-.984 1.044-1.64 1.333-.782.341-1.628.507-2.48.487-1.242.095-2.473-.294-3.434-1.087zM78.06 11.407c-.065-.063-.101-.15-.1-.24l.033-.147L81.833.7c.08-.246.315-.41.574-.4h1.76c.261-.013.499.151.58.4l3.84 10.32v.147c0 .184-.15.333-.334.333h-1.426c-.203.013-.39-.11-.46-.3l-.74-1.94h-4.734l-.733 1.94c-.073.192-.262.313-.467.3h-1.426c-.079-.003-.153-.036-.207-.093zm3.42-4h3.613L83.287 2.48 81.48 7.407zM90.2 11.393c-.073-.072-.113-.17-.113-.273V.7c-.005-.106.034-.21.106-.287.073-.077.175-.118.28-.113h4.667c1.003-.074 1.998.22 2.8.827.63.572.969 1.397.927 2.246.012.504-.13 1-.407 1.42-.24.357-.569.647-.953.84.984.471 1.608 1.469 1.6 2.56.033.91-.335 1.787-1.007 2.4-.792.647-1.8.97-2.82.907H90.5c-.11.011-.22-.028-.3-.107zm4.62-6.5c.455.031.906-.112 1.26-.4.298-.275.459-.668.44-1.073.016-.394-.142-.774-.433-1.04-.366-.267-.815-.397-1.267-.367h-2.48v2.88h2.48zm.16 4.9c.478.03.947-.137 1.3-.46.627-.646.627-1.673 0-2.32-.355-.315-.82-.478-1.293-.453H92.32v3.233h2.66zM101.193 11.393c-.075-.07-.116-.17-.113-.273V.7c-.005-.106.034-.21.107-.287.072-.077.174-.118.28-.113h4.666c1.003-.074 1.999.22 2.8.827.627.574.967 1.397.927 2.246.025.947-.493 1.824-1.333 2.26.984.471 1.608 1.469 1.6 2.56.03.91-.34 1.788-1.014 2.4-.789.648-1.794.972-2.813.907h-4.833c-.102.003-.2-.035-.274-.107zm4.62-6.5c.456.031.906-.112 1.26-.4.298-.275.46-.668.44-1.073.017-.394-.142-.774-.433-1.04-.366-.266-.815-.396-1.267-.367h-2.48v2.88h2.48zm.16 4.9c.49.039.972-.128 1.334-.46.616-.65.616-1.67 0-2.32-.355-.315-.82-.478-1.294-.453h-2.666v3.233h2.626zM112.187 11.393c-.076-.07-.117-.17-.114-.273V.667c-.008-.106.034-.21.114-.28.072-.069.167-.107.266-.107H114c.104-.001.204.037.28.107.07.076.106.177.1.28V11.12c.002.1-.034.198-.1.273-.075.073-.176.111-.28.107h-1.54c-.102.005-.202-.034-.273-.107zM116.987 11.393c-.076-.07-.117-.17-.114-.273V.7c-.003-.105.032-.207.1-.287.074-.075.175-.116.28-.113h7.06c.108-.004.211.037.287.113.076.076.117.18.113.287v1.073c.005.106-.036.208-.113.28-.077.073-.18.112-.287.107h-5.246v2.8h4.893c.108-.007.213.034.287.113.076.076.117.18.113.287v1.007c.005.105-.036.207-.113.28-.078.071-.181.11-.287.106h-4.893v2.894h5.373c.106-.007.21.032.287.106.077.073.118.175.113.28v1.087c.003.105-.038.206-.113.28-.08.07-.182.105-.287.1h-7.187c-.1.003-.196-.036-.266-.107zM128.28 11.233c-.61-.236-1.145-.63-1.553-1.14-.343-.44-.539-.976-.56-1.533 0-.088.036-.172.1-.233.06-.07.148-.108.24-.107h1.453c.102-.005.202.023.287.08.082.063.152.14.206.227.126.383.386.708.734.913.473.27 1.015.398 1.56.367.586.037 1.17-.093 1.686-.374.36-.218.576-.612.567-1.033.008-.27-.096-.53-.287-.72-.253-.227-.55-.4-.873-.507-.387-.14-.967-.313-1.733-.52-1-.184-1.947-.587-2.774-1.18-.61-.537-.935-1.328-.88-2.14-.007-.593.173-1.174.514-1.66.374-.508.881-.903 1.466-1.14.7-.293 1.455-.436 2.214-.42.791-.017 1.577.143 2.3.467.579.256 1.084.655 1.466 1.16.315.398.503.88.54 1.387-.001.086-.037.167-.1.226-.058.072-.147.111-.24.107h-1.52c-.205.017-.398-.098-.48-.287-.07-.364-.297-.678-.62-.86-.853-.449-1.873-.449-2.726 0-.332.214-.525.587-.507.98-.007.263.083.52.253.72.227.224.5.395.8.5.52.194 1.049.356 1.587.487.78.158 1.539.4 2.267.72.498.217.928.568 1.24 1.013.283.465.423 1.003.4 1.547.013.647-.188 1.28-.574 1.8-.41.533-.965.936-1.6 1.16-.764.28-1.573.416-2.386.4-.841.029-1.68-.11-2.467-.407z" transform="translate(84 18.667)"/>
        </g>
        <path fill="#000" d="M64.28 84.96H238.62V85.96H64.28z"/>
        <g transform="translate(91.333 98)">
            <rect width="120.84" height="18.9" x=".16" y=".02" fill="#000" rx="9.19"/>
            <g fill="#FFF">
                <path d="M1.1 8C.537 7.404.224 6.614.227 5.793V4.727 3.66c-.037-.836.29-1.647.898-2.223C1.733.862 2.56.578 3.393.66c.583-.017 1.162.106 1.687.36.411.201.768.498 1.04.867.208.27.338.593.373.933.003.06-.024.118-.073.153-.044.04-.101.06-.16.06h-.667c-.053.006-.106-.011-.146-.046-.048-.046-.082-.104-.1-.167-.124-.36-.357-.673-.667-.893-.391-.267-.86-.396-1.333-.367-.55-.031-1.088.156-1.5.52-.397.441-.605 1.02-.58 1.613v2.014c-.026.595.182 1.176.58 1.62.41.369.95.559 1.5.526.561.025 1.111-.163 1.54-.526.41-.422.62-1 .573-1.587v-.487H3.727c-.071 0-.139-.028-.187-.08-.048-.05-.075-.117-.073-.186v-.32c-.001-.072.025-.14.073-.194.048-.051.116-.08.187-.08h2.54c.074-.007.148.02.2.074.05.054.077.126.073.2V5.74c.011.561-.12 1.116-.38 1.613-.25.465-.636.842-1.107 1.08-.529.265-1.115.395-1.706.38C2.519 8.854 1.71 8.561 1.1 8zM8.287 8.667c-.046-.052-.07-.119-.067-.187v-7.4c-.006-.073.018-.145.067-.2.045-.051.112-.078.18-.073h4.666c.074-.005.147.022.2.073.05.054.077.126.074.2v.407c0 .067-.026.132-.074.18-.056.046-.127.07-.2.066H9.267V4.26h3.613c.074-.004.146.023.2.073.051.054.078.126.073.2v.387c.004.07-.022.138-.073.187-.054.05-.126.077-.2.073H9.267V7.8h3.96c.072-.004.142.023.193.074.05.05.077.12.073.193v.413c0 .07-.028.138-.08.187-.05.047-.117.073-.186.073h-4.76c-.068.001-.133-.025-.18-.073zM16.88 8.667c-.047-.051-.073-.118-.073-.187V1.753H14.62c-.07 0-.136-.026-.187-.073-.048-.05-.075-.117-.073-.187v-.44c-.004-.074.023-.146.073-.2.05-.05.117-.076.187-.073h5.44c.072-.007.144.02.193.073.05.055.073.127.067.2v.44c.004.07-.023.138-.073.187-.05.05-.117.076-.187.073h-2.173v6.7c0 .071-.029.139-.08.187-.054.047-.122.073-.194.073h-.546c-.066.008-.132-.009-.187-.046zM24.193 8.667c-.047-.051-.073-.118-.073-.187v-7.4c-.006-.073.018-.145.067-.2.05-.052.12-.08.193-.073h.533c.12-.01.232.057.28.166l2.42 4.667L30.047.973c.05-.104.157-.17.273-.166h.533c.073-.006.144.02.194.073.045.056.069.127.066.2v7.4c.002.07-.025.137-.074.186-.049.05-.116.076-.186.074h-.52c-.07.002-.137-.024-.186-.073-.043-.053-.067-.119-.067-.187V2.847l-1.94 3.746c-.057.149-.201.245-.36.24h-.34c-.158.001-.3-.094-.36-.24l-1.927-3.746V8.48c.002.07-.025.137-.074.186-.049.05-.116.076-.186.074h-.513c-.07.002-.137-.025-.187-.073zM33.66 8.047c-.583-.636-.888-1.479-.847-2.34v-.96-.954c-.037-.865.28-1.708.88-2.333 1.312-1.057 3.182-1.057 4.494 0 .589.631.903 1.47.873 2.333v1.914c.038.86-.266 1.702-.847 2.34-1.34 1.04-3.213 1.04-4.553 0zm3.733-.714c.397-.468.606-1.066.587-1.68v-.906-.907c.02-.617-.19-1.22-.587-1.693-.828-.737-2.078-.737-2.906 0-.405.468-.615 1.074-.587 1.693V5.653c-.03.614.177 1.216.58 1.68.83.738 2.082.738 2.913 0zM40.827 8.667c-.048-.051-.074-.118-.074-.187v-7.4c-.003-.074.023-.146.074-.2.044-.053.111-.08.18-.073h2.766c.718-.04 1.426.176 2 .606.506.44.777 1.091.734 1.76.019.509-.134 1.01-.434 1.42-.304.381-.726.65-1.2.767l1.747 3.027c.008.041.008.085 0 .126 0 .126-.101.227-.227.227h-.5c-.095.005-.19-.023-.266-.08-.073-.063-.132-.14-.174-.227l-1.666-2.9h-2V8.48c0 .07-.029.138-.08.187-.053.048-.122.074-.194.073h-.54c-.056-.005-.108-.031-.146-.073zm2.9-4.067c1.14 0 1.713-.48 1.713-1.44s-.573-1.44-1.713-1.44H41.82V4.6h1.907zM48.233 8.667c-.042-.053-.066-.119-.066-.187v-7.4c-.003-.073.02-.144.066-.2.048-.052.117-.08.187-.073h4.667c.074-.007.148.02.2.073.05.054.077.126.073.2v.407c.001.067-.025.132-.073.18-.055.048-.127.073-.2.066h-3.86V4.26h3.613c.074-.006.147.02.2.073.053.053.08.126.073.2v.387c.002.07-.025.137-.073.187-.055.048-.126.074-.2.073h-3.613V7.8h3.953c.073-.006.145.02.197.071.053.051.08.123.076.196v.413c0 .07-.028.138-.08.187-.053.047-.122.073-.193.073h-4.747c-.074.006-.147-.02-.2-.073zM57.88 8.667c-.045-.052-.07-.119-.067-.187v-7.4c-.006-.073.018-.145.067-.2.045-.051.112-.078.18-.073h2.567c.892-.087 1.78.19 2.466.766.554.634.834 1.46.78 2.3v1.78c.011.602-.104 1.2-.34 1.754-.21.444-.572.798-1.02 1-.579.244-1.205.358-1.833.333h-2.62c-.068.001-.133-.025-.18-.073zm2.747-.867c.431.02.862-.058 1.26-.227.296-.133.533-.37.666-.666.16-.406.238-.838.234-1.274V4.78v-.84c.038-.602-.155-1.196-.54-1.66-.47-.397-1.081-.587-1.694-.527h-1.686V7.82l1.76-.02zM65.68 8.667c-.045-.052-.07-.119-.067-.187v-7.4c-.006-.073.018-.145.067-.2.045-.051.112-.078.18-.073h4.667c.072-.006.143.02.193.073.053.052.08.126.073.2v.407c.005.068-.022.134-.073.18-.053.047-.122.071-.193.066h-3.86V4.26h3.613c.074-.004.146.023.2.073.049.055.075.127.073.2v.387c.002.07-.025.137-.073.187-.054.05-.126.077-.2.073h-3.613V7.8h3.953c.074-.007.148.02.2.073.05.052.076.122.073.194v.413c0 .07-.028.138-.08.187-.052.048-.122.074-.193.073h-4.747c-.072.005-.142-.022-.193-.073zM74.273 8.667c-.047-.051-.073-.118-.073-.187V1.753H72c-.07.002-.137-.025-.186-.074-.05-.049-.076-.116-.074-.186v-.44c-.004-.074.023-.146.073-.2.049-.05.117-.077.187-.073h5.44c.072-.007.144.02.193.073.05.055.073.127.067.2v.44c.004.07-.023.138-.073.187-.05.048-.117.075-.187.073h-2.173v6.7c0 .071-.029.139-.08.187-.054.047-.122.073-.194.073h-.546c-.062.005-.123-.012-.174-.046zM77.467 8.667c-.044-.042-.068-.1-.067-.16V8.38l2.813-7.333c.047-.157.197-.26.36-.247h.76c.164-.013.314.09.36.247l2.814 7.333v.127c.001.061-.026.12-.074.16-.043.04-.1.064-.16.066h-.533c-.125-.004-.236-.08-.287-.193l-.633-1.633h-3.753l-.62 1.633c-.047.117-.16.194-.287.193h-.54c-.058-.002-.112-.026-.153-.066zm1.933-2.7h3.107L80.953 1.9 79.4 5.967zM85.807 8.667c-.046-.052-.07-.119-.067-.187V1.04c-.003-.069.02-.136.067-.187.045-.05.112-.078.18-.073h.566c.072-.009.143.016.194.067.05.05.075.122.066.193v7.413c.003.07-.023.138-.073.187-.05.05-.117.076-.187.073H86c-.068.013-.138-.004-.193-.046zM88.88 8.667c-.047-.051-.073-.118-.073-.187V1.04c-.002-.07.025-.137.073-.187.045-.052.112-.079.18-.073h.567c.068-.005.134.022.18.073.046.051.07.118.066.187v6.72h3.787c.074-.003.146.023.2.073.048.05.075.117.073.187v.433c0 .071-.028.139-.08.187-.053.047-.122.073-.193.073h-4.6c-.064.01-.13-.007-.18-.046zM96.08 8.533c-.41-.162-.77-.431-1.04-.78-.231-.296-.364-.657-.38-1.033 0-.06.023-.118.067-.16.043-.045.104-.07.166-.067h.56c.135 0 .252.095.28.227.086.337.295.63.587.82.411.253.89.374 1.373.347.504.036 1.006-.082 1.44-.34.312-.21.493-.565.48-.94.015-.245-.069-.485-.233-.667-.19-.189-.417-.336-.667-.433-.306-.125-.766-.278-1.38-.46-.48-.13-.944-.308-1.386-.534-.31-.154-.575-.383-.774-.666-.184-.32-.274-.685-.26-1.054-.006-.39.108-.771.327-1.093.24-.338.57-.602.953-.76.468-.191.969-.284 1.474-.273.522-.016 1.04.091 1.513.313.38.173.709.441.953.78.208.274.33.603.354.947.002.062-.022.123-.067.166-.046.046-.109.07-.173.067h-.567c-.06.002-.119-.017-.167-.053-.057-.042-.098-.104-.113-.174-.053-.335-.254-.628-.547-.8-.354-.224-.768-.335-1.186-.32-.43-.02-.856.083-1.227.3-.3.196-.472.537-.453.894-.014.24.062.478.213.666.184.197.413.348.667.44.415.172.84.319 1.273.44.52.138 1.026.32 1.513.547.327.147.61.377.82.667.193.309.288.669.274 1.033.027.655-.28 1.28-.814 1.66-.647.432-1.416.642-2.193.6-.569.013-1.134-.091-1.66-.307z" transform="translate(10 4.667)"/>
            </g>
        </g>
        <path fill="#000" d="M44 0H45.333V133.333H44z"/>
    </g>
</svg>
