<svg xmlns="http://www.w3.org/2000/svg" width="90" height="59" viewBox="0 0 90 59">
    <g fill="none">
        <path fill="#4D4D4D" d="M6.306 0H0v57.52h76.837c9.788 0 12.613-2.828 12.613-6.315V0H6.306z" transform="translate(.55 .791)"/>
        <path fill="#FFF" d="M37.517 18.587c1.014 0 1.864.205 2.898.7v2.611c-.98-.902-1.83-1.28-2.954-1.28-2.209 0-3.946 1.724-3.946 3.909 0 2.305 1.684 3.926 4.056 3.926 1.068 0 1.902-.358 2.844-1.246v2.613c-1.071.475-1.94.663-2.954.663-3.586 0-6.374-2.594-6.374-5.94 0-3.31 2.862-5.956 6.43-5.956zm-11.136.072c1.324 0 2.535.427 3.548 1.262l-1.232 1.521c-.614-.648-1.194-.921-1.9-.921-1.015 0-1.755.544-1.755 1.261 0 .615.415.94 1.829 1.433 2.68.924 3.473 1.743 3.473 3.55 0 2.204-1.717 3.738-4.165 3.738-1.792 0-3.095-.665-4.18-2.166l1.521-1.382c.542.989 1.447 1.518 2.571 1.518 1.05 0 1.829-.683 1.829-1.605 0-.478-.236-.888-.706-1.178-.237-.137-.707-.342-1.629-.648-2.212-.75-2.971-1.553-2.971-3.121 0-1.863 1.63-3.262 3.767-3.262zm26.917.198h2.573l3.221 7.646 3.262-7.646h2.554L59.69 30.532h-1.268l-5.125-11.675zm-45.567.018h3.458c3.82 0 6.483 2.34 6.483 5.7 0 1.674-.815 3.294-2.193 4.369-1.159.907-2.48 1.314-4.309 1.314H7.731V18.875zm11.025 0h2.355v11.383h-2.355V18.875zm47.217 0h6.68v1.929h-4.326v2.526h4.167v1.928h-4.167v3.072h4.326v1.928h-6.68V18.875zm8.24 0h3.493c2.717 0 4.273 1.23 4.273 3.36 0 1.743-.976 2.887-2.75 3.227l3.801 4.796h-2.897l-3.26-4.573h-.307v4.573h-2.353V18.875zm2.353 1.793v3.447h.688c1.505 0 2.302-.616 2.302-1.76 0-1.108-.798-1.687-2.264-1.687h-.726zm-66.481.136v7.526h.632c1.522 0 2.483-.274 3.224-.904.814-.684 1.304-1.776 1.304-2.868 0-1.09-.49-2.15-1.304-2.834-.779-.663-1.702-.92-3.224-.92h-.632z" transform="translate(.55 .791)"/>
        <path fill="#F47216" d="M47.607 18.509c3.548 0 6.424 2.707 6.424 6.052v.003c0 3.345-2.876 6.056-6.424 6.056-3.548 0-6.425-2.711-6.425-6.056v-.003c0-3.345 2.877-6.052 6.425-6.052zm41.84 14.598C86.46 35.21 64.096 50.253 25.37 57.518h64.078V0v33.107z" transform="translate(.55 .791)"/>
    </g>
</svg>
