<svg xmlns="http://www.w3.org/2000/svg" width="390" height="200" viewBox="0 0 390 200">
    <g fill="none">
        <path fill="#7A7A7A" d="M329.68 0h-21c-1.38 0-2.5 1.12-2.5 2.5s1.12 2.5 2.5 2.5h21c1.38 0 2.5-1.12 2.5-2.5s-1.12-2.5-2.5-2.5zM295.68 0h-21c-1.38 0-2.5 1.12-2.5 2.5s1.12 2.5 2.5 2.5h21c1.38 0 2.5-1.12 2.5-2.5s-1.12-2.5-2.5-2.5zM261.68 0h-21c-1.38 0-2.5 1.12-2.5 2.5s1.12 2.5 2.5 2.5h21c1.38 0 2.5-1.12 2.5-2.5s-1.12-2.5-2.5-2.5zM227.68 0h-21c-1.38 0-2.5 1.12-2.5 2.5s1.12 2.5 2.5 2.5h21c1.38 0 2.5-1.12 2.5-2.5s-1.12-2.5-2.5-2.5zM193.68 0h-21c-1.38 0-2.5 1.12-2.5 2.5s1.12 2.5 2.5 2.5h21c1.38 0 2.5-1.12 2.5-2.5s-1.12-2.5-2.5-2.5zM159.68 0h-21c-1.38 0-2.5 1.12-2.5 2.5s1.12 2.5 2.5 2.5h21c1.38 0 2.5-1.12 2.5-2.5s-1.12-2.5-2.5-2.5zM125.68 0h-21c-1.38 0-2.5 1.12-2.5 2.5s1.12 2.5 2.5 2.5h21c1.38 0 2.5-1.12 2.5-2.5s-1.12-2.5-2.5-2.5zM91.68 0h-21c-1.38 0-2.5 1.12-2.5 2.5S69.3 5 70.68 5h21c1.38 0 2.5-1.12 2.5-2.5S93.06 0 91.68 0zM57.68 0h-21c-1.38 0-2.5 1.12-2.5 2.5S35.3 5 36.68 5h21c1.38 0 2.5-1.12 2.5-2.5S59.06 0 57.68 0zM23.93.12h-.24c-5.345.536-10.396 2.7-14.47 6.2H9l-.08.07h-.5l-.05.05-.22.21-.06.06-.09.7c-.034.04-.07.076-.11.11-.77.758-1.49 1.563-2.16 2.41-.858 1.08-.679 2.65.4 3.51.437.36.984.557 1.55.56.777.016 1.517-.332 2-.94 3.572-4.487 8.796-7.351 14.5-7.95 1.38-.069 2.444-1.244 2.375-2.625C26.486 1.105 25.311.041 23.93.11v.01zM2.87 19.58c-1.208.001-2.241.87-2.45 2.06C.21 22.75.07 23.872 0 25v16.62c0 1.38 1.12 2.5 2.5 2.5S5 43 5 41.62v-15.3c-.002-1.271.111-2.54.34-3.79.244-1.354-.648-2.652-2-2.91-.15-.01-.3-.01-.45 0l-.02-.04zM2.5 53.12c-1.38 0-2.5 1.12-2.5 2.5v21c0 1.38 1.12 2.5 2.5 2.5S5 78 5 76.62v-21c0-1.38-1.12-2.5-2.5-2.5zM2.5 87.12c-1.38 0-2.5 1.12-2.5 2.5v21c0 1.38 1.12 2.5 2.5 2.5S5 112 5 110.62v-21c0-1.38-1.12-2.5-2.5-2.5zM2.5 121.12c-1.38 0-2.5 1.12-2.5 2.5v21c0 1.38 1.12 2.5 2.5 2.5S5 146 5 144.62v-21c0-1.38-1.12-2.5-2.5-2.5zM2.5 155.12c-1.38 0-2.5 1.12-2.5 2.5V174.03c.07 1.107.207 2.21.41 3.3.238 1.164 1.262 2 2.45 2 .156.015.314.015.47 0 .654-.119 1.233-.494 1.61-1.043.375-.548.516-1.224.39-1.877-.25-1.319-.374-2.658-.37-4v-14.79c0-1.38-1.12-2.5-2.5-2.5h.04zM7.82 186.18c-.575.004-1.131.201-1.58.56-1.064.871-1.229 2.436-.37 3.51 2.376 2.927 5.349 5.313 8.72 7h.07l.14.06h.54c2.678 1.215 5.541 1.97 8.47 2.23h.22c.893.041 1.74-.397 2.223-1.15.482-.753.526-1.706.115-2.5-.411-.794-1.215-1.309-2.108-1.35-5.729-.502-11.005-3.32-14.61-7.8-.472-.589-1.186-.931-1.94-.93l.11.37zM57.91 195h-21c-1.38 0-2.5 1.12-2.5 2.5s1.12 2.5 2.5 2.5h21c1.38 0 2.5-1.12 2.5-2.5s-1.12-2.5-2.5-2.5zM91.91 195h-21c-1.38 0-2.5 1.12-2.5 2.5s1.12 2.5 2.5 2.5h21c1.38 0 2.5-1.12 2.5-2.5s-1.12-2.5-2.5-2.5zM125.91 195h-21c-1.38 0-2.5 1.12-2.5 2.5s1.12 2.5 2.5 2.5h21c1.38 0 2.5-1.12 2.5-2.5s-1.12-2.5-2.5-2.5zM159.91 195h-21c-1.38 0-2.5 1.12-2.5 2.5s1.12 2.5 2.5 2.5h21c1.38 0 2.5-1.12 2.5-2.5s-1.12-2.5-2.5-2.5zM193.91 195h-21c-1.38 0-2.5 1.12-2.5 2.5s1.12 2.5 2.5 2.5h21c1.38 0 2.5-1.12 2.5-2.5s-1.12-2.5-2.5-2.5zM227.91 195h-21c-1.38 0-2.5 1.12-2.5 2.5s1.12 2.5 2.5 2.5h21c1.38 0 2.5-1.12 2.5-2.5s-1.12-2.5-2.5-2.5zM261.91 195h-21c-1.38 0-2.5 1.12-2.5 2.5s1.12 2.5 2.5 2.5h21c1.38 0 2.5-1.12 2.5-2.5s-1.12-2.5-2.5-2.5zM295.91 195h-21c-1.38 0-2.5 1.12-2.5 2.5s1.12 2.5 2.5 2.5h21c1.38 0 2.5-1.12 2.5-2.5s-1.12-2.5-2.5-2.5zM329.91 195h-21c-1.38 0-2.5 1.12-2.5 2.5s1.12 2.5 2.5 2.5h21c1.38 0 2.5-1.12 2.5-2.5s-1.12-2.5-2.5-2.5zM363.88 195h-21c-1.38 0-2.5 1.12-2.5 2.5s1.12 2.5 2.5 2.5h21c1.38-.014 2.489-1.144 2.475-2.525-.014-1.38-1.144-2.489-2.525-2.475h.05zM387.5 144.29c-1.38 0-2.5 1.12-2.5 2.5v21c0 1.38 1.12 2.5 2.5 2.5s2.5-1.12 2.5-2.5v-21c0-1.38-1.12-2.5-2.5-2.5zM387.5 110.29c-1.38 0-2.5 1.12-2.5 2.5v21c0 1.38 1.12 2.5 2.5 2.5s2.5-1.12 2.5-2.5v-21c0-1.38-1.12-2.5-2.5-2.5zM387.5 42.29c-1.38 0-2.5 1.12-2.5 2.5v21c0 1.38 1.12 2.5 2.5 2.5s2.5-1.12 2.5-2.5v-21c0-1.38-1.12-2.5-2.5-2.5zM387.5 76.29c-1.38 0-2.5 1.12-2.5 2.5v21c0 1.38 1.12 2.5 2.5 2.5s2.5-1.12 2.5-2.5v-21c0-1.38-1.12-2.5-2.5-2.5z"/>
        <g fill="#000">
            <path d="M4.68 13.45c-.07-.072-.106-.17-.1-.27V2.67H1.21c-.1.01-.2-.027-.272-.098C.867 2.5.831 2.4.84 2.3V2c-.004-.103.032-.203.1-.28.071-.072.169-.112.27-.11H9c.106-.004.21.031.29.1.072.079.108.184.1.29v.26c.002.101-.038.199-.11.27-.076.069-.177.105-.28.1H5.65v10.51c.002.101-.038.199-.11.27-.076.069-.177.105-.28.1H5c-.11.032-.229.01-.32-.06zM11 13.45c-.07-.072-.106-.17-.1-.27V1.86c-.007-.103.029-.205.1-.28.075-.065.17-.1.27-.1h.29c.103-.01.206.028.279.101.073.073.11.176.101.279v4c.31-.414.705-.755 1.16-1 .53-.243 1.108-.36 1.69-.34.973-.055 1.919.335 2.57 1.06.623.778.942 1.755.9 2.75v4.83c.01.1-.027.2-.098.272-.072.071-.171.107-.272.098h-.29c-.1.01-.2-.027-.27-.1-.072-.071-.112-.169-.11-.27V8.41c.048-.771-.19-1.533-.67-2.14-.497-.529-1.205-.808-1.93-.76-.747-.045-1.477.235-2 .77-.51.588-.772 1.352-.73 2.13v4.75c0 .1-.035.195-.1.27-.075.071-.177.107-.28.1h-.29c-.08-.001-.158-.03-.22-.08zM20.82 2.79c-.072-.071-.112-.169-.11-.27v-.65c0-.104.04-.204.11-.28.069-.075.168-.116.27-.11h.64c.104-.003.206.036.28.11.075.074.115.175.11.28v.65c.007.102-.033.202-.11.27-.075.071-.177.107-.28.1h-.64c-.1.01-.2-.027-.27-.1zM21 13.45c-.07-.072-.106-.17-.1-.27V5.09c-.007-.103.029-.205.1-.28.075-.065.17-.1.27-.1h.29c.103-.01.206.028.279.101.073.073.11.176.101.279v8.09c0 .1-.035.195-.1.27-.075.071-.177.107-.28.1h-.29c-.1.006-.198-.03-.27-.1zM25.63 13.35c-.434-.197-.82-.487-1.13-.85-.209-.208-.346-.478-.39-.77-.002-.095.043-.184.12-.24.071-.064.164-.1.26-.1h.25c.07-.002.139.016.2.05.072.042.134.1.18.17.234.344.546.628.91.83.457.223.962.326 1.47.3.592.024 1.18-.115 1.7-.4.41-.236.655-.678.64-1.15.01-.274-.082-.542-.26-.75-.241-.23-.532-.4-.85-.5-.571-.19-1.152-.35-1.74-.48-.765-.11-1.483-.436-2.07-.94-.652-.759-.733-1.854-.2-2.7.242-.393.588-.711 1-.92.516-.252 1.086-.375 1.66-.36.596-.016 1.187.103 1.73.35.392.189.734.466 1 .81.191.208.313.47.35.75.002.093-.038.181-.11.24-.07.066-.164.102-.26.1h-.26c-.157-.002-.3-.09-.37-.23-.202-.31-.468-.572-.78-.77-.42-.2-.885-.289-1.35-.26-.53-.043-1.057.102-1.49.41-.303.266-.466.658-.44 1.06-.009.244.065.484.21.68.207.229.468.4.76.5.534.198 1.082.355 1.64.47.813.138 1.578.482 2.22 1 .436.407.674.984.65 1.58.003.453-.133.897-.39 1.27-.288.413-.692.733-1.16.92-.579.242-1.203.358-1.83.34-.647.009-1.286-.132-1.87-.41zM38.06 12.64c-.659-.779-1.014-1.77-1-2.79V8.42c-.016-1.023.34-2.018 1-2.8 1.541-1.454 3.949-1.454 5.49 0 .664.78 1.02 1.776 1 2.8v1.43c.019 1.02-.337 2.013-1 2.79-1.541 1.454-3.949 1.454-5.49 0zm4.69-.68c.534-.606.817-1.393.79-2.2v-.63-.63c.025-.807-.258-1.593-.79-2.2-1.093-1.027-2.797-1.027-3.89 0-.528.61-.81 1.394-.79 2.2v1.26c-.022.806.26 1.592.79 2.2 1.09 1.037 2.8 1.037 3.89 0zM47.74 13.45c-.07-.072-.106-.17-.1-.27V5.7h-1.51c-.1.004-.197-.032-.27-.1-.074-.074-.113-.176-.11-.28v-.23c-.003-.104.036-.206.11-.28.073-.068.17-.104.27-.1h1.51v-1c-.033-.71.164-1.41.56-2 .514-.547 1.254-.82 2-.74h.88c.1-.002.196.033.27.1.074.074.113.176.11.28v.23c.003.104-.036.206-.11.28-.074.067-.17.102-.27.1h-.88c-.45-.053-.896.115-1.2.45-.253.428-.369.924-.33 1.42v.88h3.75v-1c-.035-.711.165-1.414.57-2 .512-.55 1.254-.824 2-.74h.89c.1 0 .195.035.27.1.071.075.107.177.1.28v.23c.007.103-.029.205-.1.28-.075.065-.17.1-.27.1H55c-.45-.053-.896.115-1.2.45-.253.428-.369.924-.33 1.42v.88h2.25c.1 0 .195.035.27.1.071.075.107.177.1.28v.23c.007.103-.029.205-.1.28-.075.065-.17.1-.27.1h-2.25v7.48c.01.1-.027.2-.098.272-.072.071-.171.107-.272.098h-.29c-.1.007-.199-.03-.27-.1-.072-.071-.112-.169-.11-.27V5.7h-3.75v7.48c0 .1-.035.195-.1.27-.075.071-.177.107-.28.1H48c-.097.003-.19-.033-.26-.1zM58.22 12.66c-.695-.79-1.094-1.798-1.13-2.85V8.45c.036-1.047.431-2.05 1.12-2.84.672-.721 1.625-1.112 2.61-1.07 1.053-.055 2.072.381 2.76 1.18.709.915 1.064 2.055 1 3.21v.25c.009.105-.032.209-.11.28-.078.067-.177.103-.28.1h-6.06v.17c.018.514.144 1.018.37 1.48.207.442.524.825.92 1.11.41.284.9.431 1.4.42.531.02 1.057-.108 1.52-.37.328-.186.614-.438.84-.74.064-.094.142-.178.23-.25.091-.028.189-.028.28 0H64c.094-.006.186.022.26.08.063.056.099.136.1.22-.043.33-.203.636-.45.86-.356.369-.78.664-1.25.87-.568.247-1.181.37-1.8.36-1.002.042-1.97-.365-2.64-1.11zm5.32-4.06v-.06c.031-.787-.233-1.557-.74-2.16-.502-.573-1.239-.886-2-.85-.763-.046-1.503.269-2 .85-.497.607-.753 1.376-.72 2.16v.06h5.46zM66.92 13.45c-.07-.072-.106-.17-.1-.27V5.1c-.004-.103.032-.203.1-.28.071-.072.169-.112.27-.11h.27c.104-.003.206.036.28.11.075.074.115.175.11.28v.79c.467-.823 1.38-1.287 2.32-1.18h.63c.1 0 .195.035.27.1.067.078.103.177.1.28v.23c.003.103-.033.202-.1.28-.075.065-.17.1-.27.1h-.74c-.6-.049-1.19.168-1.616.594-.426.425-.643 1.016-.594 1.616v5.27c.007.102-.033.202-.11.27-.075.071-.177.107-.28.1h-.27c-.1.006-.198-.03-.27-.1zM77.39 12.66c-.691-.792-1.087-1.8-1.12-2.85V8.45c.037-1.045.429-2.047 1.11-2.84.723-.705 1.699-1.09 2.708-1.069 1.01.02 1.968.445 2.662 1.179.713.913 1.068 2.054 1 3.21v.25c.003.104-.036.206-.11.28-.08.064-.178.1-.28.1h-6v.17c.015.513.138 1.017.36 1.48.207.445.528.828.93 1.11.407.284.894.432 1.39.42.531.02 1.058-.107 1.52-.37.33-.186.62-.438.85-.74.062-.093.136-.177.22-.25.092-.026.188-.026.28 0h.28c.09-.006.18.023.25.08.066.053.103.135.1.22-.043.33-.203.636-.45.86-.354.37-.78.667-1.25.87-.567.248-1.181.37-1.8.36-1.004.043-1.976-.364-2.65-1.11zm5.32-4.06v-.06c.035-.788-.23-1.56-.74-2.16-.5-.577-1.238-.89-2-.85-.764-.049-1.505.266-2 .85-.497.607-.753 1.376-.72 2.16v.06h5.46zM85.18 13.45c-.067-.062-.107-.148-.11-.24.009-.126.058-.245.14-.34l3-3.84-2.84-3.64c-.083-.094-.129-.215-.13-.34 0-.09.035-.177.1-.24.065-.061.15-.097.24-.1h.35c.081-.007.163.014.23.06.074.059.141.126.2.2l2.55 3.28 2.55-3.27c.03-.03.057-.064.08-.1.046-.052.1-.095.16-.13.06-.01.12-.01.18 0h.34c.09.001.176.037.24.1.065.063.1.15.1.24-.001.125-.047.246-.13.34l-2.87 3.69 3 3.79c.08.096.126.215.13.34 0 .188-.152.34-.34.34H92c-.175-.008-.336-.102-.43-.25L88.89 9.9l-2.69 3.44c-.059.071-.126.135-.2.19-.067.046-.149.067-.23.06h-.34c-.102 0-.197-.053-.25-.14zM95.07 12.69c-.686-.799-1.043-1.828-1-2.88V8.45c-.04-1.052.317-2.08 1-2.88.732-.704 1.727-1.067 2.74-1 .659-.016 1.313.121 1.91.4.476.221.884.567 1.18 1 .25.387.397.83.43 1.29.007.1-.034.196-.11.26-.072.07-.17.11-.27.11h-.24c-.087.006-.174-.023-.24-.08-.073-.08-.127-.176-.16-.28-.176-.542-.528-1.01-1-1.33-.462-.284-.998-.424-1.54-.4-.725-.04-1.434.229-1.95.74-.533.633-.808 1.443-.77 2.27v1.19c-.037.826.238 1.637.77 2.27.519.507 1.225.775 1.95.74.541.019 1.076-.12 1.54-.4.472-.324.824-.795 1-1.34.035-.103.09-.198.16-.28.066-.057.153-.086.24-.08h.29c.103 0 .201.043.27.12.078.063.119.16.11.26-.033.456-.181.896-.43 1.28-.29.439-.7.785-1.18 1-.596.283-1.25.42-1.91.4-1.034.081-2.052-.29-2.79-1.02zM103.69 13.45c-.07-.072-.106-.17-.1-.27V1.86c-.007-.103.029-.205.1-.28.075-.065.17-.1.27-.1h.29c.1 0 .195.035.27.1.071.075.107.177.1.28v11.32c.01.1-.027.2-.098.272-.072.071-.171.107-.272.098H104c-.113.018-.229-.02-.31-.1zM108.18 12.67c-.609-.787-.917-1.766-.87-2.76V5.09c-.007-.103.029-.205.1-.28.075-.065.17-.1.27-.1h.32c.103-.01.206.028.279.101.073.073.11.176.101.279v4.74c0 1.94.84 2.91 2.53 2.91.75.048 1.481-.237 2-.78.507-.59.765-1.354.72-2.13V5.09c-.007-.103.029-.205.1-.28.075-.065.17-.1.27-.1h.29c.1-.004.197.032.27.1.074.074.113.176.11.28v8.09c.002.101-.038.199-.11.27-.07.073-.17.11-.27.1H114c-.1.01-.2-.027-.272-.098-.071-.072-.107-.171-.098-.272v-.8c-.31.417-.71.76-1.17 1-.52.248-1.094.364-1.67.34-.988.091-1.96-.3-2.61-1.05zM117.82 12.52c-.599-.852-.92-1.868-.92-2.91v-.95c-.002-1.045.32-2.065.92-2.92.649-.83 1.67-1.28 2.72-1.2 1.116-.055 2.186.452 2.85 1.35v-4c-.01-.103.028-.206.101-.279.073-.073.176-.11.279-.101h.28c.103-.003.202.033.28.1.071.075.107.177.1.28v11.32c.006.1-.03.198-.1.27-.075.071-.177.107-.28.1h-.28c-.103.007-.205-.029-.28-.1-.065-.075-.1-.17-.1-.27v-.8c-.667.895-1.736 1.397-2.85 1.34-1.056.073-2.077-.39-2.72-1.23zm4.84-.68c.459-.605.714-1.34.73-2.1v-.66-.66c-.01-.48-.119-.954-.32-1.39-.21-.433-.526-.805-.92-1.08-.448-.291-.976-.438-1.51-.42-.77-.057-1.518.268-2 .87-.449.668-.686 1.455-.68 2.26v.47c-.04.903.171 1.8.61 2.59.463.699 1.276 1.084 2.11 1 .763.043 1.5-.284 1.98-.88zM127.88 12.66c-.691-.792-1.087-1.8-1.12-2.85V8.45c.037-1.045.429-2.047 1.11-2.84.723-.705 1.699-1.09 2.708-1.069 1.01.02 1.968.445 2.662 1.179.713.913 1.068 2.054 1 3.21v.25c.003.104-.036.206-.11.28-.08.064-.178.1-.28.1h-6v.17c.015.513.138 1.017.36 1.48.207.445.528.828.93 1.11.407.284.894.432 1.39.42.531.02 1.057-.108 1.52-.37.328-.186.614-.438.84-.74.067-.092.144-.175.23-.25.091-.027.189-.027.28 0h.28c.09-.006.18.023.25.08.066.053.103.135.1.22-.043.33-.203.636-.45.86-.354.37-.78.667-1.25.87-.567.248-1.181.37-1.8.36-1.005.044-1.977-.363-2.65-1.11zm5.32-4.06v-.06c.031-.787-.233-1.557-.74-2.16-.5-.577-1.238-.89-2-.85-.764-.049-1.505.266-2 .85-.497.607-.753 1.376-.72 2.16v.06h5.46zM137.42 13.35c-.434-.197-.82-.487-1.13-.85-.209-.208-.346-.478-.39-.77-.002-.095.043-.184.12-.24.071-.064.164-.1.26-.1h.25c.07-.002.139.016.2.05.072.042.134.1.18.17.234.344.546.628.91.83.457.223.963.326 1.47.3.593.024 1.18-.115 1.7-.4.41-.236.655-.678.64-1.15.01-.274-.082-.542-.26-.75-.241-.23-.532-.4-.85-.5-.571-.19-1.152-.35-1.74-.48-.765-.11-1.483-.436-2.07-.94-.652-.759-.733-1.854-.2-2.7.245-.39.59-.708 1-.92.516-.252 1.086-.375 1.66-.36.596-.016 1.187.103 1.73.35.392.189.734.466 1 .81.191.208.313.47.35.75.002.093-.038.181-.11.24-.07.068-.163.104-.26.1h-.26c-.157-.002-.3-.09-.37-.23-.202-.31-.468-.572-.78-.77-.42-.2-.885-.289-1.35-.26-.53-.041-1.056.104-1.49.41-.333.253-.524.652-.51 1.07-.012.243.059.482.2.68.207.229.468.4.76.5.534.198 1.082.355 1.64.47.813.138 1.578.482 2.22 1 .436.407.674.984.65 1.58.003.453-.133.897-.39 1.27-.288.413-.692.733-1.16.92-.579.242-1.203.358-1.83.34-.62-.006-1.232-.15-1.79-.42zM149.84 12.69c-.678-.803-1.034-1.83-1-2.88V8.45c-.03-1.05.325-2.075 1-2.88.732-.704 1.727-1.067 2.74-1 .66-.017 1.313.12 1.91.4.476.221.884.567 1.18 1 .258.383.407.829.43 1.29.011.098-.026.195-.1.26-.073.07-.17.109-.27.11h-.24c-.09.008-.18-.02-.25-.08-.07-.083-.123-.178-.16-.28-.18-.54-.53-1.008-1-1.33-.466-.283-1.005-.422-1.55-.4-.742-.055-1.472.215-2 .74-.533.633-.808 1.443-.77 2.27v1.19c-.037.826.238 1.637.77 2.27.53.52 1.258.79 2 .74.544.017 1.082-.121 1.55-.4.47-.327.82-.797 1-1.34.04-.1.093-.195.16-.28.07-.06.16-.088.25-.08h.24c.103 0 .2.044.27.12.076.064.113.162.1.26-.024.458-.172.9-.43 1.28-.29.439-.7.785-1.18 1-.595.284-1.25.422-1.91.4-1.017.067-2.014-.304-2.74-1.02zM159 12.64c-.663-.777-1.019-1.77-1-2.79V8.42c-.021-1.024.335-2.02 1-2.8.715-.745 1.72-1.14 2.75-1.08 1.028-.06 2.03.335 2.74 1.08.669.777 1.025 1.775 1 2.8v1.43c.023 1.022-.333 2.016-1 2.79-.71.745-1.712 1.14-2.74 1.08-1.03.06-2.035-.335-2.75-1.08zm4.7-.68c.525-.61.807-1.394.79-2.2v-.63-.63c.015-.805-.266-1.588-.79-2.2-1.096-1.029-2.804-1.029-3.9 0-.524.612-.805 1.395-.79 2.2v1.26c-.017.806.265 1.59.79 2.2 1.093 1.039 2.807 1.039 3.9 0zM167.93 13.45c-.07-.072-.106-.17-.1-.27V5.09c-.007-.103.029-.205.1-.28.075-.065.17-.1.27-.1h.29c.1-.004.197.032.27.1.074.074.113.176.11.28v.59c.263-.357.606-.647 1-.85.438-.203.917-.302 1.4-.29 1.148-.071 2.225.562 2.72 1.6.269-.489.671-.891 1.16-1.16.528-.297 1.125-.45 1.73-.44.872-.016 1.708.35 2.29 1 .635.763.953 1.74.89 2.73v5c.002.101-.038.199-.11.27-.07.073-.17.11-.27.1h-.29c-.1.01-.2-.027-.272-.098-.071-.072-.107-.171-.098-.272V8.4c.077-.791-.152-1.582-.64-2.21-.438-.446-1.045-.686-1.67-.66-.6-.006-1.175.237-1.59.67-.507.615-.748 1.407-.67 2.2v4.78c.002.101-.038.199-.11.27-.07.073-.17.11-.27.1h-.29c-.1.01-.2-.027-.272-.098-.071-.072-.107-.171-.098-.272V8.4c.074-.791-.163-1.58-.66-2.2-.434-.442-1.031-.684-1.65-.67-.6-.006-1.175.237-1.59.67-.502.61-.742 1.393-.67 2.18v4.8c.002.101-.038.199-.11.27-.07.073-.17.11-.27.1h-.29c-.09-.002-.175-.038-.24-.1zM182.86 13.45c-.07-.072-.106-.17-.1-.27V5.09c-.007-.103.029-.205.1-.28.075-.065.17-.1.27-.1h.29c.1 0 .195.035.27.1.071.075.107.177.1.28v.59c.268-.352.61-.642 1-.85.439-.202.917-.3 1.4-.29 1.149-.074 2.227.56 2.72 1.6.274-.488.68-.89 1.17-1.16.524-.297 1.118-.449 1.72-.44.876-.018 1.716.347 2.3 1 .631.764.946 1.741.88 2.73v5c.01.1-.027.2-.098.272-.072.071-.171.107-.272.098h-.29c-.1.01-.2-.027-.272-.098-.071-.072-.107-.171-.098-.272V8.4c.073-.791-.156-1.58-.64-2.21-.442-.447-1.052-.687-1.68-.66-.6-.006-1.175.237-1.59.67-.5.618-.741 1.407-.67 2.2v4.78c.01.1-.027.2-.098.272-.072.071-.171.107-.272.098h-.29c-.1.01-.2-.027-.272-.098-.071-.072-.107-.171-.098-.272V8.4c.071-.793-.17-1.582-.67-2.2-.432-.445-1.03-.688-1.65-.67-.6-.006-1.175.237-1.59.67-.502.61-.742 1.393-.67 2.18v4.8c.01.1-.027.2-.098.272-.072.071-.171.107-.272.098h-.29c-.09-.002-.175-.038-.24-.1zM198.36 12.66c-.691-.792-1.087-1.8-1.12-2.85V8.45c.037-1.045.429-2.047 1.11-2.84.672-.721 1.625-1.112 2.61-1.07 1.056-.055 2.078.38 2.77 1.18.709.915 1.064 2.055 1 3.21v.25c.003.104-.036.206-.11.28-.08.064-.178.1-.28.1h-6.05v.17c.015.513.138 1.017.36 1.48.207.445.528.828.93 1.11.407.284.894.432 1.39.42.531.02 1.058-.107 1.52-.37.329-.189.618-.44.85-.74.062-.096.14-.18.23-.25.091-.028.189-.028.28 0h.27c.09-.006.18.023.25.08.066.053.103.135.1.22-.043.33-.203.636-.45.86-.354.37-.78.667-1.25.87-.567.248-1.181.37-1.8.36-.99.03-1.945-.375-2.61-1.11zm5.32-4.06v-.06c.035-.788-.23-1.56-.74-2.16-.5-.577-1.238-.89-2-.85-.763-.047-1.504.268-2 .85-.497.607-.753 1.376-.72 2.16v.06h5.46zM207.07 13.45c-.072-.071-.112-.169-.11-.27V5.1c0-.104.04-.204.11-.28.069-.075.168-.116.27-.11h.27c.104-.002.205.037.28.11.07.076.11.176.11.28v.79c.465-.82 1.373-1.283 2.31-1.18h.63c.1-.002.196.033.27.1.074.074.113.176.11.28v.23c.003.104-.036.206-.11.28-.074.067-.17.102-.27.1h-.73c-.6-.049-1.19.168-1.616.594-.426.425-.643 1.016-.594 1.616v5.27c.002.101-.038.199-.11.27-.076.069-.177.105-.28.1h-.27c-.1.01-.2-.027-.27-.1zM213.29 12.69c-.686-.799-1.043-1.828-1-2.88V8.45c-.04-1.052.317-2.08 1-2.88.728-.703 1.72-1.067 2.73-1 .662-.016 1.32.121 1.92.4.474.224.88.57 1.18 1 .25.386.395.83.42 1.29.011.098-.026.195-.1.26-.073.07-.17.109-.27.11h-.24c-.087.006-.174-.023-.24-.08-.077-.08-.135-.175-.17-.28-.159-.537-.493-1.006-.95-1.33-.466-.284-1.005-.423-1.55-.4-.722-.038-1.427.23-1.94.74-.532.634-.81 1.443-.78 2.27v1.19c-.028.827.25 1.635.78 2.27.516.505 1.219.773 1.94.74.544.019 1.083-.12 1.55-.4.457-.329.791-.8.95-1.34.038-.103.096-.199.17-.28.066-.057.153-.086.24-.08h.24c.103 0 .2.044.27.12.076.064.113.162.1.26-.025.456-.17.898-.42 1.28-.293.436-.702.782-1.18 1-.6.283-1.257.42-1.92.4-1.014.066-2.008-.305-2.73-1.02zM221.7 2.79c-.07-.072-.106-.17-.1-.27v-.65c-.004-.103.032-.203.1-.28.074-.074.176-.113.28-.11h.64c.104-.002.205.037.28.11.075.074.115.175.11.28v.65c.007.102-.033.202-.11.27-.076.069-.177.105-.28.1H222c-.11.013-.22-.023-.3-.1zm.19 10.66c-.07-.072-.106-.17-.1-.27V5.09c-.007-.103.029-.205.1-.28.075-.065.17-.1.27-.1h.29c.1 0 .195.035.27.1.071.075.107.177.1.28v8.09c.01.1-.027.2-.098.272-.072.071-.171.107-.272.098h-.29c-.1.006-.198-.03-.27-.1zM226.45 13.38c-.447-.204-.833-.521-1.12-.92-.272-.367-.416-.813-.41-1.27-.013-.722.322-1.407.9-1.84.725-.517 1.574-.834 2.46-.92l2.69-.37v-.59c.037-.541-.173-1.07-.57-1.44-.952-.605-2.152-.666-3.16-.16-.326.176-.578.464-.71.81-.029.105-.084.202-.16.28-.069.06-.16.089-.25.08h-.24c-.202-.005-.365-.168-.37-.37.025-.32.143-.626.34-.88.262-.363.604-.66 1-.87.547-.268 1.151-.398 1.76-.38.945-.096 1.886.221 2.58.87.51.582.782 1.336.76 2.11v5.66c.01.1-.027.2-.098.272-.072.071-.171.107-.272.098h-.29c-.1.01-.2-.027-.272-.098-.071-.072-.107-.171-.098-.272v-.8c-.279.419-.656.762-1.1 1-.595.286-1.25.42-1.91.39-.51-.016-1.01-.15-1.46-.39zm3.72-1.46c.57-.645.857-1.491.8-2.35V9l-2.19.3c-.741.065-1.46.286-2.11.65-.435.227-.712.672-.725 1.162-.012.49.242.95.665 1.198 1.137.695 2.6.534 3.56-.39zM234.81 13.45c-.07-.072-.106-.17-.1-.27V1.86c-.007-.103.029-.205.1-.28.075-.065.17-.1.27-.1h.29c.1 0 .195.035.27.1.071.075.107.177.1.28v11.32c.01.1-.027.2-.098.272-.072.071-.171.107-.272.098h-.29c-.1.006-.198-.03-.27-.1zM244.84 13.13l-3.13-7.89v-.19c0-.09.035-.177.1-.24.065-.061.15-.097.24-.1h.35c.092-.006.183.026.25.09.058.044.102.103.13.17l2.87 7.34 2.87-7.34c.031-.065.075-.123.13-.17.07-.06.158-.092.25-.09h.36c.087.002.17.038.23.1.067.062.107.148.11.24v.19l-3.13 7.89c-.094.268-.356.44-.64.42h-.27c-.31.057-.617-.121-.72-.42zM251.93 12.66c-.691-.792-1.087-1.8-1.12-2.85V8.45c.037-1.045.429-2.047 1.11-2.84.723-.705 1.699-1.09 2.708-1.069 1.01.02 1.968.445 2.662 1.179.713.913 1.068 2.054 1 3.21v.25c.003.104-.036.206-.11.28-.08.064-.178.1-.28.1h-6.06v.17c.023.513.15 1.016.37 1.48.207.445.528.828.93 1.11.407.284.894.432 1.39.42.531.02 1.057-.108 1.52-.37.328-.186.614-.438.84-.74.067-.092.144-.175.23-.25.091-.027.189-.027.28 0h.28c.09-.006.18.023.25.08.066.053.103.135.1.22-.043.33-.203.636-.45.86-.356.369-.78.664-1.25.87-.567.248-1.181.37-1.8.36-.987.029-1.938-.377-2.6-1.11zm5.32-4.06v-.06c.031-.787-.233-1.557-.74-2.16-.5-.577-1.238-.89-2-.85-.764-.049-1.505.266-2 .85-.5.606-.76 1.375-.73 2.16v.06h5.47zM260.65 13.45c-.07-.072-.106-.17-.1-.27V1.86c-.007-.103.029-.205.1-.28.075-.065.17-.1.27-.1h.29c.1-.002.196.033.27.1.074.074.113.176.11.28v4c.307-.416.703-.758 1.16-1 .53-.243 1.108-.36 1.69-.34.973-.047 1.915.35 2.56 1.08.623.778.942 1.755.9 2.75v4.83c.01.1-.027.2-.098.272-.072.071-.171.107-.272.098h-.29c-.1.01-.2-.027-.27-.1-.072-.071-.112-.169-.11-.27V8.43c.048-.771-.19-1.533-.67-2.14-.497-.529-1.205-.808-1.93-.76-.73-.032-1.439.248-1.95.77-.51.588-.772 1.352-.73 2.13v4.75c.002.101-.038.199-.11.27-.071.07-.17.107-.27.1h-.29c-.097.003-.19-.033-.26-.1zM270.49 2.79c-.065-.075-.1-.17-.1-.27v-.65c0-.102.036-.2.1-.28.074-.074.176-.113.28-.11h.64c.104-.003.206.036.28.11.075.074.115.175.11.28v.65c.007.102-.033.202-.11.27-.075.071-.177.107-.28.1h-.64c-.103.007-.205-.029-.28-.1zm.19 10.66c-.07-.072-.106-.17-.1-.27V5.09c-.007-.103.029-.205.1-.28.075-.065.17-.1.27-.1h.29c.1-.004.197.032.27.1.074.074.113.176.11.28v8.09c.002.101-.038.199-.11.27-.07.073-.17.11-.27.1H271c-.117.021-.236-.016-.32-.1zM275 12.69c-.678-.803-1.034-1.83-1-2.88V8.45c-.03-1.05.325-2.075 1-2.88.732-.704 1.727-1.067 2.74-1 .659-.016 1.313.121 1.91.4.476.221.884.567 1.18 1 .25.387.397.83.43 1.29.007.097-.03.192-.1.26-.076.07-.176.11-.28.11h-.23c-.09.008-.18-.02-.25-.08-.073-.08-.127-.176-.16-.28-.18-.54-.53-1.008-1-1.33-.466-.283-1.005-.422-1.55-.4-.742-.055-1.472.215-2 .74-.533.633-.808 1.443-.77 2.27v1.19c-.037.826.238 1.637.77 2.27.53.52 1.258.79 2 .74.544.017 1.082-.121 1.55-.4.47-.327.82-.797 1-1.34.035-.103.09-.198.16-.28.07-.06.16-.088.25-.08h.23c.106 0 .207.043.28.12.071.067.108.163.1.26-.033.456-.181.896-.43 1.28-.29.439-.7.785-1.18 1-.596.283-1.25.42-1.91.4-1.017.067-2.014-.304-2.74-1.02zM283.6 13.45c-.07-.072-.106-.17-.1-.27V1.86c-.007-.103.029-.205.1-.28.075-.065.17-.1.27-.1h.29c.1-.004.197.032.27.1.074.074.113.176.11.28v11.32c.002.101-.038.199-.11.27-.07.073-.17.11-.27.1h-.29c-.1.006-.198-.03-.27-.1zM288 12.66c-.69-.793-1.09-1.799-1.13-2.85V8.45c.045-1.045.44-2.045 1.12-2.84.723-.705 1.699-1.09 2.708-1.069 1.01.02 1.968.445 2.662 1.179.708.915 1.063 2.055 1 3.21v.25c.005.107-.04.21-.12.28-.078.067-.177.103-.28.1h-6.06v.17c.018.514.144 1.018.37 1.48.207.442.524.825.92 1.11.411.283.9.43 1.4.42.531.02 1.057-.108 1.52-.37.328-.186.614-.438.84-.74.064-.094.142-.178.23-.25.091-.028.189-.028.28 0h.27c.094-.007.187.021.26.08.066.053.103.135.1.22-.043.33-.203.636-.45.86-.356.369-.78.664-1.25.87-.567.248-1.181.37-1.8.36-.984.027-1.931-.378-2.59-1.11zm5.32-4.06v-.06c.031-.787-.233-1.557-.74-2.16-.514-.542-1.228-.85-1.975-.85-.747 0-1.461.308-1.975.85-.497.607-.753 1.376-.72 2.16v.06h5.41zM297.53 13.35c-.436-.2-.824-.49-1.14-.85-.203-.211-.336-.48-.38-.77-.002-.095.043-.184.12-.24.07-.066.164-.102.26-.1h.25c.07 0 .139.017.2.05.071.04.13.099.17.17.237.342.548.625.91.83.457.223.962.326 1.47.3.593.025 1.18-.114 1.7-.4.415-.232.665-.675.65-1.15.01-.274-.082-.542-.26-.75-.241-.23-.532-.4-.85-.5-.575-.19-1.159-.35-1.75-.48-.762-.113-1.476-.439-2.06-.94-.373-.412-.57-.954-.55-1.51-.002-.42.116-.834.34-1.19.246-.39.591-.707 1-.92.516-.253 1.086-.376 1.66-.36.593-.017 1.181.102 1.72.35.414.18.778.458 1.06.81.191.208.313.47.35.75.002.093-.038.181-.11.24-.073.067-.17.103-.27.1h-.25c-.159-.002-.304-.09-.38-.23-.196-.311-.459-.574-.77-.77-.42-.2-.885-.289-1.35-.26-.532-.04-1.062.104-1.5.41-.333.253-.524.652-.51 1.07-.009.244.065.484.21.68.205.23.467.403.76.5.531.197 1.076.354 1.63.47.817.136 1.585.48 2.23 1 .436.407.674.984.65 1.58.003.453-.133.897-.39 1.27-.288.413-.692.733-1.16.92-.582.242-1.21.358-1.84.34-.63-.002-1.253-.145-1.82-.42zM304.92 13.45c-.07-.072-.106-.17-.1-.27v-.82c-.004-.103.032-.203.1-.28.071-.072.169-.112.27-.11h.81c.104-.003.205.037.279.111.074.074.114.175.111.279v.82c.002.101-.038.199-.11.27-.077.068-.177.104-.28.1h-.82c-.097.003-.19-.033-.26-.1z" transform="translate(41 118)"/>
        </g>
        <g transform="translate(106 151)">
            <rect width="181.26" height="28.35" x=".8" y=".49" fill="#F99026" rx="9.19"/>
            <g fill="#FFF">
                <path d="M2.21 11.48C1.361 10.584.892 9.394.9 8.16v-1.6-1.59c-.055-1.253.436-2.468 1.344-3.333C3.153.772 4.391.343 5.64.46 6.518.434 7.389.62 8.18 1c.618.305 1.153.754 1.56 1.31.314.405.508.89.56 1.4 0 .09-.041.174-.11.23-.07.06-.159.091-.25.09H9c-.081.006-.162-.015-.23-.06-.067-.074-.115-.163-.14-.26-.189-.538-.538-1.006-1-1.34-.59-.395-1.291-.588-2-.55-.822-.043-1.627.24-2.24.79-.594.659-.906 1.524-.87 2.41V8.05c-.039.893.274 1.765.87 2.43.614.547 1.42.827 2.24.78.846.044 1.677-.239 2.32-.79.612-.631.925-1.493.86-2.37v-.73h-2.6c-.106.003-.209-.04-.28-.12-.07-.08-.11-.183-.11-.29v-.51c0-.107.04-.21.11-.29.071-.08.174-.123.28-.12H10c.11-.002.217.037.3.11.076.081.115.19.11.3v1.61c.018.845-.178 1.681-.57 2.43-.378.692-.957 1.253-1.66 1.61-.797.396-1.68.592-2.57.57-1.247.074-2.471-.355-3.4-1.19zM13 12.42c-.069-.076-.105-.177-.1-.28V1c-.01-.11.027-.218.1-.3.071-.072.169-.112.27-.11h7c.108-.004.212.036.29.11.08.078.12.189.11.3v.61c.007.102-.033.202-.11.27-.079.072-.184.108-.29.1h-5.8v3.8h5.42c.111-.01.222.03.3.11.074.078.114.182.11.29v.58c.002.104-.037.205-.11.28-.078.08-.189.12-.3.11h-5.42v3.93h5.93c.111-.01.221.031.3.11.079.079.12.189.11.3v.61c.003.106-.04.209-.12.28-.08.072-.183.112-.29.11h-7.12c-.099.016-.2-.01-.28-.07zM25.88 12.42c-.073-.075-.112-.176-.11-.28v-10h-3.28c-.105.006-.207-.034-.28-.11-.073-.075-.112-.176-.11-.28V1c-.005-.11.034-.219.11-.3.075-.073.176-.112.28-.11h8.16c.108-.006.213.034.29.11.073.082.11.19.1.3v.66c.002.104-.037.205-.11.28-.073.076-.175.116-.28.11h-3.26v10c.003.106-.04.209-.12.28-.08.07-.183.11-.29.11h-.82c-.093.026-.192.02-.28-.02zM36.85 12.42c-.076-.073-.116-.175-.11-.28V1c-.01-.11.027-.218.1-.3.077-.076.182-.116.29-.11h.8c.18-.01.349.094.42.26l3.62 7 3.66-7c.072-.161.234-.263.41-.26h.79c.108-.008.214.033.29.11.076.081.115.19.11.3v11.1c.003.106-.04.209-.12.28-.074.074-.176.113-.28.11h-.78c-.101.002-.199-.038-.27-.11-.069-.076-.105-.177-.1-.28V3.65l-2.91 5.63c-.086.22-.303.362-.54.35h-.51c-.237.004-.454-.133-.55-.35l-2.89-5.63v8.45c.006.105-.034.207-.11.28-.074.074-.176.113-.28.11h-.76c-.099.014-.2-.01-.28-.07zM51.05 11.54c-.872-.955-1.329-2.218-1.27-3.51V6.58 5.15c-.054-1.296.418-2.558 1.31-3.5.926-.826 2.14-1.253 3.38-1.19 1.233-.064 2.442.364 3.36 1.19.892.942 1.364 2.204 1.31 3.5v2.88c.057 1.29-.396 2.55-1.26 3.51-2.014 1.546-4.816 1.546-6.83 0zm5.59-1.07c.603-.702.92-1.605.89-2.53V6.58 5.22c.03-.925-.287-1.828-.89-2.53-.573-.573-1.36-.878-2.17-.84-.815-.037-1.609.267-2.19.84-.604.7-.916 1.606-.87 2.53v2.72c-.044.922.263 1.826.86 2.53.591.56 1.386.857 2.2.82.804.029 1.586-.267 2.17-.82zM61.79 12.42c-.066-.078-.101-.178-.1-.28V1c-.004-.109.031-.215.1-.3.074-.074.176-.113.28-.11h4.14c1.076-.057 2.137.265 3 .91.753.664 1.155 1.639 1.09 2.64.034.762-.192 1.513-.64 2.13-.457.571-1.09.975-1.8 1.15l2.61 4.54c.037.057.057.122.06.19-.003.092-.043.178-.11.24-.058.066-.142.103-.23.1h-.75c-.143.01-.285-.033-.4-.12-.112-.092-.2-.208-.26-.34l-2.5-4.35h-3v4.42c.003.106-.04.209-.12.28-.08.072-.183.112-.29.11h-.81c-.096.012-.192-.013-.27-.07zm4.36-6.09c1.71 0 2.56-.72 2.56-2.16 0-1.44-.85-2.16-2.56-2.16h-2.86v4.32h2.86zM72.91 12.42c-.069-.076-.105-.177-.1-.28V1c-.01-.11.027-.218.1-.3.071-.072.169-.112.27-.11h7c.11-.004.218.035.3.11.076.081.115.19.11.3v.61c.002.101-.038.199-.11.27-.083.071-.19.107-.3.1h-5.8v3.8h5.43c.108-.006.213.034.29.11.076.077.116.182.11.29v.58c.006.105-.034.207-.11.28-.075.079-.182.119-.29.11h-5.43v3.93h5.94c.108-.004.212.036.29.11.08.078.12.189.11.3v.61c.002.104-.037.205-.11.28-.08.07-.183.11-.29.11h-7.13c-.099.016-.2-.01-.28-.07zM87.38 12.42c-.069-.076-.105-.177-.1-.28V1c-.01-.11.027-.218.1-.3.071-.072.169-.112.27-.11h3.84c1.34-.125 2.676.288 3.71 1.15.83.955 1.25 2.198 1.17 3.46v2.67c.017.9-.16 1.794-.52 2.62-.311.668-.85 1.203-1.52 1.51-.87.362-1.809.53-2.75.49h-3.93c-.096.013-.193-.012-.27-.07zm4.11-1.3c.65.028 1.298-.085 1.9-.33.444-.2.8-.556 1-1 .234-.61.352-1.257.35-1.91V6.6 5.35c.053-.902-.236-1.792-.81-2.49-.705-.597-1.62-.885-2.54-.8h-2.54v9.1l2.64-.04zM99.07 12.42c-.066-.078-.101-.178-.1-.28V1c-.004-.109.031-.215.1-.3.074-.074.176-.113.28-.11h7c.11-.005.219.034.3.11.08.078.12.189.11.3v.61c.007.102-.033.202-.11.27-.082.073-.19.11-.3.1h-5.79v3.8H106c.11-.009.217.03.296.107.079.076.12.183.114.293v.58c.002.104-.037.205-.11.28-.08.077-.19.117-.3.11h-5.42v3.93h5.93c.11-.002.217.037.3.11.076.081.115.19.11.3v.61c.003.106-.04.209-.12.28-.08.07-.183.11-.29.11h-7.12c-.112.026-.23 0-.32-.07zM112 12.42c-.073-.075-.112-.176-.11-.28v-10h-3.28c-.105.009-.209-.032-.28-.11-.076-.073-.116-.175-.11-.28V1c-.01-.111.03-.222.11-.3.074-.074.176-.113.28-.11h8.16c.109-.007.215.035.29.114.076.08.112.188.1.296v.66c.002.104-.037.205-.11.28-.074.075-.175.115-.28.11h-3.27v10c.002.104-.037.205-.11.28-.08.07-.183.11-.29.11h-.82c-.093.028-.192.021-.28-.02zM116.76 12.43c-.067-.062-.107-.148-.11-.24V12l4.21-11c.077-.235.304-.387.55-.37h1.08c.246-.017.473.135.55.37l4.22 11v.19c-.003.092-.043.178-.11.24-.067.065-.157.101-.25.1h-.8c-.1.002-.2-.03-.28-.09-.063-.054-.111-.123-.14-.2l-.95-2.45h-5.63l-.94 2.45c-.066.174-.233.29-.42.29H117c-.091.006-.18-.03-.24-.1zm2.9-4.05h4.66l-2.33-6.1-2.33 6.1zM129.27 12.42c-.069-.076-.105-.177-.1-.28V1c-.005-.103.031-.204.1-.28.071-.072.169-.112.27-.11h.85c.107-.013.214.024.29.1.076.076.113.183.1.29v11.12c.003.104-.037.205-.111.279-.074.074-.175.114-.279.111h-.85c-.098.007-.196-.025-.27-.09zM133.87 12.42c-.066-.078-.101-.178-.1-.28V1c-.001-.102.034-.202.1-.28.074-.074.176-.113.28-.11h.85c.101-.002.199.038.27.11.069.076.105.177.1.28v10.1h5.68c.11-.002.217.037.3.11.07.076.11.176.11.28v.65c.003.106-.04.209-.12.28-.08.07-.183.11-.29.11h-6.9c-.104.003-.206-.036-.28-.11zM144.68 12.26c-.619-.242-1.16-.646-1.57-1.17-.338-.45-.537-.989-.57-1.55.003-.092.043-.178.11-.24.065-.068.156-.105.25-.1h.83c.206-.005.387.138.43.34.119.508.43.95.87 1.23.619.385 1.343.566 2.07.52.755.052 1.508-.125 2.16-.51.46-.319.728-.85.71-1.41.03-.368-.097-.731-.35-1-.283-.288-.624-.513-1-.66-.46-.18-1.15-.41-2.07-.69-.721-.187-1.42-.456-2.08-.8-.467-.227-.866-.572-1.16-1-.567-1.005-.528-2.242.1-3.21.357-.51.853-.906 1.43-1.14.698-.296 1.452-.44 2.21-.42.78-.022 1.554.14 2.26.47.571.262 1.067.664 1.44 1.17.311.412.495.905.53 1.42.006.097-.03.192-.099.261s-.164.105-.261.099H150c-.091.001-.18-.03-.25-.09-.086-.06-.146-.148-.17-.25-.08-.505-.38-.949-.82-1.21-.532-.335-1.152-.502-1.78-.48-.646-.037-1.287.124-1.84.46-.447.29-.706.797-.68 1.33-.025.36.086.717.31 1 .279.293.62.519 1 .66.623.258 1.26.479 1.91.66.778.21 1.538.483 2.27.82.493.22.92.565 1.24 1 .29.467.433 1.01.41 1.56.037.982-.421 1.917-1.22 2.49-.974.638-2.127.95-3.29.89-.825.013-1.645-.14-2.41-.45z" transform="translate(15 8)"/>
            </g>
        </g>
        <g fill="#000">
            <path d="M5.44 39C2.62 36.6 1.14 33.15 1 28.65c0-1-.05-2.52-.05-4.69 0-2.17 0-3.74.05-4.73.13-4.33 1.64-7.69 4.5-10.07 2.86-2.38 6.76-3.58 11.67-3.58 2.953-.067 5.888.478 8.62 1.6 2.192.861 4.126 2.27 5.62 4.09 1.188 1.454 1.888 3.246 2 5.12.005.3-.114.59-.33.8-.207.22-.497.344-.8.34h-8c-.278.017-.556-.046-.8-.18-.213-.144-.396-.327-.54-.54-.434-.99-1.124-1.846-2-2.48-1.135-.737-2.479-1.088-3.83-1-4 0-6.06 2.06-6.18 6.18 0 1-.05 2.44-.05 4.43 0 1.99 0 3.49.05 4.48.127 4.36 2.22 6.54 6.28 6.54 1.73.104 3.437-.438 4.79-1.52 1.238-1.168 1.881-2.833 1.75-4.53V28h-4.61c-.357.005-.701-.134-.954-.386-.252-.253-.391-.597-.386-.954v-4c-.019-.372.119-.735.38-1 .263-.264.628-.403 1-.38h13.04c.356-.008.7.129.953.38.253.25.393.594.387.95v6c.083 2.655-.612 5.276-2 7.54-1.398 2.159-3.411 3.848-5.78 4.85-2.73 1.172-5.68 1.744-8.65 1.68-4.98-.013-8.877-1.24-11.69-3.68zM39.66 41.76c-.248-.234-.39-.56-.39-.9V7.43c-.02-.368.11-.73.36-1 .238-.26.578-.402.93-.39h24.31c.357-.008.702.133.95.39.268.262.41.626.39 1v5.1c.012.352-.13.692-.39.93-.257.24-.598.37-.95.36H48.59v6.54h15.14c.359-.011.706.126.96.38s.391.601.38.96v4.68c.011.359-.126.706-.38.96s-.601.391-.96.38H48.59v6.7h16.69c.357-.005.701.134.954.386.252.253.391.597.386.954v5.1c.01.349-.132.685-.39.92-.27.253-.631.383-1 .36H40.56c-.339-.002-.663-.138-.9-.38zM80.65 41.78c-.255-.236-.394-.573-.38-.92V14.49H71.2c-.369.023-.73-.107-1-.36-.26-.238-.402-.578-.39-.93V7.43c-.02-.374.122-.738.39-1 .26-.27.626-.413 1-.39h28c.356-.002.699.138.95.39.252.251.393.594.39.95v5.82c.012.352-.13.692-.39.93-.27.25-.632.38-1 .36H90.1v26.37c.009.347-.13.68-.38.92-.27.25-.632.38-1 .36h-7.15c-.341 0-.67-.129-.92-.36zM125.25 46.93c-.258-.235-.4-.571-.39-.92V42.4c-2.289-.224-4.515-.878-6.56-1.93-1.646-.84-3.048-2.09-4.07-3.63-.887-1.37-1.394-2.95-1.47-4.58-.008-.298.116-.584.34-.78.217-.202.504-.313.8-.31h6.84c.346-.015.69.057 1 .21.31.198.59.441.83.72 1.06 1.893 3.017 2.837 5.87 2.83 1.482.08 2.96-.212 4.3-.85.92-.417 1.513-1.33 1.52-2.34.014-.683-.28-1.337-.8-1.78-.734-.563-1.569-.98-2.46-1.23-1.618-.488-3.26-.892-4.92-1.21-4.147-.827-7.253-2.08-9.32-3.76-2.106-1.784-3.25-4.455-3.09-7.21-.045-2.678 1.045-5.25 3-7.08 2.262-2.064 5.132-3.338 8.18-3.63V2.23c-.012-.352.13-.692.39-.93.242-.232.565-.362.9-.36h4.48c.347-.017.685.113.931.359s.376.584.359.931v3.71c2.08.34 4.075 1.084 5.87 2.19 1.507.914 2.8 2.142 3.79 3.6.81 1.167 1.304 2.525 1.43 3.94.007.297-.105.585-.31.8-.194.221-.476.345-.77.34h-7.22c-.711.04-1.386-.318-1.75-.93-.278-.8-.86-1.457-1.62-1.83-.973-.524-2.066-.782-3.17-.75-1.168-.068-2.332.203-3.35.78-.774.484-1.225 1.349-1.18 2.26.01 1.017.611 1.935 1.54 2.35 1.826.814 3.748 1.392 5.72 1.72 2.656.414 5.252 1.15 7.73 2.19 2.96 1.413 5.014 4.218 5.465 7.467.45 3.25-.761 6.508-3.225 8.673-2.541 2.096-5.658 3.372-8.94 3.66V46c.014.345-.117.681-.363.925-.245.243-.582.372-.927.355h-4.48c-.334.004-.657-.121-.9-.35zM154.4 41.22c-2.037-.836-3.803-2.22-5.1-4-1.128-1.584-1.765-3.466-1.83-5.41-.005-.288.107-.566.31-.77.204-.203.482-.315.77-.31h7.27c.718-.059 1.396.342 1.69 1 .381 1.001 1.058 1.863 1.94 2.47.904.542 1.946.81 3 .77 1.352.045 2.67-.43 3.68-1.33 1.014-.98 1.551-2.352 1.47-3.76.037-1.32-.486-2.596-1.44-3.51-1.003-.93-2.334-1.423-3.7-1.37-.702-.025-1.403.09-2.06.34-.535.231-1.036.534-1.49.9-.368.345-.838.563-1.34.62h-7.16c-.303.005-.593-.119-.8-.34-.216-.21-.335-.5-.33-.8l1.9-18.07c.008-.437.205-.85.54-1.13.322-.278.735-.427 1.16-.42h21c.347-.017.685.113.931.359s.376.584.359.931v5.15c.002.335-.128.658-.36.9-.238.26-.578.402-.93.39h-15l-.61 6.33c.829-.591 1.752-1.038 2.73-1.32 1.308-.324 2.653-.471 4-.44 2.148-.012 4.268.492 6.18 1.47 1.893.93 3.497 2.358 4.64 4.13 1.167 1.825 1.769 3.954 1.73 6.12.034 2.285-.59 4.531-1.8 6.47-1.278 1.964-3.093 3.519-5.23 4.48-2.533 1.131-5.286 1.685-8.06 1.62-2.76.075-5.504-.426-8.06-1.47zM186.1 38.9c-2.554-2.628-4.019-6.126-4.1-9.79-.07-1.85-.1-3.51-.1-5 0-1.49 0-3.23.1-5.15.115-2.416.8-4.77 2-6.87 1.175-2.034 2.91-3.686 5-4.76 5.054-2.333 10.876-2.333 15.93 0 2.087 1.077 3.821 2.729 5 4.76 1.173 2.12 1.831 4.488 1.92 6.91.06 1 .1 2.68.1 5.15s0 4.07-.1 5c-.073 3.66-1.527 7.157-4.07 9.79-2.473 2.467-6.097 3.72-10.87 3.76-4.773.04-8.377-1.227-10.81-3.8zm14.42-5.59c.87-1.319 1.316-2.871 1.28-4.45.07-1 .11-2.61.11-4.84s0-3.82-.11-4.74c.021-1.565-.424-3.1-1.28-4.41-.854-1.113-2.21-1.722-3.61-1.62-3.093 0-4.723 2-4.89 6 0 .92-.05 2.5-.05 4.74s0 3.84.05 4.84c.167 4 1.797 6 4.89 6 1.38.116 2.729-.452 3.61-1.52zM232.29 39.1c-2.82-2.36-4.313-5.843-4.48-10.45 0-1-.05-2.44-.05-4.43 0-1.99 0-3.48.05-4.48.14-4.533 1.643-8.027 4.51-10.48 2.867-2.453 6.703-3.68 11.51-3.68 4.773 0 8.593 1.227 11.46 3.68 2.867 2.453 4.367 5.947 4.5 10.48.07 2 .1 3.49.1 4.48 0 .99 0 2.51-.1 4.43-.173 4.6-1.657 8.083-4.45 10.45-2.793 2.367-6.63 3.553-11.51 3.56-4.88 0-8.727-1.187-11.54-3.56zm15.81-5.79c1.184-1.389 1.792-3.177 1.7-5 .07-2 .1-3.41.1-4.27 0-.86 0-2.25-.1-4.17.094-1.823-.514-3.612-1.7-5-1.133-1.116-2.681-1.707-4.27-1.63-1.608-.084-3.177.506-4.33 1.63-1.182 1.39-1.79 3.178-1.7 5 0 1-.05 2.35-.05 4.17 0 1.82 0 3.28.05 4.27-.088 1.822.52 3.61 1.7 5 1.156 1.117 2.725 1.703 4.33 1.62 1.587.076 3.133-.51 4.27-1.62zM266.1 41.76c-.248-.234-.39-.56-.39-.9V7.43c-.02-.368.11-.73.36-1 .238-.26.578-.402.93-.39h24c.357-.008.702.133.95.39.268.262.41.626.39 1v5.46c.012.352-.13.692-.39.93-.257.24-.598.37-.95.36h-15.81v7.16h14.73c.357-.005.701.134.954.386.252.253.391.597.386.954v5.46c.01.349-.132.685-.39.92-.257.24-.598.37-.95.36h-14.73v11.44c.002.335-.128.658-.36.9-.243.252-.58.39-.93.38H267c-.339-.002-.663-.138-.9-.38zM298.08 41.76c-.248-.234-.39-.56-.39-.9V7.43c-.02-.368.11-.73.36-1 .24-.258.578-.4.93-.39h23.95c.357-.008.702.133.95.39.268.262.41.626.39 1v5.46c.012.352-.13.692-.39.93-.257.24-.598.37-.95.36h-15.76v7.16h14.73c.357-.005.701.134.954.386.252.253.391.597.386.954v5.46c.01.349-.132.685-.39.92-.27.253-.631.383-1 .36h-14.68v11.44c.002.335-.128.658-.36.9-.243.252-.58.39-.93.38H299c-.346.004-.678-.133-.92-.38zM329.55 41.76c-.248-.234-.39-.56-.39-.9v-6.65c-.008-.357.133-.702.39-.95.23-.252.558-.394.9-.39h6.64c.34 0 .666.142.9.39.257.248.398.593.39.95v6.65c.002.335-.128.658-.36.9-.243.252-.58.39-.93.38h-6.64c-.34.003-.665-.135-.9-.38zm.15-11.64c-.268-.262-.41-.626-.39-1V7.38c-.012-.352.13-.692.39-.93.258-.238.599-.367.95-.36h6.23c.368-.02.73.11 1 .36.252.243.39.58.38.93v21.79c.019.372-.119.735-.38 1-.263.264-.628.403-1 .38h-6.23c-.363-.003-.708-.16-.95-.43z" transform="translate(25 56)"/>
        </g>
        <g fill="#F99026">
            <path d="M.55 15.58c-.1-.089-.154-.217-.15-.35V1.56c-.009-.14.042-.279.14-.38.086-.112.219-.178.36-.18H10c.142-.004.28.05.38.15.094.104.144.24.14.38v1.51c.003.13-.048.257-.14.35-.1.1-.238.154-.38.15H3.32v4h6.3c.142-.004.28.05.38.15.092.093.143.22.14.35v1.52c0 .13-.05.256-.14.35-.1.1-.238.154-.38.15h-6.3v5.19c.004.133-.05.261-.15.35-.1.102-.238.156-.38.15H.9c-.136 0-.265-.063-.35-.17zM13.19 15.58c-.1-.089-.154-.217-.15-.35V1.53c-.006-.136.05-.268.15-.36.098-.091.226-.141.36-.14h2c.137-.006.271.044.37.14.094.096.145.226.14.36v13.7c.003.13-.048.257-.14.35-.095.103-.23.157-.37.15h-2c-.136.002-.266-.052-.36-.15zM19.49 15.58c-.1-.089-.154-.217-.15-.35V1.56c-.004-.14.046-.276.14-.38.095-.103.23-.157.37-.15h5.43c1.432-.074 2.845.35 4 1.2.992.843 1.532 2.1 1.46 3.4.03.913-.229 1.813-.74 2.57-.49.7-1.19 1.227-2 1.5l3 5.36c.037.071.058.15.06.23.006.12-.046.236-.14.31-.078.083-.186.13-.3.13h-1.89c-.19.013-.379-.044-.53-.16-.135-.114-.247-.253-.33-.41l-2.69-5H22.3v5c.003.13-.048.257-.14.35-.1.1-.238.154-.38.15h-1.93c-.126.021-.255-.007-.36-.08zm5.73-7.79c.676.052 1.348-.143 1.89-.55.44-.424.67-1.02.63-1.63.027-.602-.202-1.187-.63-1.61-.536-.422-1.21-.629-1.89-.58H22.3v4.41l2.92-.04zM35.38 15.37c-.788-.308-1.48-.823-2-1.49-.446-.575-.704-1.273-.74-2-.002-.117.045-.23.13-.31.08-.087.193-.134.31-.13H35c.134-.008.267.027.38.1.108.082.202.18.28.29.155.505.494.933.95 1.2.624.351 1.335.518 2.05.48.768.053 1.536-.117 2.21-.49.474-.283.76-.798.75-1.35.009-.355-.129-.699-.38-.95-.33-.297-.718-.522-1.14-.66-.51-.19-1.27-.42-2.28-.68-1.312-.24-2.553-.772-3.63-1.56C33.369 7.122 32.927 6.075 33 5c-.012-.776.223-1.536.67-2.17.487-.67 1.152-1.19 1.92-1.5.921-.384 1.912-.571 2.91-.55 1.033-.024 2.058.185 3 .61.774.362 1.441.916 1.94 1.61.406.525.65 1.158.7 1.82 0 .112-.043.219-.12.3-.082.09-.198.14-.32.14h-2c-.27.022-.523-.131-.63-.38-.093-.477-.393-.888-.82-1.12-.535-.315-1.15-.47-1.77-.45-.634-.038-1.264.115-1.81.44-.427.27-.682.745-.67 1.25-.012.344.106.68.33.94.289.305.65.532 1.05.66.68.256 1.375.473 2.08.65 1.031.202 2.038.518 3 .94.655.281 1.219.738 1.63 1.32.362.603.542 1.297.52 2 .023.847-.237 1.678-.74 2.36-.54.7-1.269 1.23-2.1 1.53-1.007.361-2.07.537-3.14.52-1.11.036-2.214-.151-3.25-.55zM50.21 15.58c-.1-.089-.154-.217-.15-.35V3.66h-3.88c-.136.002-.266-.052-.36-.15-.1-.1-.154-.238-.15-.38V1.56c-.004-.14.046-.276.14-.38.096-.101.23-.156.37-.15h10.73c.142-.004.28.05.38.15.102.1.156.238.15.38v1.57c.006.142-.048.28-.149.381-.1.1-.239.155-.381.149h-3.86v11.57c.003.13-.048.257-.14.35-.095.103-.23.157-.37.15h-2c-.125-.006-.243-.06-.33-.15zM66.72 15.58c-.1-.089-.154-.217-.15-.35V3.66h-3.88c-.136.002-.266-.052-.36-.15-.1-.1-.154-.238-.15-.38V1.56c-.004-.14.046-.276.14-.38.095-.103.23-.157.37-.15h10.73c.14-.006.274.049.37.15.102.1.156.238.15.38v1.57c.004.142-.05.28-.15.38-.096.101-.23.156-.37.15h-3.87v11.57c.006.13-.041.256-.13.35-.097.1-.231.154-.37.15h-2c-.126-.004-.244-.058-.33-.15zM76.21 15.58c-.1-.089-.154-.217-.15-.35V1.53c-.006-.136.05-.268.15-.36.098-.091.226-.141.36-.14h2c.137-.006.271.044.37.14.094.096.145.226.14.36v13.7c.003.13-.048.257-.14.35-.095.103-.23.157-.37.15h-2c-.136.002-.266-.052-.36-.15zM82.51 15.58c-.1-.089-.154-.217-.15-.35V1.56c-.004-.14.046-.276.14-.38.095-.103.23-.157.37-.15h1.7c.269.003.513.158.63.4L89.25 9l4.05-7.52c.117-.242.361-.397.63-.4h1.68c.142-.006.28.048.381.149.1.1.155.239.149.381v13.62c.006.136-.05.268-.15.36-.104.094-.24.144-.38.14h-1.8c-.136.002-.266-.052-.36-.15-.1-.089-.154-.217-.15-.35v-9l-2.92 5.54c-.112.282-.387.465-.69.46h-.88c-.307-.006-.585-.184-.72-.46l-2.91-5.54v9c.003.13-.048.257-.14.35-.095.103-.23.157-.37.15h-1.8c-.136.002-.266-.052-.36-.15zM99.56 15.58c-.1-.089-.154-.217-.15-.35V1.56c-.004-.14.046-.276.14-.38.095-.103.23-.157.37-.15h9.26c.142-.004.28.05.38.15.094.104.144.24.14.38V3c.006.137-.044.271-.14.37-.105.092-.24.142-.38.14h-6.89v3.67h6.43c.14-.006.274.049.37.15.102.1.156.238.15.38V9c.006.14-.049.274-.15.37-.101.09-.234.138-.37.13h-6.43v3.8h7.06c.137-.005.27.045.37.14.103.095.157.23.15.37v1.43c.006.136-.05.268-.15.36-.1.095-.233.145-.37.14h-9.43c-.137 0-.268-.059-.36-.16zM120.2 15.14l-4.49-13.48c-.013-.063-.013-.127 0-.19-.003-.115.04-.227.12-.31.083-.087.2-.135.32-.13H118c.16-.008.318.046.44.15.1.083.18.19.23.31l3.51 10.75 3.53-10.75c.03-.125.105-.235.21-.31.122-.105.28-.159.44-.15h1.89c.239.01.43.201.44.44v.19l-4.48 13.48c-.102.364-.442.609-.82.59H121c-.372.017-.706-.23-.8-.59zM131.06 15.58c-.1-.089-.154-.217-.15-.35V1.53c-.006-.136.05-.268.15-.36.098-.091.226-.141.36-.14h2c.137-.006.271.044.37.14.094.096.145.226.14.36v13.7c.003.13-.048.257-.14.35-.095.103-.23.157-.37.15h-2c-.136.002-.266-.052-.36-.15zM139.1 15.37c-.788-.308-1.48-.823-2-1.49-.45-.573-.709-1.272-.74-2-.002-.117.045-.23.13-.31.08-.087.193-.134.31-.13h1.91c.134-.008.267.027.38.1.107.08.199.178.27.29.17.512.527.941 1 1.2.624.351 1.335.518 2.05.48.768.053 1.536-.117 2.21-.49.474-.283.76-.798.75-1.35.009-.355-.129-.699-.38-.95-.33-.297-.718-.522-1.14-.66-.52-.19-1.28-.42-2.28-.68-1.316-.237-2.56-.77-3.64-1.56-.834-.691-1.287-1.74-1.22-2.82-.012-.776.223-1.536.67-2.17.487-.67 1.152-1.19 1.92-1.5.92-.385 1.912-.572 2.91-.55 1.033-.027 2.06.182 3 .61.776.363 1.446.917 1.95 1.61.406.525.65 1.158.7 1.82 0 .114-.047.222-.13.3-.077.09-.191.142-.31.14h-2c-.27.019-.521-.133-.63-.38-.089-.479-.39-.89-.82-1.12-1.12-.594-2.46-.594-3.58 0-.433.278-.684.766-.66 1.28-.013.346.109.683.34.94.289.305.65.532 1.05.66.68.257 1.375.474 2.08.65 1.03.205 2.036.52 3 .94.653.284 1.217.74 1.63 1.32.362.603.542 1.297.52 2 .019.847-.241 1.676-.74 2.36-.54.7-1.269 1.23-2.1 1.53-1.007.36-2.07.537-3.14.52-1.119.025-2.23-.175-3.27-.59zM150.86 15.58c-.096-.09-.147-.218-.14-.35V1.53c-.01-.135.042-.267.14-.36.098-.091.226-.141.36-.14h2c.134-.006.265.045.36.14.095.095.146.226.14.36v13.7c.003.13-.048.257-.14.35-.092.1-.224.156-.36.15h-2c-.136.002-.266-.052-.36-.15zM160.4 15.58c-.1-.089-.154-.217-.15-.35V3.66h-3.88c-.136.003-.267-.051-.36-.15-.1-.1-.154-.238-.15-.38V1.56c-.004-.14.046-.276.14-.38.095-.103.23-.157.37-.15h10.73c.14-.006.274.049.37.15.102.1.156.238.15.38v1.57c.004.142-.05.28-.15.38-.096.101-.23.156-.37.15h-3.87v11.57c.006.13-.041.256-.13.35-.097.1-.231.154-.37.15h-2c-.126-.004-.244-.058-.33-.15zM169.89 15.58c-.1-.089-.154-.217-.15-.35V1.53c-.006-.136.05-.268.15-.36.098-.091.226-.141.36-.14h2c.137-.006.271.044.37.14.094.096.145.226.14.36v13.7c.003.13-.048.257-.14.35-.095.103-.23.157-.37.15h-2c-.136.002-.266-.052-.36-.15zM176.19 15.58c-.1-.089-.154-.217-.15-.35V1.56c-.004-.14.046-.276.14-.38.095-.103.23-.157.37-.15h1.63c.256-.009.494.132.61.36l6 9.32V1.56c-.008-.139.038-.275.13-.38.097-.1.231-.154.37-.15h1.81c.142-.004.28.05.38.15.094.104.144.24.14.38v13.65c.005.137-.045.27-.14.37-.094.098-.224.152-.36.15h-1.66c-.262.011-.507-.129-.63-.36l-6-9.11v9c0 .134-.054.263-.15.357-.096.094-.226.146-.36.143h-1.8c-.13-.014-.248-.079-.33-.18zM192.12 14.45c-1.118-1.092-1.737-2.597-1.71-4.16V8.34v-2c-.029-1.545.596-3.03 1.72-4.09 1.254-1.046 2.86-1.575 4.49-1.48 1.145-.03 2.283.196 3.33.66.829.363 1.554.927 2.11 1.64.44.55.704 1.218.76 1.92 0 .12-.047.234-.13.32-.093.084-.215.127-.34.12h-2.2c-.112.006-.224-.022-.32-.08-.08-.077-.145-.168-.19-.27-.196-.532-.544-.994-1-1.33-.592-.389-1.293-.578-2-.54-.84-.05-1.665.23-2.3.78-.604.669-.917 1.55-.87 2.45v3.7c-.05.92.267 1.822.88 2.51.635.559 1.465.846 2.31.8.87.044 1.726-.238 2.4-.79.644-.625.974-1.506.9-2.4v-.65h-2.56c-.136.002-.266-.052-.36-.15-.1-.089-.154-.217-.15-.35V8c-.004-.133.05-.261.15-.35.094-.098.224-.152.36-.15h5c.142-.004.28.05.38.15.092.093.143.22.14.35v2.23c.019 1.051-.248 2.088-.77 3-.523.87-1.292 1.566-2.21 2-1.047.48-2.189.716-3.34.69-1.626.1-3.23-.426-4.48-1.47zM211.85 14.49c-1.132-1.169-1.708-2.768-1.58-4.39V1.56c-.004-.14.046-.276.14-.38.092-.1.224-.156.36-.15h1.94c.142-.004.28.05.38.15.094.104.144.24.14.38v8.54c-.07.904.214 1.8.79 2.5 1.279 1.121 3.191 1.121 4.47 0 .576-.7.86-1.596.79-2.5V1.56c-.006-.142.048-.28.15-.38.096-.101.23-.156.37-.15h1.94c.136-.006.268.05.36.15.098.101.149.24.14.38v8.54c.13 1.619-.438 3.216-1.56 4.39-2.626 1.932-6.204 1.932-8.83 0zM227.28 15.37c-.788-.31-1.478-.824-2-1.49-.443-.576-.698-1.274-.73-2-.001-.115.042-.226.12-.31.083-.087.2-.135.32-.13h1.91c.134-.007.267.028.38.1.107.08.199.178.27.29.17.512.527.941 1 1.2.609.344 1.302.51 2 .48.772.055 1.543-.115 2.22-.49.474-.283.76-.798.75-1.35.009-.355-.129-.699-.38-.95-.333-.297-.725-.522-1.15-.66-.51-.19-1.27-.42-2.28-.68-1.341-.23-2.61-.768-3.71-1.57-.79-.71-1.2-1.751-1.11-2.81-.012-.776.223-1.536.67-2.17.487-.67 1.152-1.19 1.92-1.5.92-.386 1.912-.574 2.91-.55 1.033-.027 2.06.182 3 .61.774.362 1.441.916 1.94 1.61.413.522.66 1.156.71 1.82-.01.239-.201.43-.44.44h-2c-.27.022-.523-.131-.63-.38-.089-.479-.39-.89-.82-1.12-1.12-.594-2.46-.594-3.58 0-.433.278-.684.766-.66 1.28-.013.346.109.683.34.94.289.305.65.532 1.05.66.68.257 1.375.474 2.08.65 1.03.205 2.036.52 3 .94.645.265 1.205.7 1.62 1.26.37.6.554 1.296.53 2 .02.848-.244 1.68-.75 2.36-.536.704-1.266 1.236-2.1 1.53-1.007.362-2.07.538-3.14.52-1.111.045-2.22-.136-3.26-.53zM241.94 11.64c-.083-.078-.13-.186-.13-.3v-.67c.057-.624.274-1.224.63-1.74.432-.602.918-1.164 1.45-1.68.398-.366.769-.76 1.11-1.18.224-.289.36-.636.39-1 .076-.52-.134-1.04-.55-1.36-.443-.34-.991-.517-1.55-.5-1.225-.106-2.314.779-2.46 2-.054.288-.307.495-.6.49h-1.83c-.133.004-.261-.05-.35-.15-.09-.106-.136-.241-.13-.38.024-.772.266-1.521.7-2.16.475-.705 1.131-1.268 1.9-1.63 1.842-.806 3.932-.827 5.79-.06.668.303 1.234.793 1.63 1.41.337.537.517 1.157.52 1.79.014.641-.149 1.274-.47 1.83-.415.633-.883 1.228-1.4 1.78-.36.388-.694.799-1 1.23-.242.326-.409.702-.49 1.1-.06.35-.1.59-.11.72-.053.146-.13.281-.23.4-.099.087-.229.13-.36.12h-2.08c-.129.04-.27.019-.38-.06zm-.11 3.94c-.092-.093-.143-.22-.14-.35v-1.87c-.001-.134.049-.262.14-.36.094-.098.224-.152.36-.15h2.08c.138 0 .27.054.37.15.1.093.158.223.16.36v1.87c.004.133-.05.261-.15.35-.1.1-.238.154-.38.15h-2.08c-.136.002-.266-.052-.36-.15z" transform="translate(71 25)"/>
        </g>
        <path fill="#7A7A7A" d="M374.37 192.16s7.05-4.09 9.1-10.51c1.21-3.76 1.31-4.61 4-4 2 .45 1.59 3 1.59 3-1.136 3.75-3.006 7.238-5.5 10.26-2.25 2.78-7.24 5.82-7.24 5.82s-2.49.76-3.26-.69c-.416-.674-.51-1.498-.257-2.248.254-.75.828-1.348 1.567-1.632zM381.29 14.32c1.534 2.214 2.637 4.697 3.25 7.32.499 3.177.647 6.4.44 9.61 0 0-.06 3.09 2.44 3 1.432-.086 2.536-1.296 2.49-2.73 0 0 .36-7.08-.68-11.56-.818-3.01-2.086-5.879-3.76-8.51-.86-.943-2.255-1.17-3.37-.55-1.79 1.1-.81 3.42-.81 3.42zM342.57 0h22.26s6.47.06 11.57 3.26c.871.737 1.138 1.968.65 3-.87 1.85-2.39 1.52-3.37 1.2-.98-.32-5.48-2.77-10.26-2.46h-20.85s-2.5-.33-2.5-2.45 2.5-2.55 2.5-2.55z"/>
    </g>
</svg>
