<svg xmlns="http://www.w3.org/2000/svg" width="260" height="134" viewBox="0 0 260 134">
    <g fill="none">
        <rect width="260" height="133.333" fill="#155613" rx="26.53"/>
        <g fill="#FFF">
            <path d="M3.133 9.133c-.05-.052-.076-.121-.073-.193V1.42H.667c-.072.004-.142-.023-.193-.074-.051-.05-.078-.12-.074-.193V.967C.399.893.425.822.473.767.52.705.59.668.667.667H6.24c.076-.004.15.022.207.073.05.057.076.131.073.207v.186c.003.073-.026.144-.08.194-.055.048-.126.074-.2.073h-2.4v7.52c.003.072-.024.141-.073.193-.057.05-.131.076-.207.074h-.227c-.07.008-.142-.011-.2-.054zM7.64 9.133c-.052-.05-.08-.12-.073-.193V.833C7.56.761 7.587.69 7.64.64c.052-.05.122-.076.193-.073h.207c.072-.004.142.023.193.073.05.051.078.121.074.193V3.72c.218-.3.504-.547.833-.72.38-.174.796-.256 1.213-.24.696-.042 1.372.238 1.834.76.455.55.692 1.247.666 1.96v3.46c.004.072-.023.142-.073.193-.051.05-.121.078-.193.074h-.207c-.074.001-.145-.025-.2-.074-.048-.052-.072-.122-.067-.193V5.547c.034-.554-.14-1.1-.486-1.534-.355-.38-.862-.58-1.38-.546-.525-.025-1.034.177-1.4.553-.367.42-.554.97-.52 1.527V8.94c.004.072-.023.142-.074.193-.051.05-.121.078-.193.074h-.207c-.078.008-.156-.019-.213-.074zM14.667 1.507c-.05-.055-.077-.127-.074-.2v-.46c.004-.067.03-.13.074-.18.05-.054.12-.083.193-.08h.473c.075-.002.147.027.2.08.053.053.082.125.08.2v.466c.004.075-.025.148-.08.2-.055.049-.126.075-.2.074h-.466c-.078-.004-.15-.04-.2-.1zm.133 7.626c-.05-.052-.076-.121-.073-.193V3.147c-.003-.072.024-.142.073-.194.054-.05.126-.076.2-.073h.207c.071-.001.14.025.193.073.05.052.076.122.073.194V8.94c.003.072-.024.141-.073.193-.053.049-.122.075-.193.074H15c-.07 0-.136-.027-.187-.074H14.8zM18.133 9.06c-.313-.141-.593-.348-.82-.607-.144-.15-.24-.34-.273-.546 0-.07.032-.136.087-.18.052-.04.114-.063.18-.067h.186c.049 0 .097.011.14.033.05.034.094.077.127.127.173.246.401.447.667.587.325.16.685.233 1.046.213.417.016.83-.083 1.194-.287.295-.165.473-.482.46-.82.009-.195-.058-.386-.187-.533-.17-.167-.378-.29-.607-.36-.28-.1-.7-.213-1.246-.347-.547-.076-1.06-.307-1.48-.666-.269-.297-.41-.687-.394-1.087 0-.3.085-.594.247-.847.18-.286.437-.516.74-.666.37-.18.776-.267 1.187-.254.426-.013.85.071 1.24.247.292.133.55.332.753.58.136.148.222.334.247.533.002.07-.028.136-.08.18-.053.043-.119.067-.187.067h-.18c-.112.002-.216-.06-.267-.16-.144-.223-.335-.411-.56-.553-.3-.146-.633-.21-.966-.187-.378-.027-.754.074-1.067.287-.237.182-.374.467-.367.766-.009.175.043.347.147.487.146.168.335.292.547.36.379.143.769.255 1.166.333.578.088 1.126.317 1.594.667.314.288.485.7.466 1.127.003.326-.095.645-.28.913-.207.295-.494.526-.826.667-.423.171-.877.253-1.334.24-.446.017-.89-.067-1.3-.247zM27.027 8.553c-.483-.554-.746-1.265-.74-2v-1.02c-.006-.734.257-1.445.74-2 1.106-1.03 2.82-1.03 3.926 0 .483.555.746 1.266.74 2v1.02c.006.735-.257 1.446-.74 2-1.106 1.03-2.82 1.03-3.926 0zm3.333-.486c.38-.434.583-.996.567-1.574V6.04v-.447c.016-.577-.186-1.139-.567-1.573-.362-.378-.87-.58-1.393-.553-.523-.024-1.03.178-1.394.553-.376.436-.575.997-.56 1.573v.9c-.015.576.184 1.137.56 1.574.364.375.871.576 1.394.553.53.032 1.046-.17 1.413-.553h-.02zM33.953 9.133c-.05-.052-.076-.121-.073-.193V3.607H32.8c-.074.001-.145-.025-.2-.074-.048-.052-.072-.122-.067-.193v-.173c-.005-.071.02-.141.067-.194.055-.048.126-.074.2-.073h1.08v-.667c-.03-.515.11-1.026.4-1.453.369-.395.903-.593 1.44-.533h.667c.071-.003.141.024.193.073.05.054.076.126.073.2v.147c.003.071-.024.141-.073.193-.05.052-.121.08-.193.073h-.667c-.323-.038-.644.084-.86.327-.184.305-.268.659-.24 1.013v.634h2.667V2.24c-.03-.515.11-1.026.4-1.453.365-.396.898-.594 1.433-.534h.667c.071-.002.141.024.193.074.052.053.079.126.073.2v.14c.004.072-.023.142-.073.193-.051.05-.121.077-.193.073h-.667c-.321-.04-.64.083-.853.327-.184.305-.268.659-.24 1.013v.634h1.606c.072-.004.142.023.193.073.051.051.078.121.074.193v.16c.004.072-.023.142-.074.193-.05.051-.12.078-.193.074h-1.58v5.333c.004.072-.023.142-.073.193-.051.051-.121.078-.193.074h-.207c-.072.003-.141-.024-.193-.073-.053-.05-.08-.121-.074-.194V3.6h-2.666v5.333c.005.071-.02.141-.067.194-.055.048-.126.074-.2.073h-.207c-.08.012-.16-.012-.22-.067zM41.447 8.567c-.492-.57-.774-1.289-.8-2.04v-.974c.032-.737.311-1.441.793-2 .481-.534 1.175-.824 1.893-.793.761-.047 1.501.264 2 .84.49.663.726 1.478.667 2.3v.18c.003.073-.026.144-.08.193-.055.049-.126.075-.2.074h-4.333v.12c.016.369.104.731.26 1.066.15.318.38.591.666.794.295.199.645.301 1 .293.38.016.756-.074 1.087-.26.233-.133.437-.313.6-.527.046-.07.102-.133.167-.186.065-.016.134-.016.2 0h.193c.065-.003.13.018.18.06.05.037.077.097.073.16-.032.235-.145.452-.32.613-.252.266-.556.477-.893.62-.401.166-.833.246-1.267.233-.71.033-1.4-.247-1.886-.766zm3.813-2.9V5.62c.02-.564-.17-1.115-.533-1.547-.35-.4-.862-.622-1.394-.606-.537-.027-1.056.197-1.406.606-.357.435-.542.985-.52 1.547v.047h3.853zM47.68 9.133c-.052-.05-.08-.12-.073-.193V3.16c-.005-.074.022-.146.073-.2.05-.054.12-.083.193-.08h.194c.074-.002.147.027.2.08.053.053.082.125.08.2v.56c.335-.584.984-.913 1.653-.84h.453c.072-.004.142.023.193.074.051.05.078.12.074.193v.186c.004.072-.023.142-.074.193-.05.051-.12.078-.193.074h-.526c-.428-.032-.85.124-1.153.427-.304.304-.46.725-.427 1.153v3.773c.003.073-.026.144-.08.194-.055.048-.127.074-.2.073h-.194c-.073 0-.143-.032-.193-.087zM55.173 8.567c-.497-.566-.78-1.288-.8-2.04v-.974c.03-.737.31-1.443.794-2 .478-.518 1.162-.798 1.866-.766.761-.046 1.5.264 2 .84.504.657.755 1.473.707 2.3v.18c.006.072-.021.143-.073.193-.057.05-.131.076-.207.073h-4.327v.12c.01.37.099.734.26 1.067.15.317.38.59.667.793.293.198.64.3.993.294.38.018.757-.072 1.087-.26.235-.134.441-.313.607-.527.046-.068.1-.13.16-.187.068-.014.138-.014.206 0h.194c.065-.002.13.019.18.06.048.04.075.099.073.16-.033.236-.146.452-.32.614-.252.265-.556.477-.893.62-.408.178-.849.266-1.294.26-.717.02-1.407-.28-1.88-.82zm3.807-2.9V5.62c.023-.563-.165-1.115-.527-1.547-.357-.407-.879-.63-1.42-.606-.537-.025-1.056.198-1.406.606-.352.437-.535.986-.514 1.547v.047h3.867zM60.747 9.133c-.05-.044-.076-.107-.074-.173.005-.088.037-.172.094-.24l2.146-2.753-2.033-2.6c-.062-.068-.097-.155-.1-.247.002-.063.028-.123.073-.167.046-.047.108-.073.174-.073h.253c.058-.004.116.01.167.04l.14.14 1.82 2.353 1.826-2.34.06-.073c.032-.036.07-.066.114-.087.04-.025.086-.036.133-.033h.24c.065 0 .128.026.173.073.046.044.072.104.074.167-.003.092-.038.18-.1.247l-2.054 2.666 2.14 2.714c.061.065.097.15.1.24 0 .065-.026.128-.073.173-.046.046-.108.072-.173.073h-.254c-.125-.006-.24-.073-.306-.18l-1.92-2.46-1.927 2.46c-.043.05-.09.097-.14.14-.047.031-.104.045-.16.04h-.247c-.067-.008-.127-.044-.166-.1zM67.827 8.593c-.492-.574-.754-1.31-.734-2.066v-.974c-.019-.753.243-1.487.734-2.06.518-.514 1.231-.78 1.96-.733.46-.009.917.09 1.333.287.344.159.637.41.847.726.18.275.283.593.3.92.012.07-.013.14-.067.187-.054.051-.126.08-.2.08h-.167c-.064.004-.128-.015-.18-.053-.046-.061-.085-.129-.113-.2-.112-.384-.346-.721-.667-.96-.334-.2-.718-.296-1.106-.28-.518-.028-1.024.163-1.394.526-.384.452-.582 1.034-.553 1.627v.847c-.03.593.169 1.174.553 1.626.37.364.876.555 1.394.527.389.014.773-.085 1.106-.287.322-.235.556-.57.667-.953.028-.072.067-.139.113-.2.052-.038.116-.057.18-.053H72c.074 0 .146.029.2.08.054.046.079.117.067.186-.018.328-.122.645-.3.92-.21.317-.503.568-.847.727-.416.198-.873.296-1.333.287-.728.045-1.44-.222-1.96-.734zM74 9.133c-.05-.052-.076-.121-.073-.193V.833C73.923.761 73.95.691 74 .64c.051-.05.121-.077.193-.073h.207c.074-.003.146.023.2.073.05.052.076.122.073.193V8.94c.003.072-.024.141-.073.193-.054.05-.126.077-.2.074h-.207c-.071.002-.141-.024-.193-.074zM77.207 8.573c-.44-.57-.66-1.28-.62-2V3.12c-.006-.072.02-.143.073-.193.052-.05.122-.076.193-.074h.207c.072-.002.141.024.193.074.053.05.08.12.074.193v3.393c0 1.387.606 2.08 1.813 2.08.523.027 1.031-.175 1.393-.553.367-.42.554-.97.52-1.527V3.12c-.006-.072.021-.143.074-.193.052-.05.121-.076.193-.074h.207c.072-.004.142.023.193.074.05.051.077.121.073.193v5.793c.004.072-.023.142-.073.193-.051.051-.121.078-.193.074h-.194c-.071.003-.141-.024-.193-.073-.052-.05-.08-.121-.073-.194V8.34c-.226.294-.51.54-.834.72-.376.172-.786.254-1.2.24-.689.058-1.366-.21-1.826-.727zM84.113 8.467c-.431-.608-.664-1.335-.666-2.08V5.7c.003-.747.236-1.476.666-2.087.463-.591 1.191-.912 1.94-.853.798-.04 1.563.32 2.04.96V.833c-.002-.071.024-.141.074-.193.052-.048.122-.074.193-.073h.207c.073-.003.145.023.2.073.05.052.076.122.073.193V8.94c.003.072-.024.141-.073.193-.055.05-.127.077-.2.074h-.207c-.071 0-.14-.025-.193-.074-.05-.052-.076-.121-.074-.193v-.573c-.474.644-1.241 1.005-2.04.96-.75.06-1.48-.264-1.94-.86zm3.46-.48c.327-.436.509-.963.52-1.507v-.473-.474c-.004-.343-.082-.682-.226-.993-.15-.313-.38-.58-.667-.773-.32-.208-.698-.313-1.08-.3-.557-.047-1.1.188-1.447.626-.32.475-.492 1.034-.493 1.607v.34c-.025.648.124 1.29.433 1.86.334.5.915.777 1.514.72.554.039 1.092-.192 1.446-.62v-.013zM91.333 8.567c-.494-.567-.777-1.288-.8-2.04v-.974c.03-.737.31-1.443.794-2 .48-.516 1.162-.797 1.866-.766.761-.046 1.5.264 2 .84.506.656.76 1.472.714 2.3v.18c.003.073-.026.144-.08.193-.055.049-.127.075-.2.073h-4.334v.12c.01.37.099.734.26 1.067.15.317.38.59.667.793.293.198.64.3.993.294.382.016.76-.074 1.094-.26.233-.134.437-.313.6-.527.045-.07.102-.133.166-.187.066-.016.135-.016.2 0h.194c.065-.002.13.019.18.06.05.038.077.098.073.16-.033.236-.146.452-.32.614-.252.265-.556.477-.893.62-.408.178-.849.267-1.294.26-.717.018-1.405-.283-1.88-.82zm3.807-2.9V5.62c.023-.563-.165-1.115-.527-1.547-.357-.407-.879-.63-1.42-.606-.537-.025-1.056.198-1.406.606-.352.437-.535.986-.514 1.547v.047h3.867zM98.14 9.06c-.312-.141-.59-.348-.813-.607-.149-.148-.247-.34-.28-.546 0-.07.032-.136.086-.18.054-.041.12-.064.187-.067h.18c.049-.001.097.01.14.033.052.032.095.075.127.127.172.246.4.447.666.587.327.16.69.234 1.054.213.423.02.844-.079 1.213-.287.297-.164.477-.48.467-.82.006-.196-.063-.387-.194-.533-.17-.167-.378-.29-.606-.36-.28-.1-.667-.213-1.247-.347-.546-.079-1.059-.31-1.48-.666-.463-.545-.523-1.326-.147-1.934.182-.287.44-.518.747-.666.369-.18.776-.268 1.187-.254.424-.013.846.071 1.233.247.292.133.55.332.753.58.136.148.222.334.247.533.002.07-.027.136-.08.18-.052.044-.118.068-.187.067h-.18c-.112.002-.215-.06-.266-.16-.142-.222-.331-.411-.554-.553-.3-.146-.633-.21-.966-.187-.38-.028-.759.073-1.074.287-.237.182-.373.467-.366.766-.01.175.043.347.146.487.147.166.336.29.547.36.379.143.77.255 1.167.333.578.086 1.126.315 1.593.667.315.288.486.7.467 1.127.002.326-.095.645-.28.913-.207.297-.493.528-.827.667-.423.172-.877.253-1.333.24-.456.02-.91-.064-1.327-.247zM107.027 8.593c-.492-.574-.754-1.31-.734-2.066v-.974c-.019-.753.243-1.487.734-2.06.518-.514 1.231-.78 1.96-.733.472-.015.94.083 1.366.287.345.159.638.41.847.726.179.276.284.593.307.92.006.07-.022.14-.074.187-.054.051-.125.08-.2.08h-.166c-.065.004-.129-.015-.18-.053-.047-.061-.085-.129-.114-.2-.112-.384-.346-.721-.666-.96-.334-.2-.719-.296-1.107-.28-.518-.028-1.023.163-1.393.526-.385.452-.583 1.034-.554 1.627v.847c-.029.593.169 1.174.554 1.626.37.364.875.555 1.393.527.389.014.774-.085 1.107-.287.321-.235.556-.57.666-.953.029-.072.067-.139.114-.2.051-.038.115-.057.18-.053h.166c.075 0 .146.029.2.08.052.047.08.116.074.186-.024.328-.13.644-.307.92-.21.317-.502.568-.847.727-.426.203-.894.301-1.366.287-.728.045-1.44-.222-1.96-.734zM113.553 8.553c-.483-.553-.744-1.265-.733-2v-1.02c-.011-.734.25-1.446.733-2 1.109-1.031 2.825-1.031 3.934 0 .477.557.738 1.267.733 2v1.02c.005.734-.256 1.444-.733 2-1.109 1.032-2.825 1.032-3.934 0zm3.334-.486c.378-.436.58-.997.566-1.574V6.04v-.447c.014-.576-.188-1.137-.566-1.573-.776-.754-2.011-.754-2.787 0-.378.436-.58.997-.567 1.573v.9c-.013.577.19 1.138.567 1.574.776.753 2.01.753 2.787 0zM120 9.133c-.052-.05-.08-.12-.073-.193V3.147c-.006-.073.02-.144.073-.194.052-.05.122-.076.193-.073h.207c.072-.004.142.023.193.074.05.05.078.12.074.193v.426c.195-.255.445-.463.733-.606.315-.146.66-.217 1.007-.207.821-.057 1.594.395 1.946 1.14.196-.35.484-.638.834-.833.376-.21.802-.316 1.233-.307.62-.027 1.22.216 1.647.667.452.546.678 1.245.633 1.953v3.54c.003.072-.024.141-.073.193-.055.05-.127.077-.2.074h-.207c-.071 0-.14-.025-.193-.074-.05-.052-.076-.121-.074-.193V5.5c.054-.565-.108-1.13-.453-1.58-.314-.321-.75-.493-1.2-.473-.43-.004-.842.17-1.14.48-.361.44-.534 1.006-.48 1.573v3.42c.006.072-.021.143-.073.193-.052.05-.122.076-.194.074h-.206c-.072.004-.142-.023-.193-.074-.051-.051-.078-.121-.074-.193V5.5c.053-.566-.117-1.13-.473-1.573-.31-.316-.738-.49-1.18-.48-.43-.004-.843.17-1.14.48-.36.436-.533.997-.48 1.56V8.92c.004.072-.023.142-.074.193-.051.05-.121.078-.193.074h-.207c-.069.008-.138-.011-.193-.054zM130.667 9.133c-.05-.052-.076-.121-.074-.193V3.147c-.004-.072.023-.142.074-.193.051-.051.121-.078.193-.074h.207c.073-.001.145.025.2.073.047.053.071.123.066.194v.426c.198-.255.45-.463.74-.606.313-.146.655-.217 1-.207.822-.057 1.595.395 1.947 1.14.198-.348.486-.636.833-.833.38-.21.807-.316 1.24-.307.618-.028 1.218.215 1.64.667.452.546.679 1.245.634 1.953v3.54c.004.072-.023.142-.074.193-.051.05-.121.078-.193.074h-.207c-.071.002-.141-.024-.193-.074-.052-.05-.08-.12-.073-.193V5.5c.055-.566-.11-1.132-.46-1.58-.648-.635-1.686-.635-2.334 0-.36.44-.533 1.006-.48 1.573v3.42c.003.072-.024.142-.073.194-.053.048-.122.074-.193.073h-.207c-.074.003-.146-.023-.2-.073-.05-.052-.076-.122-.073-.194v-3.42c.055-.566-.115-1.131-.474-1.573-.308-.319-.736-.493-1.18-.48-.428-.004-.838.17-1.133.48-.362.435-.537.996-.487 1.56v3.433c.005.071-.019.141-.066.194-.055.048-.127.074-.2.073h-.207c-.068.01-.137-.007-.193-.047zM141.747 8.567c-.492-.57-.774-1.289-.8-2.04v-.974c.034-.737.316-1.442.8-2 .478-.519 1.161-.8 1.866-.766.761-.047 1.501.263 2 .84.506.656.76 1.472.714 2.3v.18c.003.073-.026.144-.08.193-.055.049-.127.075-.2.073h-4.334v.12c.015.37.106.733.267 1.067.149.318.379.592.667.793.295.198.644.3 1 .294.38.018.756-.072 1.086-.26.234-.134.438-.313.6-.527.046-.07.102-.133.167-.187.066-.016.134-.016.2 0h.193c.068-.001.133.02.187.06.048.04.075.099.073.16-.032.237-.148.454-.326.614-.252.265-.556.477-.894.62-.405.178-.844.266-1.286.26-.724.023-1.42-.278-1.9-.82zm3.813-2.9V5.62c.02-.564-.17-1.115-.533-1.547-.355-.406-.875-.63-1.414-.606-.537-.025-1.056.198-1.406.606-.357.435-.542.985-.52 1.547v.047h3.873zM148 9.133c-.052-.05-.08-.12-.073-.193V3.16c-.005-.074.022-.146.073-.2.05-.054.12-.083.193-.08h.194c.074-.002.147.027.2.08.053.053.082.125.08.2v.56c.335-.584.984-.913 1.653-.84h.453c.072-.004.142.023.193.074.051.05.078.12.074.193v.186c.004.072-.023.142-.074.193-.05.051-.12.078-.193.074h-.526c-.428-.032-.85.124-1.153.427-.304.304-.46.725-.427 1.153v3.773c.003.073-.026.144-.08.194-.055.048-.127.074-.2.073h-.194c-.073 0-.143-.032-.193-.087zM152.433 8.593c-.494-.572-.756-1.31-.733-2.066v-.974c-.022-.754.24-1.489.733-2.06.518-.514 1.232-.78 1.96-.733.472-.014.94.084 1.367.287.343.16.636.412.847.726.18.275.283.593.3.92.012.071-.016.143-.074.187-.05.052-.12.08-.193.08h-.167c-.064.005-.128-.014-.18-.053-.046-.061-.085-.129-.113-.2-.117-.382-.35-.717-.667-.96-.334-.197-.718-.295-1.106-.28-.518-.028-1.024.163-1.394.526-.384.452-.582 1.034-.553 1.627v.847c-.03.593.169 1.174.553 1.626.37.364.876.555 1.394.527.389.014.773-.085 1.106-.287.318-.239.552-.573.667-.953.028-.072.067-.139.113-.2.052-.039.116-.058.18-.053h.194c.072-.001.142.028.193.08.057.043.086.115.073.186-.018.328-.121.645-.3.92-.21.315-.503.566-.846.727-.427.203-.895.301-1.367.287-.737.053-1.46-.215-1.987-.734zM158.453 1.507c-.05-.055-.076-.127-.073-.2v-.46c-.001-.074.025-.145.073-.2.05-.054.12-.084.194-.08h.466c.075-.002.147.027.2.08.053.053.082.125.08.2v.486c.004.075-.025.148-.08.2-.055.049-.126.075-.2.074h-.446c-.083.001-.162-.036-.214-.1zm.134 7.626c-.05-.052-.076-.121-.074-.193V3.147c-.002-.072.024-.142.074-.194.052-.048.122-.074.193-.073h.207c.073-.003.145.023.2.073.05.052.076.122.073.194V8.94c.003.072-.024.141-.073.193-.055.05-.127.077-.2.074h-.207c-.071 0-.14-.025-.193-.074zM161.847 9.087c-.316-.153-.59-.382-.794-.667-.196-.264-.302-.584-.3-.913-.01-.527.239-1.026.667-1.334.513-.376 1.12-.607 1.753-.666l1.927-.274v-.42c.021-.387-.127-.764-.407-1.033-.361-.265-.806-.39-1.253-.353-.353-.015-.704.068-1.013.24-.234.128-.414.336-.507.586-.02.075-.06.144-.113.2-.05.037-.112.056-.174.054h-.173c-.146-.004-.263-.121-.267-.267.018-.228.101-.445.24-.627.197-.269.459-.484.76-.626.388-.189.816-.28 1.247-.267.678-.07 1.354.156 1.853.62.367.415.562.953.547 1.507V8.9c.004.072-.023.142-.074.193-.05.05-.12.078-.193.074h-.24c-.071.002-.141-.024-.193-.074-.052-.05-.08-.12-.073-.193v-.573c-.205.282-.475.511-.787.666-.426.205-.895.3-1.367.28-.365.018-.729-.046-1.066-.186zm2.666-1.047c.407-.462.613-1.066.574-1.68v-.413l-1.574.22c-.53.043-1.043.2-1.506.46-.308.163-.504.478-.514.826-.01.353.171.685.474.867.816.486 1.855.372 2.546-.28zM167.833 9.133c-.05-.052-.076-.121-.073-.193V.833c-.004-.072.023-.142.074-.193.05-.05.12-.077.193-.073h.206c.074-.003.146.023.2.073.05.052.076.122.074.193V8.94c.002.072-.024.141-.074.193-.054.05-.126.077-.2.074H168c-.062-.004-.121-.03-.167-.074zM175.013 8.9l-2.24-5.64v-.14c0-.062.023-.122.067-.167.046-.045.108-.072.173-.073h.254c.065-.003.13.019.18.06.037.033.067.074.086.12l2.06 5.26 2.054-5.26c.022-.046.054-.087.093-.12.05-.041.115-.063.18-.06h.253c.064 0 .124.027.167.073.048.042.075.103.073.167v.14l-2.24 5.64c-.064.196-.254.323-.46.307h-.2c-.22.037-.433-.094-.5-.307zM180.087 8.567c-.495-.567-.778-1.288-.8-2.04v-.974c.029-.737.308-1.443.793-2 .479-.518 1.162-.798 1.867-.766.76-.046 1.5.264 2 .84.506.656.759 1.472.713 2.3v.18c.003.073-.026.144-.08.193-.055.049-.126.075-.2.073H180v.12c.01.37.098.734.26 1.067.15.317.38.59.667.793.293.198.64.3.993.294.381.016.76-.074 1.093-.26.234-.134.438-.313.6-.527.046-.07.102-.133.167-.187.066-.016.134-.016.2 0h.193c.066-.002.13.019.18.06.05.038.077.098.074.16-.033.236-.146.452-.32.614-.252.265-.556.477-.894.62-.407.178-.848.267-1.293.26-.7.004-1.37-.295-1.833-.82zm3.806-2.9V5.62c.023-.563-.165-1.115-.526-1.547-.357-.407-.88-.63-1.42-.606-.538-.025-1.057.198-1.407.606-.352.437-.534.986-.513 1.547v.047h3.866zM186.327 9.133c-.05-.052-.076-.121-.074-.193V.833c-.004-.072.023-.142.074-.193.051-.05.121-.077.193-.073h.207c.073-.003.145.023.2.073.05.052.076.122.073.193V3.72c.219-.3.504-.547.833-.72.378-.174.791-.257 1.207-.24.697-.041 1.375.239 1.84.76.453.55.69 1.247.667 1.96v3.46c.005.07-.02.14-.067.193-.054.05-.126.077-.2.074h-.207c-.072.004-.142-.023-.193-.074-.05-.051-.077-.121-.073-.193V5.547c.035-.553-.136-1.1-.48-1.534-.355-.38-.862-.58-1.38-.546-.525-.027-1.036.174-1.4.553-.367.42-.554.97-.52 1.527V8.94c.002.072-.024.141-.074.193-.054.05-.126.077-.2.074h-.206c-.081.01-.162-.017-.22-.074zM193.375 1.507c-.051-.055-.078-.127-.075-.2v-.46c-.002-.074.025-.145.075-.2.05-.054.122-.084.197-.08h.442c.079-.004.155.025.21.08.05.055.077.126.076.2v.486c.002.074-.024.146-.075.2-.059.05-.134.076-.211.074h-.47c-.067-.012-.127-.047-.17-.1zm.136 7.626c-.05-.052-.078-.121-.075-.193V3.147c-.004-.072.023-.142.075-.193.052-.051.124-.078.197-.074h.21c.074-.003.145.024.198.073.053.05.08.121.075.194V8.94c.006.072-.022.143-.075.193-.053.05-.124.076-.197.074h-.211c-.073.002-.144-.024-.197-.074zM196.587 8.593c-.495-.572-.757-1.31-.734-2.066v-.974c-.022-.754.24-1.489.734-2.06.516-.513 1.227-.78 1.953-.733.474-.015.945.083 1.373.287.343.16.636.412.847.726.18.275.283.593.3.92.01.071-.018.142-.073.187-.051.052-.121.08-.194.08h-.173c-.062.004-.124-.015-.173-.053-.047-.061-.085-.129-.114-.2-.117-.382-.35-.717-.666-.96-.337-.198-.723-.295-1.114-.28-.517-.026-1.022.165-1.393.526-.379.456-.576 1.035-.553 1.627v.847c-.023.592.174 1.171.553 1.626.371.362.876.552 1.393.527.392.015.779-.084 1.114-.287.317-.239.55-.573.666-.953.029-.072.067-.139.114-.2.049-.039.11-.058.173-.053h.173c.073-.001.143.028.194.08.055.045.082.116.073.186-.018.328-.121.645-.3.92-.21.315-.504.566-.847.727-.428.203-.899.302-1.373.287-.726.043-1.435-.224-1.953-.734zM202.753 9.133c-.05-.052-.076-.121-.073-.193V.833c-.004-.072.023-.142.074-.193.05-.05.12-.077.193-.073h.206c.072-.003.142.024.194.073.052.05.079.121.073.193V8.94c.006.072-.021.143-.073.193-.052.05-.122.076-.194.074h-.206c-.072.002-.142-.024-.194-.074zM205.893 8.567c-.496-.567-.781-1.288-.806-2.04v-.974c.034-.737.316-1.442.8-2 .478-.518 1.162-.798 1.866-.766.761-.044 1.5.266 2 .84.504.657.755 1.473.707 2.3v.18c.003.073-.026.144-.08.193-.054.05-.126.076-.2.073h-4.327v.12c.01.37.099.734.26 1.067.152.316.381.59.667.793.296.198.645.3 1 .294.38.018.757-.072 1.087-.26.233-.136.44-.315.606-.527.046-.068.1-.13.16-.187.066-.014.134-.014.2 0h.2c.066-.002.13.019.18.06.048.04.075.099.074.16-.033.236-.146.452-.32.614-.254.266-.56.477-.9.62-.405.178-.844.267-1.287.26-.72.022-1.412-.278-1.887-.82zm3.807-2.9V5.62c.023-.563-.165-1.115-.527-1.547-.357-.407-.879-.63-1.42-.606-.537-.025-1.056.198-1.406.606-.355.436-.538.986-.514 1.547v.047h3.867zM212.72 9.06c-.31-.143-.588-.35-.813-.607-.145-.15-.24-.34-.274-.546-.002-.071.03-.138.087-.18.052-.04.115-.064.18-.067h.187c.048 0 .096.011.14.033.049.035.091.078.126.127.174.245.402.445.667.587.327.16.69.233 1.053.213.426.02.848-.079 1.22-.287.296-.165.473-.482.46-.82.01-.195-.057-.386-.186-.533-.17-.167-.379-.29-.607-.36-.28-.1-.7-.213-1.247-.347-.547-.076-1.06-.307-1.48-.666-.268-.297-.41-.687-.393-1.087 0-.3.085-.594.247-.847.18-.286.436-.516.74-.666.369-.18.776-.267 1.186-.254.425-.014.847.07 1.234.247.295.132.555.33.76.58.135.148.221.334.246.533.002.07-.027.136-.08.18-.053.043-.118.067-.186.067h-.187c-.112 0-.215-.061-.267-.16-.14-.224-.33-.413-.553-.553-.3-.146-.634-.21-.967-.187-.377-.027-.753.074-1.066.287-.238.182-.374.467-.367.766-.009.175.043.347.147.487.145.168.335.292.546.36.379.144.77.256 1.167.333.578.088 1.125.317 1.593.667.31.29.478.702.46 1.127.003.326-.095.645-.28.913-.204.298-.492.53-.826.667-.423.173-.877.255-1.334.24-.457.02-.913-.064-1.333-.247zM218 9.133c-.05-.052-.076-.121-.073-.193v-.587c-.002-.073.024-.145.073-.2.052-.054.125-.083.2-.08h.58c.075-.002.147.027.2.08.053.053.082.126.08.2v.587c.003.073-.026.144-.08.193-.055.049-.126.075-.2.074h-.58c-.074.003-.146-.024-.2-.074z" transform="translate(20 76)"/>
        </g>
        <g fill="#000">
            <path d="M1.467 8C.904 7.4.592 6.609.593 5.787V4.72 3.653c-.01-.814.301-1.6.867-2.186.625-.571 1.455-.864 2.3-.814.583-.017 1.162.106 1.687.36.41.204.766.5 1.04.867.208.273.337.598.373.94.003.06-.025.118-.073.153-.044.04-.101.06-.16.06H5.96c-.054.003-.108-.01-.153-.04-.043-.05-.074-.11-.094-.173-.125-.359-.358-.67-.666-.893-.393-.264-.861-.393-1.334-.367-.55-.034-1.091.156-1.5.527-.396.439-.604 1.016-.58 1.606V5.713c-.025.595.183 1.177.58 1.62.412.366.951.553 1.5.52.588.052 1.172-.135 1.62-.52.408-.42.617-.995.574-1.58v-.486H4.173c-.07 0-.138-.029-.186-.08-.047-.054-.073-.122-.074-.194v-.326c0-.072.025-.14.074-.194.048-.051.116-.08.186-.08h2.494c.073-.003.145.024.2.074.05.054.077.126.073.2V5.74c.012.563-.118 1.12-.38 1.62-.252.461-.638.835-1.107 1.073-.529.265-1.115.395-1.706.38-.839.047-1.66-.246-2.28-.813zM8.667 8.62c-.046-.051-.07-.118-.067-.187v-7.4c-.006-.073.018-.145.067-.2.047-.048.112-.074.18-.073h4.666c.074-.001.145.025.2.073.05.054.077.126.074.2v.407c0 .068-.026.133-.074.18-.056.046-.127.07-.2.067H9.647V4.22h3.613c.074-.007.148.02.2.073.05.052.076.122.073.194v.386c.002.07-.025.137-.073.187-.052.053-.126.08-.2.073H9.647v2.62H13.6c.074-.003.146.023.2.074.053.052.08.125.073.2v.406c.003.071-.027.14-.08.187-.052.048-.122.074-.193.073H8.853c-.07.003-.137-.023-.186-.073zM17.247 8.62c-.049-.05-.075-.117-.074-.187v-6.7h-2.186c-.07.004-.138-.022-.187-.073-.048-.05-.075-.117-.073-.187v-.44c-.004-.074.023-.146.073-.2.05-.048.117-.075.187-.073h5.44c.072-.004.142.023.193.073.049.055.073.127.067.2v.44c.004.07-.023.138-.074.187-.047.052-.116.08-.186.073h-2.174v6.7c.003.071-.027.14-.08.187-.053.047-.122.073-.193.073h-.547c-.069 0-.136-.026-.186-.073zM24.56 8.62c-.048-.05-.075-.117-.073-.187v-7.4c-.007-.073.018-.145.066-.2.051-.05.122-.077.194-.073h.533c.12-.01.232.057.28.167l2.413 4.666 2.44-4.666c.05-.105.158-.17.274-.167h.533c.07-.004.138.023.187.073.05.054.077.126.073.2v7.4c.002.07-.025.137-.073.187-.051.047-.118.073-.187.073h-.553c-.068.002-.133-.025-.18-.073-.046-.051-.07-.118-.067-.187V2.8l-1.94 3.753c-.059.146-.203.24-.36.234h-.34c-.156.002-.298-.09-.36-.234L25.487 2.8v5.633c.004.07-.023.138-.074.187-.05.05-.117.076-.186.073h-.507c-.06-.005-.117-.03-.16-.073zM34 8.033c-.582-.639-.887-1.483-.847-2.346v-.96-.954c-.036-.863.28-1.705.874-2.333.617-.55 1.427-.835 2.253-.793.823-.045 1.629.24 2.24.793.594.628.91 1.47.873 2.333v1.914c.042.862-.26 1.706-.84 2.346-1.343 1.03-3.21 1.03-4.553 0zm3.733-.72c.397-.468.606-1.066.587-1.68v-.906-.907c.02-.615-.19-1.216-.587-1.687-.827-.747-2.086-.747-2.913 0-.4.469-.608 1.072-.58 1.687V5.633c-.03.614.177 1.216.58 1.68.83.738 2.082.738 2.913 0zM41.193 8.62c-.048-.05-.075-.117-.073-.187v-7.4c-.004-.074.023-.146.073-.2.046-.05.112-.077.18-.073h2.767c.717-.039 1.425.176 2 .607.503.441.774 1.091.733 1.76.02.508-.133 1.008-.433 1.42-.305.38-.726.65-1.2.766l1.747 3.027c.02.04.03.083.033.127-.002.06-.026.116-.067.16-.042.043-.1.067-.16.066h-.5c-.095.005-.19-.023-.266-.08-.073-.063-.132-.14-.174-.226l-1.666-2.9h-2v2.946c.002.071-.027.14-.08.187-.053.048-.122.074-.194.073h-.54c-.068.004-.134-.023-.18-.073zm2.9-4.067c1.14 0 1.707-.473 1.707-1.433 0-.96-.567-1.44-1.707-1.44h-1.906v2.873h1.906zM48.6 8.62c-.044-.052-.067-.118-.067-.187v-7.4c-.002-.072.021-.143.067-.2.05-.049.117-.075.187-.073h4.666c.075-.006.148.02.2.073.053.053.08.126.074.2v.407c0 .068-.026.133-.074.18-.054.049-.127.073-.2.067h-3.86V4.22h3.614c.073-.006.145.02.197.071.052.051.08.123.076.196v.386c.002.07-.025.137-.073.187-.054.051-.126.078-.2.073h-3.614v2.62h3.954c.073-.001.145.025.2.074.05.054.077.126.073.2v.406c.002.071-.027.14-.08.187-.053.047-.122.073-.193.073H48.8c-.074.006-.147-.02-.2-.073zM58.247 8.62c-.046-.051-.07-.118-.067-.187v-7.4c-.006-.073.018-.145.067-.2.047-.048.112-.074.18-.073h2.56c.893-.084 1.783.192 2.473.767.553.636.833 1.465.78 2.306v1.78c.012.6-.107 1.197-.347 1.747-.207.445-.566.802-1.013 1.007-.58.241-1.206.353-1.833.326h-2.62c-.068.002-.133-.025-.18-.073zm2.74-.867c.433.019.865-.056 1.266-.22.296-.133.533-.37.667-.666.159-.406.238-.838.233-1.274V4.74 3.9c.04-.602-.154-1.196-.54-1.66-.472-.393-1.081-.582-1.693-.527h-1.687V7.78l1.754-.027zM66.04 8.62c-.044-.052-.067-.118-.067-.187v-7.4c-.002-.072.021-.143.067-.2.05-.049.117-.075.187-.073h4.666c.074-.004.146.023.2.073.054.052.08.126.074.2v.407c.004.068-.023.135-.074.18-.054.049-.127.073-.2.067h-3.86V4.22h3.634c.073-.006.145.02.197.071.052.051.08.123.076.196v.386c.002.07-.025.137-.073.187-.054.051-.126.078-.2.073h-3.614v2.62h3.954c.073-.001.145.025.2.074.05.054.077.126.073.2v.406c.002.071-.027.14-.08.187-.053.047-.122.073-.193.073H66.26c-.08.013-.163-.014-.22-.073zM74.667 8.62c-.049-.05-.075-.117-.074-.187v-6.7h-2.186c-.07.006-.14-.02-.187-.073-.05-.049-.077-.117-.073-.187v-.44c-.007-.074.02-.148.073-.2.05-.049.117-.075.187-.073h5.44c.072-.004.143.024.193.076.05.053.075.125.067.197v.44c.001.07-.025.137-.074.187-.049.05-.117.076-.186.073h-2.18v6.7c.001.07-.025.137-.074.187-.053.047-.122.073-.193.073h-.547c-.07.002-.136-.025-.186-.073zM77.833 8.627c-.045-.042-.071-.1-.073-.16V8.34l2.807-7.333c.049-.158.201-.26.366-.247h.72c.165-.014.318.089.367.247l2.813 7.333v.127c-.002.06-.028.118-.073.16-.044.043-.104.067-.167.066h-.533c-.067.002-.133-.02-.187-.06-.042-.036-.074-.081-.093-.133l-.667-1.633H79.36L78.733 8.5c-.044.116-.155.193-.28.193H78c-.063.007-.125-.018-.167-.066zm1.934-2.7h3.106L81.32 1.86l-1.553 4.067zM86.173 8.62c-.046-.051-.07-.118-.066-.187V1.02c-.004-.069.02-.136.066-.187.048-.048.113-.074.18-.073h.567c.071-.009.143.016.193.067.051.05.076.122.067.193v7.413c.002.07-.025.137-.074.186-.05.05-.116.076-.186.074h-.567c-.067.002-.132-.025-.18-.073zM89.24 8.62c-.044-.052-.067-.118-.067-.187V1.02c0-.068.023-.134.067-.187.05-.049.117-.075.187-.073H90c.068-.001.133.025.18.073.046.051.07.118.067.187v6.72H94c.074-.001.145.025.2.073.047.051.073.118.073.187v.433c.003.071-.027.14-.08.187-.053.047-.122.073-.193.073h-4.6c-.06-.004-.117-.03-.16-.073zM96.447 8.513c-.413-.161-.774-.43-1.047-.78-.226-.3-.358-.659-.38-1.033.002-.061.028-.119.073-.16.043-.046.104-.07.167-.067h.553c.138-.003.258.092.287.227.083.337.29.63.58.82.413.256.895.378 1.38.347.503.035 1.005-.084 1.44-.34.31-.21.49-.566.473-.94.011-.234-.073-.463-.233-.634-.189-.192-.416-.342-.667-.44-.306-.124-.766-.277-1.38-.46-.48-.124-.946-.303-1.386-.533-.311-.152-.578-.381-.774-.667-.377-.67-.352-1.494.067-2.14.236-.341.568-.605.953-.76.457-.196.95-.293 1.447-.286.52-.015 1.036.092 1.507.313.38.174.71.443.96.78.207.274.33.603.353.947 0 .062-.024.121-.067.166-.045.047-.108.074-.173.074H100c-.061 0-.12-.02-.167-.06-.057-.04-.097-.1-.113-.167-.053-.337-.254-.632-.547-.807-.354-.223-.768-.335-1.186-.32-.43-.023-.857.082-1.227.3-.3.196-.472.537-.453.894-.017.24.057.478.206.666.186.196.414.346.667.44.416.17.841.317 1.273.44.52.14 1.025.323 1.514.547.328.147.613.376.826.667.194.311.289.673.274 1.04.024.654-.281 1.278-.814 1.66-.65.425-1.417.633-2.193.593-.554.001-1.103-.11-1.613-.327z" transform="translate(80.667 106.667)"/>
        </g>
        <g fill="#FFF">
            <path d="M2.893 20.82C1.36 19.487.547 17.607.453 15.18v-2.553-2.574c-.04-2.099.86-4.106 2.454-5.473 1.553-1.3 3.673-1.913 6.34-1.913 1.598-.033 3.186.262 4.666.866 1.188.472 2.237 1.239 3.047 2.227.656.787 1.044 1.764 1.107 2.787 0 .338-.275.613-.614.613H13.14c-.15.011-.3-.021-.433-.093-.116-.079-.215-.178-.294-.294-.237-.53-.61-.99-1.08-1.333-.616-.408-1.348-.605-2.086-.56-2.165 0-3.276 1.111-3.334 3.333V15.06c.058 2.351 1.198 3.529 3.42 3.533.93.05 1.847-.238 2.58-.813.658-.636.996-1.534.92-2.447v-.506H10.34c-.193.001-.38-.075-.516-.211-.136-.137-.212-.323-.21-.516v-2.2c-.01-.193.066-.38.206-.513.136-.14.325-.218.52-.214h7.113c.193-.002.379.075.514.214.142.132.22.319.213.513v3.247c.039 1.447-.346 2.874-1.107 4.106-.754 1.177-1.84 2.105-3.12 2.667-1.486.634-3.09.943-4.706.907-2.707-.023-4.825-.691-6.354-2.007zM21.5 22.3c-.135-.126-.213-.302-.213-.487V3.64c-.005-.192.064-.378.193-.52.132-.138.316-.213.507-.207H35.2c.194-.003.382.072.52.209s.215.324.213.518v2.773c.005.192-.072.377-.213.507-.142.129-.328.198-.52.193h-8.847v3.554h8.234c.198-.008.39.067.531.205.141.14.22.33.215.528v2.547c.01.193-.066.38-.206.513-.137.14-.325.217-.52.213h-8.254v3.64h9.074c.194-.002.38.072.52.207.137.138.212.326.206.52v2.773c.007.191-.068.375-.206.507-.142.129-.329.198-.52.193H22c-.19.003-.371-.074-.5-.213zM43.787 22.32c-.141-.13-.219-.315-.214-.507V7.48h-4.906c-.193.005-.38-.067-.52-.2-.137-.13-.212-.312-.207-.5V3.64c-.006-.194.07-.382.207-.52.137-.137.325-.212.52-.207h15.206c.193-.008.38.067.514.207.14.136.217.325.213.52v3.14c.003.19-.074.371-.213.5-.138.132-.323.204-.514.2H48.94v14.333c.007.191-.068.375-.207.507-.142.129-.328.198-.52.193H44.3c-.19.003-.373-.066-.513-.193zM68.033 25.12c-.14-.13-.218-.315-.213-.507v-1.946c-1.245-.122-2.455-.48-3.567-1.054-.9-.46-1.664-1.15-2.213-2-.481-.744-.757-1.601-.8-2.486-.006-.162.063-.317.187-.42.116-.113.271-.175.433-.174h3.72c.193-.01.386.029.56.114.17.107.323.24.453.393.574 1.027 1.64 1.54 3.187 1.54.806.043 1.61-.115 2.34-.46.5-.228.822-.724.827-1.273.009-.372-.15-.727-.434-.967-.397-.306-.85-.533-1.333-.667-.877-.267-1.767-.49-2.667-.666-1.827-.266-3.564-.966-5.066-2.04-1.144-.972-1.766-2.423-1.68-3.92-.026-1.457.565-2.856 1.626-3.854 1.226-1.131 2.787-1.833 4.447-2V.813c-.005-.191.073-.376.213-.506.131-.125.306-.195.487-.194h2.44c.183-.009.36.057.493.183.132.126.207.301.207.484v2c1.126.2 2.203.615 3.173 1.22.825.506 1.526 1.19 2.054 2 .44.634.706 1.371.773 2.14-.002.16-.061.314-.167.433-.105.122-.259.19-.42.187h-3.92c-.387.02-.754-.174-.953-.507-.146-.444-.466-.81-.887-1.013-.53-.285-1.125-.425-1.726-.407-.635-.036-1.266.11-1.82.42-.43.26-.684.732-.667 1.234.012.562.359 1.063.88 1.273.991.444 2.035.76 3.107.94 1.442.226 2.852.624 4.2 1.187.927.38 1.724 1.021 2.293 1.846 1.282 2.285.833 5.15-1.087 6.934-1.378 1.142-3.07 1.84-4.853 2v1.96c0 .182-.075.357-.207.483s-.31.192-.493.183h-2.44c-.178.007-.352-.055-.487-.173zM80.573 22.3c-.133-.127-.207-.303-.206-.487v-2.1c-.012-.545.235-1.065.666-1.4l2.607-2.546c1.773-1.334 3.107-2.394 4-3.14.76-.592 1.454-1.263 2.073-2 .423-.478.674-1.083.714-1.72 0-1.387-.667-2.074-2.074-2.074-.63-.035-1.245.21-1.68.667-.402.467-.672 1.033-.78 1.64-.096.436-.51.726-.953.667h-3.693c-.165.002-.324-.063-.44-.18-.112-.107-.177-.253-.18-.407.028-1.183.381-2.336 1.02-3.333.67-1.023 1.606-1.845 2.706-2.38 1.244-.611 2.615-.915 4-.887 1.404-.057 2.804.187 4.107.713 1.058.434 1.961 1.175 2.593 2.127 1.28 2.134 1.126 4.832-.386 6.807-1.101 1.34-2.377 2.526-3.794 3.526l-2.32 2.327h7.08c.189-.01.373.06.507.193.13.137.199.32.193.507v2.993c.001.181-.068.356-.193.487-.13.14-.315.218-.507.213H81.067c-.187.002-.366-.076-.494-.213zM102.247 22c-1.105-.45-2.065-1.194-2.774-2.153-.61-.863-.956-1.884-.993-2.94-.003-.158.06-.31.173-.42.11-.114.263-.175.42-.167h3.947c.389-.035.758.178.92.533.209.54.576 1.005 1.053 1.334.495.294 1.065.44 1.64.42.736.024 1.452-.236 2-.727.553-.533.846-1.28.8-2.047.02-.708-.259-1.392-.766-1.886-.866-.74-2.062-.959-3.134-.574-.291.126-.565.29-.813.487-.198.19-.454.31-.727.34H100.1c-.333-.023-.597-.287-.62-.62l1.04-9.827c.003-.237.11-.462.293-.613.174-.151.397-.232.627-.227h11.4c.188-.01.372.061.506.195.133.133.204.317.194.505v2.8c.003.183-.07.36-.2.487-.129.139-.31.216-.5.213h-8.173l-.34 3.447c.459-.325.97-.57 1.513-.72.716-.172 1.45-.25 2.187-.233 1.158-.001 2.3.27 3.333.793 1.035.51 1.911 1.295 2.533 2.267.635.994.961 2.154.94 3.333.02 1.241-.321 2.461-.98 3.513-.69 1.072-1.676 1.92-2.84 2.44-1.367.606-2.851.902-4.346.867-1.515.042-3.022-.237-4.42-.82zM123.807 22.3c-.133-.127-.208-.303-.207-.487v-18.2c-.007-.19.068-.375.207-.506.134-.125.31-.194.493-.194h4c.188-.01.372.061.506.195.133.133.204.317.194.505v18.2c0 .181-.068.356-.193.487-.13.14-.315.218-.507.213h-4c-.187.002-.366-.076-.493-.213zM133.02 22.3c-.135-.126-.213-.302-.213-.487V3.64c-.005-.193.067-.38.2-.52.13-.136.311-.212.5-.207h3.16c.393-.018.763.189.953.534l6.607 10.44V3.64c-.005-.192.064-.378.193-.52.132-.138.316-.213.507-.207h3.553c.19-.006.375.069.507.207.129.142.198.328.193.52v18.147c.004.19-.065.373-.193.513-.13.14-.315.218-.507.213h-3.147c-.393.02-.764-.187-.953-.533l-6.58-10v9.833c.005.192-.073.377-.213.507-.14.128-.324.198-.514.193h-3.56c-.187.002-.366-.076-.493-.213zM160.727 20.82c-1.534-1.333-2.347-3.213-2.44-5.64v-2.553-2.574c-.04-2.099.86-4.106 2.453-5.473 1.553-1.3 3.673-1.947 6.34-1.947 1.598-.032 3.187.263 4.667.867 1.188.472 2.236 1.238 3.046 2.227.657.787 1.044 1.763 1.107 2.786 0 .34-.275.614-.613.614h-4.34c-.15.01-.301-.022-.434-.094-.115-.078-.214-.178-.293-.293-.237-.531-.61-.99-1.08-1.333-.616-.408-1.349-.605-2.087-.56-2.164 0-3.275 1.11-3.333 3.333V15.027c.076 2.364 1.213 3.549 3.413 3.553.93.05 1.847-.239 2.58-.813.667-.628 1.017-1.52.954-2.434v-.506h-2.494c-.193.001-.379-.075-.515-.211-.137-.137-.213-.323-.211-.516v-2.2c-.01-.193.066-.38.206-.513.137-.14.325-.218.52-.214h7.114c.193-.002.378.075.513.214.142.132.22.319.213.513v3.247c.04 1.447-.345 2.874-1.106 4.106-.755 1.177-1.84 2.105-3.12 2.667-1.487.634-3.091.943-4.707.907-2.707-.023-4.824-.691-6.353-2.007zM177.173 22.333c-.113-.105-.178-.252-.18-.406-.013-.084-.013-.17 0-.254l6.527-17.946c.134-.514.618-.857 1.147-.814h4.366c.52-.03.988.31 1.12.814l6.514 17.946c.025.082.036.168.033.254-.005.155-.073.301-.187.406-.105.114-.252.179-.406.18h-3.64c-.415.022-.797-.225-.947-.613l-1.013-2.72h-7.334l-1.006 2.72c-.156.386-.538.632-.954.613h-3.64c-.152-.003-.296-.068-.4-.18zm7.18-7.333h4.98l-2.493-7.14-2.487 7.14zM201.333 22c-1.13-.419-2.126-1.132-2.886-2.067-.633-.8-.995-1.78-1.034-2.8-.006-.16.06-.314.18-.42.116-.112.272-.175.434-.173h3.726c.187-.007.372.032.54.113.177.104.335.237.467.394.263.47.657.855 1.133 1.106.64.316 1.348.466 2.06.434.8.044 1.598-.114 2.32-.46.492-.235.808-.729.814-1.274.011-.368-.143-.723-.42-.966-.394-.312-.848-.54-1.334-.667-.613-.2-1.5-.413-2.666-.667-1.827-.267-3.564-.967-5.067-2.04-1.143-.97-1.765-2.422-1.68-3.92-.014-1.11.325-2.195.967-3.1.702-.945 1.653-1.677 2.746-2.113 1.31-.51 2.709-.753 4.114-.713 1.46-.043 2.913.237 4.253.82 1.08.476 2.029 1.205 2.767 2.126.589.712.947 1.586 1.026 2.507-.002.16-.06.314-.166.433-.106.122-.26.19-.42.187h-3.874c-.385.013-.748-.18-.953-.507-.145-.433-.457-.79-.867-.993-.533-.289-1.134-.429-1.74-.407-.634-.036-1.265.11-1.82.42-.429.26-.684.732-.666 1.234.005.552.334 1.05.84 1.273 1 .446 2.053.762 3.133.94 1.438.224 2.844.623 4.187 1.187.924.385 1.72 1.026 2.293 1.846 1.11 1.947.974 4.363-.347 6.174-.791.98-1.839 1.723-3.026 2.146-1.416.516-2.914.767-4.42.74-1.575.04-3.143-.23-4.614-.793zM217.1 22.3c-.133-.127-.208-.303-.207-.487V18.2c-.005-.194.07-.382.207-.52.128-.135.307-.21.493-.207h3.614c.183 0 .36.074.486.207.14.136.218.325.214.52v3.613c.003.183-.07.36-.2.487-.13.139-.31.216-.5.213h-3.614c-.187.002-.366-.076-.493-.213zm.087-6.327c-.139-.134-.216-.32-.214-.513V3.613c-.005-.191.073-.376.214-.506.142-.13.328-.198.52-.194h3.386c.19-.004.374.065.514.194.14.13.218.315.213.506V15.46c.002.193-.075.379-.213.513-.132.143-.32.22-.514.214h-3.386c-.192.01-.38-.057-.52-.187v-.027z" transform="translate(18.667 34.667)"/>
        </g>
        <g fill="#FFF">
            <path d="M.573 10C.51 9.94.475 9.854.48 9.767V.62C.475.527.506.436.567.367.63.298.72.262.813.267H4.44c.955-.051 1.898.232 2.667.8.66.561 1.02 1.4.973 2.266.02.608-.15 1.207-.487 1.714-.338.472-.82.822-1.373 1l2 3.573c.027.047.043.1.047.153 0 .08-.033.155-.094.207-.053.056-.128.088-.206.087H6.733c-.124.009-.248-.03-.346-.107-.093-.076-.17-.169-.227-.273L4.367 6.353H2.453v3.334c.003.088-.033.174-.1.233-.066.068-.158.104-.253.1H.813c-.08.024-.165.017-.24-.02zM4.4 4.807c.448.034.894-.097 1.253-.367.294-.282.448-.68.42-1.087.026-.41-.127-.811-.42-1.1-.355-.28-.802-.418-1.253-.386H2.453v2.94H4.4zM10 10c-.066-.06-.103-.145-.1-.233V.62c-.006-.094.028-.186.093-.253.062-.068.15-.104.24-.1h6.174c.094-.004.187.032.254.099s.103.16.099.254v.933c.005.093-.032.184-.1.247-.07.063-.16.096-.253.093H11.82V4.34h4.28c.095-.004.187.032.254.1.067.066.103.159.1.253v.88c.003.093-.033.183-.1.247-.07.061-.161.092-.254.087h-4.28V8.44h4.667c.093-.003.184.03.253.093.068.064.105.154.1.247v.953c.004.091-.033.18-.1.24-.068.066-.16.1-.253.094H10.2c-.073.002-.144-.021-.2-.067zM18.733 10c-.066-.06-.103-.145-.1-.233V.62c-.003-.093.03-.184.094-.253.063-.069.153-.105.246-.1h6.087c.095-.003.186.033.253.1.066.067.1.16.094.253v1.007c.004.087-.03.173-.094.233-.067.066-.158.103-.253.1h-4.48v2.633h4.2c.095-.002.186.034.253.1.063.061.097.146.094.234V5.94c.004.088-.03.173-.094.233-.067.067-.158.103-.253.1h-4.2v3.46c.003.09-.034.175-.1.234-.064.067-.154.104-.247.1h-1.26c-.085.01-.172-.013-.24-.067zM27.16 10c-.066-.06-.103-.145-.1-.233V.62c-.003-.093.03-.184.093-.253.064-.069.154-.105.247-.1h6.173c.095-.003.186.033.254.1.062.069.096.16.093.253v.933c.004.092-.03.181-.093.247-.07.062-.16.095-.254.093H28.98V4.34h4.287c.093-.004.183.032.246.1.068.066.105.159.1.253v.88c.004.093-.032.183-.1.247-.067.06-.156.092-.246.087H28.98V8.44h4.707c.091-.003.18.03.246.093.069.064.105.154.1.247v.953c.004.091-.032.18-.1.24-.065.065-.155.1-.246.094H27.4c-.086.01-.172-.014-.24-.067zM35.88 10c-.064-.06-.098-.146-.093-.233V.62c-.006-.093.025-.184.086-.253.064-.069.154-.105.247-.1h3.627c.954-.051 1.897.232 2.666.8.661.561 1.022 1.4.974 2.266.022.608-.148 1.208-.487 1.714-.339.472-.82.822-1.373 1l2 3.573c.024.047.038.1.04.153.003.079-.028.155-.087.207-.054.056-.129.088-.207.087h-1.286c-.125.009-.249-.03-.347-.107-.092-.076-.17-.169-.227-.273L39.62 6.353h-1.913v3.334c.003.088-.034.174-.1.233-.067.068-.159.104-.254.1h-1.286c-.063.012-.128.005-.187-.02zm3.827-5.193c.45.033.897-.097 1.26-.367.293-.282.447-.68.42-1.087.025-.41-.128-.811-.42-1.1-.358-.28-.807-.417-1.26-.386H37.76v2.94h1.947zM47.233 10c-.054-.055-.083-.13-.08-.207v-.126L50.487.64c.068-.217.273-.361.5-.353h1.546c.227-.008.432.136.5.353l3.334 9.027v.126c.003.079-.028.155-.087.207-.054.056-.129.087-.207.087h-1.14c-.179.008-.343-.1-.406-.267l-.667-1.693h-4.147l-.666 1.693c-.064.168-.228.275-.407.267h-1.247c-.061-.01-.117-.041-.16-.087zm3-3.5h3.16l-1.58-4.307-1.58 4.307zM60.667 10c-.062-.062-.096-.146-.094-.233V.62c-.005-.093.026-.184.087-.253.064-.068.154-.104.247-.1H67c.093-.004.183.032.247.1.068.066.104.158.1.253v1.007c.003.088-.034.174-.1.233-.064.068-.154.104-.247.1h-4.48v2.633h4.2c.093-.004.183.033.247.1.064.06.1.145.1.234V5.94c.003.089-.034.174-.1.233-.064.068-.154.104-.247.1h-4.2v3.46c.003.09-.034.175-.1.234-.066.068-.159.104-.253.1h-1.26c-.086.01-.172-.014-.24-.067zM69.12 10c-.066-.06-.103-.145-.1-.233V.62c-.006-.094.028-.186.093-.253.062-.068.15-.104.24-.1h3.627c.955-.051 1.898.232 2.667.8.68.55 1.058 1.392 1.02 2.266.02.61-.153 1.209-.494 1.714-.336.474-.818.825-1.373 1l2 3.573c.025.047.038.1.04.153.001.08-.033.155-.093.207-.052.055-.125.087-.2.087H75.26c-.127.009-.253-.03-.353-.107-.09-.076-.165-.169-.22-.273l-1.794-3.334h-1.92v3.334c.003.088-.033.174-.1.233-.064.066-.154.102-.246.1h-1.294c-.07.02-.147.013-.213-.02zm3.82-5.193c.45.035.898-.096 1.26-.367.294-.282.447-.68.42-1.087.026-.41-.127-.811-.42-1.1-.357-.28-.807-.419-1.26-.386h-1.947v2.94h1.947zM78.553 10c-.066-.06-.103-.145-.1-.233V.607c-.005-.093.032-.184.1-.247.065-.06.151-.094.24-.093h1.334c.092-.006.182.028.247.093s.099.155.093.247v9.126c.002.088-.032.172-.094.234-.063.068-.153.105-.246.1h-1.334c-.085.01-.172-.014-.24-.067zM82.753 10c-.066-.06-.103-.145-.1-.233V.62c-.003-.093.03-.184.094-.253.063-.069.153-.105.246-.1h6.174c.094-.003.186.033.253.1.063.069.096.16.093.253v.933c.004.092-.03.181-.093.247-.07.062-.16.095-.253.093h-4.594V4.34h4.287c.093-.004.183.032.247.1.068.066.104.159.1.253v.88c.004.093-.033.183-.1.247-.068.06-.157.092-.247.087h-4.287V8.44h4.707c.091-.003.18.03.247.093.068.064.105.154.1.247v.953c.004.091-.033.18-.1.24-.065.065-.155.1-.247.094h-6.287c-.085.01-.172-.014-.24-.067zM91.473 10c-.063-.06-.098-.146-.093-.233V.62c-.005-.093.026-.184.087-.253.063-.068.153-.104.246-.1h1.094c.17-.004.328.089.406.24l4 6.213V.62c-.003-.093.03-.184.094-.253.063-.069.153-.105.246-.1h1.2c.095-.004.187.032.254.099s.103.16.1.254v9.1c.004.093-.033.183-.1.247-.063.065-.15.101-.24.1h-1.1c-.176.005-.34-.087-.427-.24l-4-6.074v6c.002.088-.032.172-.093.234-.062.067-.15.104-.24.1H91.7c-.084.001-.165-.03-.227-.087zM101.373 10c-.066-.06-.103-.145-.1-.233V.62c-.003-.093.03-.184.094-.253.063-.069.153-.105.246-.1h3.414c2.75 0 4.155 1.269 4.213 3.806V6.247c.058 1.065-.323 2.108-1.053 2.886-.874.691-1.977 1.025-3.087.934h-3.487c-.085.01-.172-.014-.24-.067zm3.654-1.527c.605.058 1.21-.127 1.68-.513.393-.483.589-1.098.546-1.72V5.187 4.153c.035-.615-.17-1.22-.573-1.686-.48-.4-1.098-.594-1.72-.54h-1.713v6.546h1.78zM115.54 9.86c-.483-.21-.897-.552-1.193-.987-.29-.438-.438-.954-.427-1.48-.011-.544.165-1.076.5-1.506.4-.473.884-.869 1.427-1.167-.331-.341-.616-.724-.847-1.14-.17-.327-.26-.691-.26-1.06-.003-.42.115-.832.34-1.187.236-.38.576-.686.98-.88.477-.226 1-.338 1.527-.326.504-.011 1.004.096 1.46.313.394.204.723.514.953.893.224.358.342.772.34 1.194.011.52-.175 1.024-.52 1.413-.439.462-.95.85-1.513 1.147l2 2c.333-.576.578-1.199.726-1.847.008-.068.041-.13.094-.173.06-.045.132-.068.206-.067h1.034c.078-.001.153.03.206.087.057.048.089.119.087.193-.038.477-.172.942-.393 1.367-.244.532-.543 1.037-.894 1.506l1.5 1.514c.057.054.09.128.094.206.005.07-.02.137-.067.187-.055.049-.127.073-.2.067h-1.367c-.136.006-.269-.045-.366-.14l-.774-.74c-.791.69-1.816 1.055-2.866 1.02-.618-.006-1.228-.145-1.787-.407zM119.113 8l-2.226-2.18c-.794.427-1.194.92-1.194 1.48-.014.403.167.788.487 1.033.328.258.736.395 1.153.387.668.016 1.312-.245 1.78-.72zm-.76-4.667c.225-.194.354-.476.354-.773.008-.281-.112-.551-.327-.733-.218-.194-.502-.296-.793-.287-.29-.007-.572.093-.794.28-.217.183-.338.456-.326.74 0 .234.062.464.18.667.196.285.426.545.686.773.364-.183.707-.407 1.02-.667z" transform="translate(68.667 13.333)"/>
        </g>
        <path fill="#FFF" d="M18.907 67.08H240.74V68.08H18.907z"/>
        <g transform="translate(70.667 101.333)">
            <rect width="120.84" height="18.9" x=".22" y=".38" fill="#FFF" rx="9.19"/>
            <g fill="#000">
                <path d="M1.16 7.7C.594 7.105.28 6.314.287 5.493V4.427 3.36c-.037-.835.29-1.645.896-2.22C1.79.565 2.615.28 3.447.36 4.032.343 4.613.466 5.14.72c.411.201.768.498 1.04.867.21.27.339.593.373.933-.001.06-.028.115-.073.153-.047.04-.106.061-.167.06H5.68c-.055.005-.11-.011-.153-.046-.045-.047-.077-.104-.094-.167-.123-.362-.356-.676-.666-.9-.393-.264-.862-.39-1.334-.36-.547-.031-1.084.156-1.493.52-.399.44-.608 1.02-.58 1.613v2.014c-.029.595.18 1.178.58 1.62.41.364.946.551 1.493.52.563.03 1.115-.159 1.54-.527.417-.416.629-.994.58-1.58v-.487H3.82c-.071.003-.14-.027-.187-.08-.048-.052-.074-.122-.073-.193v-.34c0-.071.026-.14.073-.193.05-.049.117-.075.187-.074h2.54c.073-.006.145.02.197.072.053.05.08.122.076.195v1.08c.012.561-.12 1.116-.38 1.613-.25.465-.636.842-1.106 1.08-.532.265-1.12.395-1.714.38C2.6 8.548 1.78 8.261 1.16 7.7zM8.347 8.333c-.049-.052-.075-.122-.074-.193V.74c-.002-.072.024-.141.074-.193.044-.052.111-.08.18-.074h4.666c.072-.004.142.023.193.074.051.051.078.121.074.193v.413c.005.068-.022.135-.073.18-.053.048-.123.072-.194.067h-3.86v2.527h3.614c.074-.004.146.023.2.073.05.054.076.126.073.2v.387c.002.072-.026.141-.079.19-.052.05-.123.075-.194.07H9.333V7.46h3.954c.075-.004.148.025.2.08.05.052.076.122.073.193v.407c.002.073-.027.143-.08.193-.053.047-.122.073-.193.074H8.54c-.072.007-.144-.02-.193-.074zM16.94 8.333c-.048-.052-.074-.122-.073-.193V1.473h-2.2c-.07.002-.137-.025-.187-.073-.047-.05-.073-.117-.073-.187V.767c-.003-.072.024-.142.073-.194.049-.05.117-.077.187-.073h5.44c.072-.006.143.021.193.073.048.053.072.123.067.194v.446c0 .07-.026.136-.074.187-.05.048-.117.075-.186.073h-2.174V8.14c.003.073-.026.143-.08.193-.053.047-.122.073-.193.074h-.547c-.065-.002-.126-.028-.173-.074zM24.253 8.333c-.05-.05-.077-.121-.073-.193V.74c-.005-.07.019-.14.067-.193.05-.054.12-.08.193-.074h.533c.12-.01.232.057.28.167l2.414 4.633L30.107.64c.046-.105.152-.171.266-.167h.534c.072-.007.143.02.193.074.048.052.072.122.067.193v7.4c.003.07-.023.14-.072.19-.05.05-.118.079-.188.077h-.52c-.068 0-.133-.026-.18-.074-.047-.053-.07-.122-.067-.193V2.513L28.2 6.26c-.057.148-.201.245-.36.24h-.34c-.16 0-.303-.094-.367-.24l-1.926-3.747V8.14c.004.072-.023.142-.074.193-.05.049-.117.075-.186.074h-.507c-.07.002-.137-.025-.187-.074zM33.72 7.74c-.585-.635-.89-1.478-.847-2.34v-.96-.953c-.036-.864.28-1.706.874-2.334C34.363.6 35.173.315 36 .36c.823-.046 1.63.24 2.24.793.594.628.91 1.47.873 2.334V5.4c.04.861-.265 1.703-.846 2.34-.62.553-1.437.834-2.267.78-.834.054-1.654-.226-2.28-.78zm3.727-.713c.402-.466.613-1.066.593-1.68V4.44v-.907c.02-.618-.191-1.222-.593-1.693-.385-.377-.909-.577-1.447-.553-.542-.021-1.068.178-1.46.553-.403.47-.61 1.075-.58 1.693v1.814c-.03.612.175 1.213.573 1.68.395.374.924.57 1.467.546.537.027 1.061-.171 1.447-.546zM40.88 8.333c-.044-.055-.067-.123-.067-.193V.74c-.001-.07.022-.139.067-.193.047-.052.116-.08.187-.074h2.76c.717-.038 1.425.177 2 .607.503.441.772 1.092.726 1.76.069 1.03-.62 1.956-1.626 2.187l1.74 3.026c.024.038.038.082.04.127-.012.12-.107.215-.227.227H46c-.096.006-.19-.023-.267-.08-.073-.064-.134-.141-.18-.227l-1.66-2.907h-2V8.14c.003.073-.026.143-.08.193-.053.047-.122.073-.193.074h-.54c-.074.006-.147-.021-.2-.074zm2.907-4.066c1.14 0 1.706-.48 1.706-1.44s-.566-1.44-1.706-1.44H41.88v2.88h1.907zM48.293 8.333c-.046-.053-.07-.122-.066-.193V.74c-.005-.07.019-.14.066-.193.046-.051.112-.078.18-.074h4.667c.073-.006.145.02.197.072.053.05.08.122.076.195v.413c.002.068-.025.133-.073.18-.056.047-.127.07-.2.067h-3.867v2.527h3.62c.072-.003.142.024.194.073.052.053.078.126.073.2v.387c.003.07-.024.137-.073.186-.052.05-.122.076-.194.074h-3.626V7.46h3.96c.073-.003.144.026.193.08.052.05.08.121.073.193v.407c.001.071-.025.14-.073.193-.053.047-.122.073-.193.074h-4.754c-.067 0-.132-.026-.18-.074zM57.94 8.333c-.046-.053-.07-.122-.067-.193V.74c-.005-.07.02-.14.067-.193.045-.051.112-.078.18-.074h2.547c.892-.082 1.78.19 2.473.76.552.637.832 1.466.78 2.307v1.78c.012.603-.107 1.2-.347 1.753-.21.442-.568.797-1.013 1-.58.244-1.205.358-1.833.334h-2.62c-.063-.003-.123-.029-.167-.074zm2.74-.873c.433.018.865-.057 1.267-.22.296-.134.533-.37.666-.667.157-.408.236-.842.234-1.28v-.846-.84c.032-.602-.16-1.193-.54-1.66-.471-.396-1.081-.586-1.694-.527h-1.68v6.06l1.747-.02zM65.733 8.333c-.043-.055-.067-.123-.066-.193V.74c-.002-.07.022-.139.066-.193.048-.052.117-.08.187-.074h4.667c.074-.007.148.02.2.074.05.052.076.121.073.193v.413c.001.068-.025.133-.073.18-.055.05-.127.073-.2.067h-3.86v2.527h3.613c.074-.002.145.024.2.073.05.054.076.126.073.2v.387c0 .069-.026.136-.073.186-.055.049-.126.075-.2.074h-3.613V7.46h3.94c.074-.002.147.027.2.08.05.052.076.122.073.193v.407c.002.073-.027.143-.08.193-.053.047-.122.073-.193.074H65.92c-.07.002-.137-.025-.187-.074zM74.333 8.333c-.048-.052-.074-.122-.073-.193V1.473h-2.187c-.07.003-.137-.024-.186-.073-.05-.049-.077-.117-.074-.187V.767c-.006-.073.021-.144.074-.194.047-.052.116-.079.186-.073h5.44c.073-.006.144.021.194.073.044.055.068.123.066.194v.446c.002.07-.025.137-.074.186-.049.05-.116.076-.186.074h-2.18V8.14c.003.073-.026.143-.08.193-.05.049-.117.075-.186.074h-.547c-.07.001-.137-.025-.187-.074zM77.52 8.333c-.042-.04-.065-.095-.067-.153v-.127L80.26.72c.05-.158.202-.26.367-.247h.72c.165-.013.317.09.366.247l2.807 7.333v.127c0 .06-.027.116-.073.153-.045.045-.104.07-.167.074h-.533c-.068 0-.134-.024-.187-.067-.042-.033-.074-.077-.093-.127l-.634-1.633h-3.7l-.626 1.633c-.045.117-.156.194-.28.194h-.547c-.061-.002-.119-.029-.16-.074zm1.94-2.666h3.107l-1.554-4.074-1.553 4.074zM85.867 8.333c-.049-.052-.075-.122-.074-.193V.733c-.002-.07.025-.137.074-.186.044-.052.111-.08.18-.074h.566c.071-.005.141.02.194.067.048.052.072.122.066.193V8.14c.001.071-.025.14-.073.193-.05.049-.117.075-.187.074h-.566c-.068.003-.134-.024-.18-.074zM88.933 8.333c-.043-.055-.067-.123-.066-.193V.733c-.002-.068.022-.135.066-.186.048-.052.117-.08.187-.074h.56c.07-.006.14.022.187.074.044.051.068.118.066.186v6.72h3.787c.072-.006.143.021.193.074.05.048.078.116.074.186v.427c.004.072-.023.142-.074.193-.053.047-.122.073-.193.074h-4.6c-.07.002-.137-.025-.187-.074zM96.14 8.22c-.412-.16-.774-.426-1.047-.773-.226-.302-.359-.664-.38-1.04 0-.06.028-.116.074-.154.042-.047.103-.074.166-.073h.554c.136 0 .255.094.286.227.078.34.286.637.58.826.415.251.896.37 1.38.34.504.035 1.006-.083 1.44-.34.307-.212.486-.566.474-.94.01-.234-.074-.462-.234-.633-.187-.192-.415-.34-.666-.433-.307-.125-.767-.278-1.38-.46-.48-.128-.945-.307-1.387-.534-.314-.15-.582-.38-.78-.666-.185-.317-.275-.68-.26-1.047-.004-.39.112-.772.333-1.093.238-.338.566-.602.947-.76.466-.194.968-.287 1.473-.274.522-.015 1.04.09 1.514.307.38.179.71.45.96.787.204.276.327.604.353.946 0 .062-.024.122-.067.167-.046.045-.108.07-.173.067h-.567c-.061-.002-.121-.02-.173-.054-.053-.046-.093-.106-.113-.173-.048-.335-.247-.63-.54-.8-.357-.224-.773-.336-1.194-.32-.427-.022-.851.082-1.22.3-.299.193-.472.531-.453.887-.017.24.057.478.207.666.187.196.414.348.666.447.417.17.842.316 1.274.44.52.133 1.027.316 1.513.547.329.146.614.376.827.666.19.31.283.67.266 1.034.03.654-.274 1.279-.806 1.66-.648.43-1.417.64-2.194.6-.57.003-1.133-.115-1.653-.347z" transform="translate(10 5.333)"/>
            </g>
        </g>
    </g>
</svg>
