<svg xmlns="http://www.w3.org/2000/svg" xmlns:xlink="http://www.w3.org/1999/xlink" width="274" height="24" viewBox="0 0 274 24">
    <defs>
        <path id="prefix__a" d="M0 0.114L20.463 0.114 20.463 18.712 0 18.712z"/>
        <path id="prefix__c" d="M0 23.886L273.082 23.886 273.082 0.75 0 0.75z"/>
    </defs>
    <g fill="none" fill-rule="evenodd">
        <g transform="translate(0 .636)">
            <mask id="prefix__b" fill="#fff">
                <use xlink:href="#prefix__a"/>
            </mask>
            <path fill="#971B1E" d="M12.944 9.845c-.934.337-1.906.635-2.917.893-1.378.371-2.25.736-2.616 1.095-.378.371-.567.792-.567 1.264 0 .539.186.98.558 1.322.372.343.919.513 1.642.513.755 0 1.458-.184 2.108-.555.65-.37 1.111-.823 1.383-1.356.273-.534.409-1.227.409-2.082V9.845zM7.052 6.274L.536 5.59c.245-1.139.599-2.034 1.062-2.688.463-.653 1.129-1.219 2-1.699C4.222.857 5.08.589 6.174.399 7.267.209 8.449.114 9.72.114c2.041 0 3.68.115 4.919.344 1.238.228 2.27.706 3.096 1.431.58.502 1.036 1.214 1.372 2.135.334.92.501 1.8.501 2.637v7.85c0 .839.054 1.494.16 1.969.105.474.337 1.079.694 1.816h-6.397c-.257-.455-.424-.802-.502-1.04-.078-.24-.157-.614-.235-1.124-.892.86-1.778 1.475-2.659 1.842-1.204.492-2.604.738-4.198.738-2.118 0-3.726-.491-4.825-1.476C.549 16.253 0 15.04 0 13.6c0-1.353.396-2.465 1.188-3.337.79-.871 2.251-1.52 4.381-1.944 2.553-.515 4.209-.875 4.967-1.083.757-.205 1.56-.477 2.408-.812 0-.838-.172-1.423-.517-1.76-.345-.334-.952-.502-1.82-.502-1.113 0-1.947.18-2.503.537-.435.28-.785.805-1.052 1.576z" mask="url(#prefix__b)"/>
        </g>
        <path fill="#971B1E" d="M34.951 10.48c-.934.338-1.906.636-2.917.894-1.378.37-2.25.736-2.616 1.095-.378.37-.567.792-.567 1.263 0 .54.186.98.558 1.323.372.343.92.513 1.642.513.755 0 1.458-.184 2.108-.555.65-.371 1.111-.823 1.383-1.356.273-.534.41-1.227.41-2.082V10.48zM29.06 6.91l-6.516-.684c.245-1.139.599-2.034 1.062-2.688.463-.653 1.13-1.22 2-1.7.624-.345 1.483-.613 2.576-.803C29.274.845 30.456.75 31.728.75c2.041 0 3.68.115 4.919.343 1.238.229 2.27.707 3.096 1.432.58.502 1.036 1.214 1.372 2.135.334.92.501 1.8.501 2.637v7.85c0 .838.054 1.494.16 1.969.105.474.337 1.079.694 1.815h-6.397c-.257-.454-.424-.801-.502-1.04-.078-.238-.157-.613-.235-1.123-.892.859-1.778 1.475-2.659 1.842-1.204.492-2.604.738-4.198.738-2.118 0-3.726-.492-4.825-1.476-1.098-.983-1.647-2.196-1.647-3.637 0-1.353.396-2.465 1.188-3.337.79-.871 2.252-1.52 4.381-1.945 2.553-.514 4.209-.874 4.967-1.082.757-.205 1.56-.477 2.408-.812 0-.838-.172-1.424-.517-1.76-.345-.334-.952-.502-1.82-.502-1.113 0-1.947.179-2.503.537-.435.28-.785.805-1.052 1.576z"/>
        <path fill="#FEFEFE" d="M66.748 4.997l-1.349 1.035c-.744-.966-1.636-1.7-2.678-2.198-1.042-.499-2.186-.748-3.433-.748-1.364 0-2.626.327-3.788.982s-2.063 1.535-2.702 2.638c-.639 1.105-.958 2.346-.958 3.725 0 2.084.714 3.824 2.143 5.218 1.43 1.395 3.232 2.092 5.41 2.092 2.393 0 4.395-.937 6.006-2.812l1.349 1.023c-.852 1.087-1.916 1.927-3.19 2.52-1.274.595-2.697.89-4.27.89-2.99 0-5.349-.995-7.076-2.986-1.448-1.682-2.173-3.712-2.173-6.09 0-2.504.878-4.61 2.632-6.318 1.754-1.709 3.953-2.563 6.594-2.563 1.596 0 3.037.315 4.322.944 1.286.63 2.34 1.513 3.16 2.648M68.723 1.405h1.622v7.144c.659-.867 1.383-1.516 2.173-1.946.79-.43 1.647-.646 2.569-.646.946 0 1.784.241 2.516.721.733.48 1.274 1.126 1.622 1.936.348.81.523 2.079.523 3.807v6.51h-1.621v-6.032c0-1.456-.059-2.429-.175-2.916-.202-.838-.569-1.467-1.1-1.89-.53-.422-1.227-.633-2.087-.633-.985 0-1.867.326-2.647.977-.779.65-1.293 1.456-1.54 2.417-.155.62-.233 1.766-.233 3.44v4.637h-1.622V1.405z"/>
        <mask id="prefix__d" fill="#fff">
            <use xlink:href="#prefix__c"/>
        </mask>
        <path fill="#FEFEFE" d="M81.798 18.93h1.621V6.286h-1.621V18.93zm.805-17.852c.369 0 .684.13.946.394.26.263.391.579.391.95 0 .364-.13.677-.391.94-.262.262-.577.394-.946.394-.361 0-.672-.132-.934-.395-.261-.262-.391-.575-.391-.939 0-.371.13-.687.391-.95.262-.263.573-.394.934-.394zM97.9 8.905l-1.29.802c-1.115-1.478-2.64-2.217-4.57-2.217-1.543 0-2.824.495-3.843 1.487-1.02.99-1.53 2.194-1.53 3.611 0 .922.235 1.789.704 2.601.47.813 1.113 1.445 1.93 1.893.818.45 1.736.674 2.751.674 1.86 0 3.38-.74 4.559-2.217l1.29.849c-.606.91-1.419 1.617-2.439 2.118-1.02.502-2.182.753-3.486.753-2.001 0-3.662-.636-4.981-1.907-1.32-1.272-1.979-2.818-1.979-4.64 0-1.224.309-2.361.925-3.412.617-1.05 1.465-1.87 2.543-2.46 1.079-.588 2.286-.883 3.62-.883.838 0 1.648.128 2.427.384.78.255 1.441.587 1.984.997.543.41 1.005.932 1.386 1.567M105.936 7.52c-.906 0-1.74.223-2.507.668-.766.445-1.375 1.07-1.827 1.877-.453.805-.679 1.657-.679 2.556 0 .89.228 1.743.684 2.556.457.813 1.07 1.446 1.84 1.9.77.452 1.595.679 2.477.679.89 0 1.732-.224 2.53-.674.796-.45 1.409-1.057 1.838-1.824.43-.767.644-1.63.644-2.592 0-1.463-.482-2.687-1.444-3.67-.964-.985-2.149-1.476-3.556-1.476zm6.503-1.235v12.646h-1.607v-2.173c-.681.83-1.446 1.453-2.295 1.872-.848.419-1.775.628-2.782.628-1.79 0-3.317-.649-4.584-1.946-1.266-1.3-1.9-2.879-1.9-4.74 0-1.82.64-3.379 1.918-4.673s2.815-1.941 4.612-1.941c1.038 0 1.977.22 2.818.663.84.443 1.578 1.105 2.213 1.989V6.285h1.607zM121.007 7.52c-.922 0-1.778.223-2.568.669-.79.445-1.41 1.063-1.86 1.85-.449.788-.674 1.639-.674 2.555 0 1.387.465 2.535 1.395 3.443.93.908 2.134 1.362 3.614 1.362 1.496 0 2.699-.45 3.609-1.35.91-.9 1.365-2.083 1.365-3.548 0-.955-.209-1.807-.627-2.556-.419-.748-1.01-1.34-1.778-1.773-.767-.435-1.593-.652-2.476-.652zm4.807-1.235h1.622v10.079c0 1.775-.156 3.073-.465 3.895-.426 1.162-1.167 2.058-2.22 2.685-1.054.627-2.322.942-3.801.942-1.085 0-2.06-.154-2.924-.462-.863-.307-1.567-.72-2.11-1.238-.542-.518-1.041-1.276-1.499-2.273h1.77c.482.84 1.103 1.46 1.864 1.864.76.405 1.702.606 2.828.606 1.11 0 2.046-.207 2.811-.62.764-.413 1.31-.932 1.635-1.558.326-.625.49-1.635.49-3.029v-.65c-.614.774-1.363 1.369-2.247 1.783-.886.414-1.825.622-2.818.622-1.165 0-2.259-.288-3.283-.865-1.025-.578-1.817-1.355-2.376-2.332-.558-.977-.837-2.05-.837-3.22 0-1.17.29-2.26.873-3.272.582-1.012 1.387-1.811 2.415-2.401 1.03-.589 2.113-.883 3.255-.883.946 0 1.83.195 2.648.588.819.392 1.609 1.037 2.37 1.935V6.285zM135.716 7.55c-1.351 0-2.512.5-3.483 1.499-.97 1-1.456 2.21-1.456 3.628 0 .915.221 1.768.663 2.558.444.79 1.042 1.4 1.795 1.83.753.431 1.58.647 2.481.647.902 0 1.728-.216 2.482-.646.753-.43 1.351-1.04 1.794-1.83.443-.791.664-1.644.664-2.56 0-1.417-.487-2.626-1.462-3.627-.975-1-2.134-1.5-3.478-1.5m.006-1.591c1.947 0 3.56.705 4.84 2.115 1.163 1.287 1.745 2.81 1.745 4.57 0 1.767-.614 3.311-1.843 4.634-1.23 1.32-2.81 1.981-4.742 1.981-1.939 0-3.523-.66-4.752-1.981-1.23-1.323-1.845-2.867-1.845-4.634 0-1.752.582-3.27 1.746-4.558 1.28-1.419 2.896-2.127 4.851-2.127M148.104 3.518L148.104 1.836 157.463 1.836 157.463 3.518 153.654 3.518 153.654 18.931 151.913 18.931 151.913 3.518zM157.16 6.285h1.666v1.848c.494-.728 1.015-1.273 1.564-1.634.549-.361 1.12-.542 1.715-.542.448 0 .927.144 1.437.43l-.848 1.369c-.34-.147-.626-.222-.858-.222-.54 0-1.062.224-1.563.67-.502.445-.884 1.137-1.147 2.075-.201.721-.3 2.178-.3 4.373v4.279h-1.667V6.285zM169.838 7.52c-.906 0-1.741.223-2.507.668-.766.445-1.375 1.07-1.828 1.877-.452.805-.678 1.657-.678 2.556 0 .89.228 1.743.684 2.556.456.813 1.07 1.446 1.84 1.9.769.452 1.595.679 2.476.679.89 0 1.733-.224 2.53-.674.797-.45 1.41-1.057 1.84-1.824.428-.767.643-1.63.643-2.592 0-1.463-.482-2.687-1.445-3.67-.963-.985-2.148-1.476-3.555-1.476zm6.503-1.235v12.646h-1.607v-2.173c-.682.83-1.446 1.453-2.295 1.872-.848.419-1.776.628-2.782.628-1.79 0-3.317-.649-4.584-1.946-1.267-1.3-1.9-2.879-1.9-4.74 0-1.82.64-3.379 1.918-4.673s2.815-1.941 4.612-1.941c1.038 0 1.977.22 2.817.663.84.443 1.58 1.105 2.214 1.989V6.285h1.607zM178.81 6.285h1.621V8.55c.651-.867 1.372-1.517 2.162-1.947.792-.43 1.651-.647 2.581-.647.945 0 1.784.24 2.516.72.732.482 1.273 1.129 1.622 1.943.349.813.523 2.08.523 3.801v6.51h-1.622v-6.032c0-1.456-.06-2.43-.181-2.917-.19-.837-.552-1.466-1.086-1.889-.536-.421-1.233-.633-2.094-.633-.986 0-1.868.326-2.647.977-.78.65-1.292 1.457-1.54 2.417-.156.628-.234 1.774-.234 3.44v4.637h-1.621V6.285zM198.49 7.659l-1.046 1.08c-.873-.842-1.725-1.264-2.56-1.264-.53 0-.983.174-1.361.524-.378.348-.567.756-.567 1.22 0 .412.156.803.467 1.175.311.38.966.827 1.963 1.338 1.214.629 2.04 1.233 2.477 1.815.427.59.643 1.253.643 1.99 0 1.039-.366 1.92-1.095 2.64-.73.72-1.644 1.081-2.739 1.081-.73 0-1.427-.16-2.091-.479-.665-.319-1.214-.759-1.648-1.32l1.022-1.16c.833.941 1.715 1.412 2.647 1.412.654 0 1.209-.21 1.668-.628.459-.419.688-.912.688-1.478 0-.465-.152-.88-.455-1.244-.304-.357-.988-.808-2.053-1.35-1.144-.589-1.921-1.17-2.334-1.743-.412-.574-.618-1.228-.618-1.964 0-.96.328-1.758.984-2.394.657-.635 1.487-.953 2.489-.953 1.165 0 2.338.567 3.52 1.702M200.173 6.285h1.622V8.47c.567-.806 1.149-1.395 1.746-1.767.824-.497 1.689-.746 2.598-.746.612 0 1.195.12 1.746.36.552.24 1.002.56 1.351.96.35.398.652.97.908 1.714.543-.992 1.219-1.745 2.033-2.26.813-.516 1.687-.774 2.624-.774.875 0 1.647.221 2.317.663.67.442 1.167 1.058 1.492 1.848.326.791.488 1.977.488 3.557v6.906h-1.666v-6.908c0-1.357-.097-2.288-.29-2.796-.194-.508-.524-.917-.992-1.228-.468-.31-1.026-.465-1.677-.465-.789 0-1.51.234-2.163.699-.654.465-1.131 1.085-1.434 1.86-.301.775-.452 2.07-.452 3.885v4.953h-1.621v-6.477c0-1.527-.095-2.564-.286-3.11-.19-.547-.521-.985-.995-1.315-.473-.33-1.036-.495-1.687-.495-.754 0-1.458.228-2.114.68-.656.454-1.14 1.065-1.455 1.833-.314.767-.471 1.942-.471 3.523v5.36h-1.622V6.286zM221.074 18.93h1.621V6.286h-1.621V18.93zm.804-17.852c.37 0 .685.13.946.394.261.263.392.579.392.95 0 .364-.13.677-.392.94-.26.262-.577.394-.946.394-.36 0-.672-.132-.933-.395-.261-.262-.392-.575-.392-.939 0-.371.13-.687.392-.95.26-.263.573-.394.934-.394zM231.255 7.659l-1.046 1.08c-.873-.842-1.726-1.264-2.56-1.264-.53 0-.984.174-1.362.524-.378.348-.567.756-.567 1.22 0 .412.156.803.467 1.175.312.38.967.827 1.964 1.338 1.214.629 2.04 1.233 2.476 1.815.428.59.644 1.253.644 1.99 0 1.039-.366 1.92-1.095 2.64-.732.72-1.644 1.081-2.74 1.081-.73 0-1.427-.16-2.09-.479-.665-.319-1.215-.759-1.649-1.32l1.022-1.16c.833.941 1.715 1.412 2.647 1.412.654 0 1.21-.21 1.668-.628.46-.419.689-.912.689-1.478 0-.465-.153-.88-.456-1.244-.303-.357-.987-.808-2.053-1.35-1.144-.589-1.92-1.17-2.333-1.743-.413-.574-.618-1.228-.618-1.964 0-.96.327-1.758.984-2.394.657-.635 1.486-.953 2.489-.953 1.165 0 2.338.567 3.519 1.702M239.306 7.659l-1.047 1.08c-.873-.842-1.725-1.264-2.56-1.264-.53 0-.983.174-1.361.524-.378.348-.567.756-.567 1.22 0 .412.156.803.467 1.175.311.38.966.827 1.963 1.338 1.215.629 2.04 1.233 2.477 1.815.427.59.643 1.253.643 1.99 0 1.039-.366 1.92-1.095 2.64-.73.72-1.644 1.081-2.739 1.081-.73 0-1.427-.16-2.091-.479-.664-.319-1.213-.759-1.649-1.32l1.023-1.16c.833.941 1.714 1.412 2.648 1.412.653 0 1.209-.21 1.667-.628.458-.419.688-.912.688-1.478 0-.465-.151-.88-.454-1.244-.305-.357-.99-.808-2.054-1.35-1.143-.589-1.922-1.17-2.334-1.743-.412-.574-.618-1.228-.618-1.964 0-.96.328-1.758.984-2.394.657-.635 1.487-.953 2.489-.953 1.165 0 2.338.567 3.52 1.702M240.75 18.93h1.621V6.286h-1.621V18.93zm.805-17.852c.369 0 .684.13.945.394.262.263.392.579.392.95 0 .364-.13.677-.392.94-.261.262-.576.394-.945.394-.361 0-.672-.132-.934-.395-.262-.262-.392-.575-.392-.939 0-.371.13-.687.392-.95.262-.263.573-.394.934-.394zM250.56 7.55c-1.352 0-2.513.5-3.484 1.499-.97 1-1.456 2.21-1.456 3.628 0 .915.221 1.768.664 2.558.443.79 1.041 1.4 1.794 1.83.753.431 1.58.647 2.481.647.901 0 1.73-.216 2.482-.646.752-.43 1.35-1.04 1.793-1.83.443-.791.665-1.644.665-2.56 0-1.417-.488-2.626-1.462-3.627-.975-1-2.134-1.5-3.478-1.5m.006-1.591c1.947 0 3.56.705 4.84 2.115 1.164 1.287 1.745 2.81 1.745 4.57 0 1.767-.615 3.311-1.844 4.634-1.23 1.32-2.81 1.981-4.74 1.981-1.94 0-3.524-.66-4.753-1.981-1.23-1.323-1.845-2.867-1.845-4.634 0-1.752.582-3.27 1.746-4.558 1.28-1.419 2.897-2.127 4.851-2.127M258.976 6.285h1.621V8.55c.651-.867 1.371-1.517 2.162-1.947.79-.43 1.65-.647 2.58-.647.945 0 1.784.24 2.517.72.73.482 1.272 1.129 1.621 1.943.349.813.523 2.08.523 3.801v6.51h-1.622v-6.032c0-1.456-.06-2.43-.181-2.917-.19-.837-.551-1.466-1.086-1.889-.536-.421-1.233-.633-2.094-.633-.985 0-1.868.326-2.646.977-.78.65-1.293 1.457-1.541 2.417-.156.628-.233 1.774-.233 3.44v4.637h-1.621V6.285zM271.313 4.169h.171c.115 0 .195-.019.243-.056.046-.037.07-.084.07-.144 0-.058-.023-.105-.068-.143-.044-.037-.121-.055-.229-.055h-.188v.398zm-.396-.677h.712c.201 0 .347.041.438.123.09.08.136.19.136.327 0 .107-.035.2-.104.278-.07.078-.178.134-.327.17.061.023.106.047.135.074.04.036.082.091.126.162l.258.462h-.469c-.151-.304-.253-.486-.305-.545-.052-.06-.104-.088-.156-.088-.011 0-.028.001-.048.006v.627h-.396V3.492zm1.877.798c0-.333-.119-.616-.353-.852-.235-.234-.519-.351-.85-.351-.332 0-.615.117-.85.351-.235.236-.352.52-.352.852 0 .332.117.615.352.851.235.234.518.352.85.352.331 0 .615-.118.85-.352.234-.236.353-.519.353-.851zm.288 0c0 .267-.066.516-.2.745-.133.231-.315.413-.546.545-.23.133-.478.2-.745.2-.265 0-.512-.067-.743-.2-.23-.132-.412-.314-.546-.545-.132-.23-.2-.478-.2-.745 0-.266.068-.514.2-.745.134-.231.315-.413.546-.546.23-.133.478-.199.743-.199.267 0 .516.066.745.199.231.133.413.315.546.546.134.23.2.48.2.745z" mask="url(#prefix__d)"/>
    </g>
</svg>
