<svg xmlns="http://www.w3.org/2000/svg" width="90" height="59" viewBox="0 0 90 59">
    <g fill="none">
        <path fill="#16366F" d="M0 0H89.45V57.405H0z" transform="translate(.183 .896)"/>
        <path fill="#D9222A" d="M51.492 28.703c0 11.382-9.217 20.608-20.586 20.608-11.37 0-20.585-9.226-20.585-20.608S19.537 8.094 30.906 8.094c11.369 0 20.586 9.227 20.586 20.609" transform="translate(.183 .896)"/>
        <path fill="#EE9F2D" d="M58.542 8.094c-5.318 0-10.165 2.02-13.818 5.334-.745.677-1.44 1.405-2.079 2.181h4.159c.57.694 1.094 1.423 1.57 2.183h-7.298c-.44.703-.835 1.432-1.186 2.183h9.669c.331.71.623 1.438.871 2.181H39.018c-.24.716-.44 1.445-.598 2.183h12.608c.308 1.434.464 2.897.463 4.364 0 2.288-.373 4.49-1.061 6.546H39.018c.248.744.54 1.473.871 2.183h9.67c-.352.75-.748 1.48-1.187 2.183h-7.297c.477.76 1.002 1.49 1.57 2.18h4.158c-.639.778-1.334 1.508-2.08 2.183 3.654 3.315 8.5 5.334 13.82 5.334 11.369 0 20.586-9.227 20.586-20.609 0-11.381-9.217-20.608-20.586-20.608" transform="translate(.183 .896)"/>
        <path fill="#000" d="M76.385 40.19c0-.367.298-.665.665-.665.367 0 .665.298.665.666 0 .367-.298.665-.665.665-.367 0-.665-.298-.665-.665zm.665.507c.28 0 .505-.227.506-.506 0-.28-.227-.506-.506-.506s-.505.225-.505.504v.002c0 .279.226.506.504.506h.001zm-.09-.214h-.136v-.585h.246c.052 0 .105 0 .15.03.047.031.074.088.074.146 0 .066-.038.127-.101.15l.107.26h-.15l-.09-.232h-.1v.231zm0-.332h.076c.028 0 .057.003.083-.011.022-.015.034-.041.034-.067 0-.023-.014-.048-.033-.06-.024-.014-.062-.011-.087-.011h-.073v.15zM26.1 30.96c-.234-.027-.338-.034-.499-.034-1.266 0-1.908.435-1.908 1.293 0 .53.313.867.802.867.91 0 1.566-.868 1.605-2.126zm1.625 3.789h-1.851l.042-.882c-.565.697-1.318 1.028-2.342 1.028-1.211 0-2.042-.947-2.042-2.323 0-2.069 1.445-3.276 3.924-3.276.253 0 .578.023.91.065.07-.28.088-.4.088-.551 0-.564-.39-.774-1.433-.774-1.093-.012-1.995.261-2.365.383l.31-1.912c1.113-.327 1.847-.45 2.674-.45 1.919 0 2.935.862 2.934 2.493.003.436-.069.975-.182 1.684-.194 1.232-.61 3.871-.667 4.515zm-7.128 0h-2.235l1.28-8.037-2.858 8.037H15.26l-.188-7.99-1.346 7.99h-2.092l1.748-10.454h3.213l.195 5.851 1.96-5.851h3.574l-1.728 10.454zm40.709-3.789c-.234-.027-.338-.034-.498-.034-1.266 0-1.908.435-1.908 1.293 0 .53.313.867.801.867.91 0 1.567-.868 1.605-2.126zm1.626 3.789h-1.851l.042-.882c-.565.697-1.32 1.028-2.342 1.028-1.212 0-2.041-.947-2.041-2.323 0-2.069 1.443-3.276 3.923-3.276.253 0 .578.023.91.065.07-.28.087-.4.087-.551 0-.564-.389-.774-1.433-.774-1.093-.012-1.994.261-2.366.383.024-.141.311-1.912.311-1.912 1.114-.327 1.848-.45 2.674-.45 1.92 0 2.936.862 2.934 2.493.004.436-.069.975-.181 1.684-.193 1.232-.61 3.871-.667 4.515zm-25.274-.13c-.612.193-1.088.276-1.605.276-1.143 0-1.766-.657-1.766-1.868-.017-.375.164-1.364.306-2.266.129-.794.969-5.801.969-5.801h2.221l-.26 1.287h1.343l-.303 2.043h-1.347c-.258 1.617-.626 3.63-.63 3.898 0 .438.234.63.765.63.255 0 .452-.027.603-.081l-.296 1.882zm6.811-.069c-.763.234-1.5.347-2.28.345-2.486-.002-3.783-1.303-3.783-3.793 0-2.906 1.65-5.045 3.888-5.045 1.831 0 3.001 1.198 3.001 3.076 0 .624-.08 1.232-.274 2.091h-4.423c-.15 1.234.638 1.747 1.93 1.747.796 0 1.513-.164 2.31-.535l-.369 2.114zm-1.248-5.04c.012-.177.235-1.517-1.034-1.517-.708 0-1.214.54-1.42 1.517h2.454zm-14.154-.576c0 1.076.52 1.817 1.702 2.374.905.426 1.045.552 1.045.938 0 .53-.4.77-1.284.77-.666 0-1.286-.105-2.002-.336l-.307 1.963c.508.111.961.214 2.326.252 2.358 0 3.447-.899 3.447-2.842 0-1.168-.456-1.853-1.576-2.369-.937-.43-1.044-.526-1.044-.923 0-.46.371-.694 1.094-.694.438 0 1.037.046 1.605.127l.318-1.972c-.578-.091-1.456-.165-1.966-.165-2.5 0-3.366 1.307-3.358 2.877zm26.272-2.654c.62 0 1.2.163 1.997.565l.365-2.269c-.327-.128-1.48-.884-2.456-.884-1.496 0-2.76.743-3.649 1.97-1.297-.43-1.83.438-2.484 1.304l-.58.136c.044-.285.083-.569.07-.855H46.55c-.28 2.63-.778 5.296-1.167 7.93l-.101.572h2.236c.373-2.428.577-3.982.702-5.034l.842-.469c.125-.468.519-.626 1.309-.607-.106.575-.16 1.158-.159 1.743 0 2.781 1.5 4.513 3.905 4.513.62 0 1.152-.082 1.975-.305l.393-2.384c-.74.365-1.348.537-1.899.537-1.299 0-2.085-.96-2.085-2.547 0-2.302 1.17-3.916 2.838-3.916z" transform="translate(.183 .896)"/>
        <path fill="#FFF" d="M21.24 34.126L19.004 34.126 20.285 26.091 17.427 34.126 15.904 34.126 15.716 26.137 14.37 34.126 12.278 34.126 14.025 23.674 17.239 23.674 17.329 30.145 19.497 23.674 22.968 23.674 21.24 34.126" transform="translate(.183 .896)"/>
        <path fill="#000" d="M74.257 24.294l-.495 3.02c-.612-.805-1.268-1.387-2.135-1.387-1.128 0-2.154.855-2.826 2.115-.935-.194-1.903-.524-1.903-.524v.008c.075-.704.105-1.134.098-1.28h-2.052c-.28 2.631-.777 5.296-1.165 7.93l-.103.572h2.236c.302-1.963.533-3.593.703-4.885.764-.691 1.146-1.294 1.918-1.254-.342.828-.542 1.78-.542 2.758 0 2.125 1.074 3.527 2.699 3.527.818 0 1.447-.282 2.06-.938l-.105.79h2.114l1.702-10.452h-2.204zm-2.795 8.49c-.76 0-1.145-.564-1.145-1.677 0-1.67.72-2.856 1.733-2.856.768 0 1.184.586 1.184 1.666 0 1.686-.73 2.866-1.772 2.866z" transform="translate(.183 .896)"/>
        <path fill="#FFF" d="M26.742 30.34c-.234-.027-.338-.035-.498-.035-1.267 0-1.908.435-1.908 1.294 0 .529.313.866.8.866.912 0 1.568-.867 1.606-2.125zm1.626 3.787h-1.852l.042-.88c-.564.695-1.318 1.028-2.341 1.028-1.212 0-2.042-.948-2.042-2.323 0-2.07 1.444-3.277 3.924-3.277.253 0 .578.023.91.066.07-.28.087-.4.087-.552 0-.564-.388-.773-1.433-.773-1.093-.012-1.994.26-2.365.381l.31-1.91c1.113-.328 1.848-.451 2.674-.451 1.92 0 2.936.863 2.934 2.492.003.438-.07.977-.181 1.685-.194 1.231-.61 3.872-.667 4.514zm29.975-10.172l-.366 2.27c-.797-.401-1.376-.565-1.996-.565-1.67 0-2.839 1.614-2.839 3.916 0 1.587.787 2.546 2.085 2.546.55 0 1.158-.17 1.899-.537l-.392 2.383c-.824.225-1.355.307-1.976.307-2.405 0-3.905-1.732-3.905-4.514 0-3.737 2.071-6.349 5.033-6.349.976 0 2.129.415 2.457.543zm3.606 6.385c-.235-.027-.338-.035-.499-.035-1.266 0-1.907.435-1.907 1.294 0 .529.313.866.8.866.91 0 1.567-.867 1.606-2.125zm1.626 3.787h-1.853l.043-.88c-.565.695-1.319 1.028-2.342 1.028-1.211 0-2.042-.948-2.042-2.323 0-2.07 1.445-3.277 3.924-3.277.254 0 .578.023.91.066.07-.28.088-.4.088-.552 0-.564-.389-.773-1.433-.773-1.093-.012-1.995.26-2.366.381.024-.14.31-1.91.31-1.91 1.114-.328 1.849-.451 2.674-.451 1.92 0 2.936.863 2.934 2.492.004.438-.068.977-.181 1.685-.193 1.231-.61 3.872-.666 4.514zm-25.275-.13c-.612.194-1.089.278-1.605.278-1.143 0-1.766-.658-1.766-1.868-.016-.377.165-1.364.307-2.266.128-.795.968-5.802.968-5.802h2.221l-.259 1.287h1.14l-.303 2.043h-1.144c-.258 1.617-.627 3.63-.63 3.897 0 .44.234.63.765.63.254 0 .451-.025.602-.08l-.296 1.882zm6.811-.067c-.762.233-1.5.346-2.28.345-2.486-.003-3.782-1.303-3.782-3.793 0-2.907 1.649-5.046 3.887-5.046 1.832 0 3.002 1.197 3.002 3.077 0 .624-.08 1.232-.274 2.09h-4.423c-.15 1.234.638 1.748 1.93 1.748.795 0 1.513-.164 2.31-.536l-.37 2.115zm-1.249-5.041c.014-.177.237-1.518-1.033-1.518-.707 0-1.213.542-1.42 1.518h2.453zm-14.153-.575c0 1.075.52 1.816 1.702 2.374.905.425 1.045.552 1.045.938 0 .53-.4.769-1.283.769-.667 0-1.287-.104-2.003-.335 0 0-.293 1.873-.306 1.963.506.111.96.212 2.325.252 2.358 0 3.447-.9 3.447-2.842 0-1.168-.456-1.854-1.576-2.369-.936-.431-1.045-.526-1.045-.924 0-.459.372-.695 1.094-.695.439 0 1.038.048 1.606.129l.318-1.973c-.578-.091-1.455-.165-1.966-.165-2.5 0-3.365 1.306-3.358 2.878zm45.694 5.813h-2.115l.105-.792c-.613.657-1.241.94-2.06.94-1.625 0-2.698-1.403-2.698-3.528 0-2.828 1.665-5.212 3.636-5.212.867 0 1.523.355 2.133 1.16l.496-3.02h2.205l-1.702 10.452zm-3.297-1.965c1.04 0 1.772-1.18 1.772-2.864 0-1.08-.416-1.666-1.184-1.666-1.014 0-1.734 1.184-1.734 2.856 0 1.112.385 1.674 1.146 1.674zm-6.519-6.536c-.28 2.632-.776 5.297-1.165 7.93l-.102.57h2.235c.8-5.197.993-6.212 2.246-6.085.2-1.064.572-1.996.849-2.466-.936-.195-1.459.334-2.143 1.34.054-.435.153-.857.133-1.289h-2.053zm-18.396 0c-.28 2.632-.778 5.297-1.166 7.93l-.102.57h2.236c.799-5.197.992-6.212 2.244-6.085.201-1.064.573-1.996.849-2.466-.935-.195-1.458.334-2.142 1.34.054-.435.152-.857.133-1.289h-2.052zm29.193 7.835c0-.369.298-.666.665-.666.367 0 .664.297.665.665v.001c0 .368-.298.666-.665.666-.367 0-.664-.298-.665-.666zm.665.506c.279 0 .505-.226.505-.505 0-.28-.226-.506-.504-.507-.28 0-.506.227-.507.506 0 .28.227.506.506.506zm-.09-.215h-.136v-.583h.247c.051 0 .104 0 .149.029.047.032.075.088.075.146 0 .066-.04.128-.102.151l.108.257h-.152l-.09-.23h-.099v.23zm0-.33h.075c.028 0 .059.002.084-.012.022-.014.034-.041.034-.067-.001-.024-.014-.047-.033-.06-.024-.014-.062-.01-.088-.01h-.072v.149z" transform="translate(.183 .896)"/>
    </g>
</svg>
