<svg xmlns="http://www.w3.org/2000/svg" width="36" height="48" viewBox="0 0 36 48">
    <path fill="#B43838" d="M3.92 22.486l9.322 4.548c1.796.88 1.515 3.51-.421 3.997L2.76 33.539c-.598.15-1.232.035-1.738-.317-.505-.351-.835-.904-.902-1.517-.309-2.69-.021-5.416.842-7.983.196-.582.633-1.05 1.199-1.287.566-.237 1.207-.218 1.758.051zm4.117 22.386c2.23 1.528 4.766 2.553 7.432 3.004.606.105 1.229-.059 1.706-.448.477-.388.763-.965.784-1.58l.365-10.37c.066-1.992-2.386-2.985-3.725-1.506l-6.943 7.71c-.412.458-.606 1.071-.532 1.682.073.611.406 1.16.914 1.508zm13.6-10.285l5.502 8.795c.328.523.865.879 1.474.977.61.099 1.231-.07 1.707-.462 2.086-1.724 3.77-3.883 4.932-6.326.26-.556.269-1.197.026-1.76-.243-.564-.715-.997-1.297-1.191l-9.864-3.206c-1.9-.608-3.538 1.479-2.48 3.173zm13.878-12.372c-1.078-2.481-2.688-4.695-4.716-6.485-.462-.405-1.075-.592-1.684-.513-.609.079-1.154.416-1.498.924l-5.8 8.601c-1.114 1.656.439 3.8 2.357 3.248l9.978-2.855c.592-.174 1.08-.594 1.342-1.152.261-.559.27-1.202.025-1.768h-.004zM5.718 2.824c-.536.258-.94.727-1.116 1.295-.176.568-.107 1.184.19 1.699l9.742 16.883c1.095 1.89 3.987 1.114 3.987-1.066V2.14c.005-.596-.24-1.166-.676-1.572-.436-.406-1.023-.61-1.617-.562-3.646.29-7.208 1.245-10.51 2.817z"/>
</svg>
