<svg xmlns="http://www.w3.org/2000/svg" width="90" height="58" viewBox="0 0 90 58">
    <g fill="none">
        <path fill="#0E4595" d="M0 0H89.45V57.405H0z"/>
        <path fill="#FFF" d="M33.624 40.038l3.826-22.475h6.119L39.74 40.038h-6.116zm28.223-21.99c-1.212-.456-3.112-.945-5.484-.945-6.046 0-10.305 3.048-10.341 7.417-.035 3.23 3.04 5.031 5.361 6.107 2.382 1.101 3.183 1.804 3.171 2.787-.015 1.507-1.902 2.195-3.66 2.195-2.45 0-3.75-.34-5.76-1.18l-.789-.357-.859 5.032c1.43.627 4.072 1.17 6.817 1.199 6.432 0 10.607-3.014 10.655-7.68.023-2.556-1.607-4.502-5.138-6.106-2.138-1.04-3.448-1.733-3.434-2.786 0-.934 1.108-1.933 3.504-1.933 2-.031 3.45.406 4.58.86l.548.26.83-4.87zm15.747-.486h-4.728c-1.465 0-2.561.4-3.205 1.864l-9.087 20.597h6.425s1.05-2.77 1.288-3.377c.703 0 6.945.01 7.837.01.183.786.745 3.367.745 3.367h5.678l-4.953-22.461zm-7.502 14.513c.506-1.295 2.438-6.282 2.438-6.282-.036.06.502-1.302.811-2.145l.414 1.937s1.172 5.365 1.416 6.49h-5.079zM28.429 17.562L22.44 32.89l-.64-3.114c-1.114-3.59-4.59-7.48-8.474-9.428l5.478 19.655 6.474-.007 9.634-22.433h-6.482z"/>
        <path fill="#F2AE14" d="M16.849 17.561H6.982l-.079.468c7.677 1.86 12.756 6.356 14.865 11.758l-2.146-10.329c-.37-1.423-1.444-1.847-2.773-1.897"/>
    </g>
</svg>
